{
  "accessors": [
    {
      "bufferView": 2,
      "componentType": 5126,
      "count": 5895,
      "max": [
        1699.321044921875,
        1561.07080078125,
        702.656494140625
      ],
      "min": [
        0.0,
        0.0,
        0.0
      ],
      "type": "VEC3"
    },
    {
      "bufferView": 2,
      "byteOffset": 70740,
      "componentType": 5126,
      "count": 5895,
      "max": [
        1.0,
        1.0,
        1.0
      ],
      "min": [
        -1.0,
        -1.0,
        -1.0
      ],
      "type": "VEC3"
    },
    {
      "bufferView": 3,
      "componentType": 5126,
      "count": 5895,
      "max": [
        1.0,
        1.0,
        1.0,
        1.0
      ],
      "min": [
        -1.0,
        -1.0,
        -1.0,
        -1.0
      ],
      "type": "VEC4"
    },
    {
      "bufferView": 1,
      "componentType": 5126,
      "count": 5895,
      "max": [
        0.9949460029602051,
        0.9969949722290039
      ],
      "min": [
        0.006293000187724829,
        0.0034370000939816236
      ],
      "type": "VEC2"
    },
    {
      "bufferView": 0,
      "componentType": 5125,
      "count": 15666,
      "type": "SCALAR"
    },
    {
      "bufferView": 2,
      "byteOffset": 141480,
      "componentType": 5126,
      "count": 86,
      "max": [
        907.6152954101563,
        946.8328857421875,
        550.151123046875
      ],
      "min": [
        789.6322631835938,
        697.099609375,
        472.8746643066406
      ],
      "type": "VEC3"
    },
    {
      "bufferView": 2,
      "byteOffset": 142512,
      "componentType": 5126,
      "count": 86,
      "max": [
        1.0,
        0.646831214427948,
        0.977216362953186
      ],
      "min": [
        -1.0,
        -0.646831214427948,
        -0.9772164821624756
      ],
      "type": "VEC3"
    },
    {
      "bufferView": 3,
      "byteOffset": 94320,
      "componentType": 5126,
      "count": 86,
      "max": [
        0.999994695186615,
        1.0,
        0.9735672473907471,
        1.0
      ],
      "min": [
        -0.9999949932098389,
        0.002924665343016386,
        -0.9666733741760254,
        -1.0
      ],
      "type": "VEC4"
    },
    {
      "bufferView": 1,
      "byteOffset": 47160,
      "componentType": 5126,
      "count": 86,
      "max": [
        0.9696589708328247,
        0.865401029586792
      ],
      "min": [
        0.42453598976135254,
        0.09396599978208542
      ],
      "type": "VEC2"
    },
    {
      "bufferView": 0,
      "byteOffset": 62664,
      "componentType": 5125,
      "count": 144,
      "type": "SCALAR"
    },
    {
      "bufferView": 2,
      "byteOffset": 143544,
      "componentType": 5126,
      "count": 8,
      "max": [
        900.8202514648438,
        790.427001953125,
        505.6753234863281
      ],
      "min": [
        798.5007934570313,
        768.1554565429688,
        459.11834716796875
      ],
      "type": "VEC3"
    },
    {
      "bufferView": 2,
      "byteOffset": 143640,
      "componentType": 5126,
      "count": 8,
      "max": [
        0.29048416018486023,
        0.9517582654953003,
        0.2676490545272827
      ],
      "min": [
        -0.29048416018486023,
        0.9211494326591492,
        0.2590418756008148
      ],
      "type": "VEC3"
    },
    {
      "bufferView": 1,
      "byteOffset": 47848,
      "componentType": 5126,
      "count": 8,
      "max": [
        0.6172999739646912,
        0.7553369998931885
      ],
      "min": [
        0.4472230076789856,
        0.6970279812812805
      ],
      "type": "VEC2"
    },
    {
      "bufferView": 0,
      "byteOffset": 63240,
      "componentType": 5125,
      "count": 18,
      "type": "SCALAR"
    },
    {
      "bufferView": 2,
      "byteOffset": 143736,
      "componentType": 5126,
      "count": 48,
      "max": [
        1131.8804931640625,
        2958.74609375,
        442.2031555175781
      ],
      "min": [
        555.0473022460938,
        1302.3125,
        317.7457275390625
      ],
      "type": "VEC3"
    },
    {
      "bufferView": 2,
      "byteOffset": 144312,
      "componentType": 5126,
      "count": 48,
      "max": [
        0.0,
        -0.0,
        1.0
      ],
      "min": [
        -1.0,
        -0.0,
        0.0
      ],
      "type": "VEC3"
    },
    {
      "bufferView": 1,
      "byteOffset": 47912,
      "componentType": 5126,
      "count": 48,
      "max": [
        0.8653849959373474,
        0.9947239756584167
      ],
      "min": [
        0.17727600038051605,
        0.002078999998047948
      ],
      "type": "VEC2"
    },
    {
      "bufferView": 0,
      "byteOffset": 63312,
      "componentType": 5125,
      "count": 120,
      "type": "SCALAR"
    }
  ],
  "asset": {
    "extras": {
      "author": "Polenta (https://sketchfab.com/kln)",
      "license": "CC-BY-4.0 (http://creativecommons.org/licenses/by/4.0/)",
      "source": "https://sketchfab.com/3d-models/raven-spaceship-star-conflict-v2-5edb70fdc0da4e6aa7d96f5f19f7a419",
      "title": "Raven spaceship - Star Conflict (v.2)"
    },
    "generator": "Sketchfab-12.67.0",
    "version": "2.0"
  },
  "bufferViews": [
    {
      "buffer": 0,
      "byteLength": 63792,
      "name": "floatBufferViews",
      "target": 34963
    },
    {
      "buffer": 0,
      "byteLength": 48296,
      "byteOffset": 63792,
      "byteStride": 8,
      "name": "floatBufferViews",
      "target": 34962
    },
    {
      "buffer": 0,
      "byteLength": 144888,
      "byteOffset": 112088,
      "byteStride": 12,
      "name": "floatBufferViews",
      "target": 34962
    },
    {
      "buffer": 0,
      "byteLength": 95696,
      "byteOffset": 256976,
      "byteStride": 16,
      "name": "floatBufferViews",
      "target": 34962
    }
  ],
  "buffers": [
    {
      "byteLength": 352672,
      "uri": "scene.bin"
    }
  ],
  "images": [
    {
      "uri": "textures/Raven_sketchfablambert5SG_baseColor.png"
    },
    {
      "uri": "textures/Raven_sketchfablambert5SG_metallicRoughness.png"
    },
    {
      "uri": "textures/Raven_sketchfablambert5SG_emissive.png"
    },
    {
      "uri": "textures/Raven_sketchfablambert5SG_normal.png"
    },
    {
      "uri": "textures/Raven_sketchfablambert6SG_baseColor.png"
    },
    {
      "uri": "textures/Raven_sketchfablambert6SG_metallicRoughness.png"
    },
    {
      "uri": "textures/Raven_sketchfablambert7SG_baseColor.png"
    },
    {
      "uri": "textures/Raven_sketchfablambert8SG_baseColor.png"
    },
    {
      "uri": "textures/Raven_sketchfablambert8SG_emissive.png"
    }
  ],
  "materials": [
    {
      "doubleSided": true,
      "emissiveFactor": [
        1.0,
        1.0,
        1.0
      ],
      "emissiveTexture": {
        "index": 2
      },
      "name": "Raven_sketchfablambert5SG",
      "normalTexture": {
        "index": 3
      },
      "pbrMetallicRoughness": {
        "baseColorTexture": {
          "index": 0
        },
        "metallicRoughnessTexture": {
          "index": 1
        }
      }
    },
    {
      "alphaMode": "BLEND",
      "doubleSided": true,
      "name": "Raven_sketchfablambert6SG",
      "normalTexture": {
        "index": 3
      },
      "pbrMetallicRoughness": {
        "baseColorFactor": [
          1.0,
          1.0,
          1.0,
          0.30316310975609767
        ],
        "baseColorTexture": {
          "index": 4
        },
        "metallicFactor": 0.0,
        "metallicRoughnessTexture": {
          "index": 5
        },
        "roughnessFactor": 0.0
      }
    },
    {
      "alphaMode": "BLEND",
      "doubleSided": true,
      "emissiveFactor": [
        1.0,
        1.0,
        1.0
      ],
      "emissiveTexture": {
        "index": 0
      },
      "name": "Raven_sketchfablambert7SG",
      "pbrMetallicRoughness": {
        "baseColorFactor": [
          1.0,
          1.0,
          1.0,
          0.2543826219512195
        ],
        "baseColorTexture": {
          "index": 6
        },
        "metallicFactor": 0.0,
        "roughnessFactor": 0.6
      }
    },
    {
      "alphaMode": "BLEND",
      "doubleSided": true,
      "emissiveFactor": [
        1.0,
        1.0,
        1.0
      ],
      "emissiveTexture": {
        "index": 8
      },
      "name": "Raven_sketchfablambert8SG",
      "pbrMetallicRoughness": {
        "baseColorFactor": [
          1.0,
          1.0,
          1.0,
          0.15072408536585372
        ],
        "baseColorTexture": {
          "index": 7
        },
        "metallicFactor": 0.0,
        "roughnessFactor": 0.0
      }
    }
  ],
  "meshes": [
    {
      "name": "Object_0",
      "primitives": [
        {
          "attributes": {
            "NORMAL": 1,
            "POSITION": 0,
            "TANGENT": 2,
            "TEXCOORD_0": 3
          },
          "indices": 4,
          "material": 0,
          "mode": 4
        }
      ]
    },
    {
      "name": "Object_1",
      "primitives": [
        {
          "attributes": {
            "NORMAL": 6,
            "POSITION": 5,
            "TANGENT": 7,
            "TEXCOORD_0": 8
          },
          "indices": 9,
          "material": 1,
          "mode": 4
        }
      ]
    },
    {
      "name": "Object_2",
      "primitives": [
        {
          "attributes": {
            "NORMAL": 11,
            "POSITION": 10,
            "TEXCOORD_0": 12
          },
          "indices": 13,
          "material": 2,
          "mode": 4
        }
      ]
    },
    {
      "name": "Object_3",
      "primitives": [
        {
          "attributes": {
            "NORMAL": 15,
            "POSITION": 14,
            "TEXCOORD_0": 16
          },
          "indices": 17,
          "material": 3,
          "mode": 4
        }
      ]
    }
  ],
  "nodes": [
    {
      "children": [
        1
      ],
      "matrix": [
        1.0,
        0.0,
        0.0,
        0.0,
        0.0,
        2.220446049250313e-16,
        -1.0,
        0.0,
        0.0,
        1.0,
        2.220446049250313e-16,
        0.0,
        0.0,
        0.0,
        0.0,
        1.0
      ],
      "name": "Sketchfab_model"
    },
    {
      "children": [
        2
      ],
      "matrix": [
        1.0,
        0.0,
        0.0,
        0.0,
        0.0,
        1.0,
        0.0,
        0.0,
        0.0,
        0.0,
        1.0,
        0.0,
        -849.6605224609375,
        -821.1820068359375,
        -376.1498718261719,
        1.0
      ],
      "name": "Raven_sketchfab.obj.cleaner.gles"
    },
    {
      "children": [
        3,
        4,
        5,
        6
      ],
      "name": "Object_2"
    },
    {
      "mesh": 0,
      "name": "Object_3"
    },
    {
      "mesh": 1,
      "name": "Object_4"
    },
    {
      "mesh": 2,
      "name": "Object_5"
    },
    {
      "mesh": 3,
      "name": "Object_6"
    }
  ],
  "samplers": [
    {
      "magFilter": 9729,
      "minFilter": 9987,
      "wrapS": 10497,
      "wrapT": 10497
    }
  ],
  "scene": 0,
  "scenes": [
    {
      "name": "Sketchfab_Scene",
      "nodes": [
        0
      ]
    }
  ],
  "textures": [
    {
      "sampler": 0,
      "source": 0
    },
    {
      "sampler": 0,
      "source": 1
    },
    {
      "sampler": 0,
      "source": 2
    },
    {
      "sampler": 0,
      "source": 3
    },
    {
      "sampler": 0,
      "source": 4
    },
    {
      "sampler": 0,
      "source": 5
    },
    {
      "sampler": 0,
      "source": 6
    },
    {
      "sampler": 0,
      "source": 7
    },
    {
      "sampler": 0,
      "source": 8
    }
  ]
}
