{
  "accessors": [
    {
      "bufferView": 2,
      "componentType": 5126,
      "count": 65533,
      "max": [
        1.5605100393295288,
        -0.652209997177124,
        -10.820070266723633
      ],
      "min": [
        -17.95067024230957,
        -17.7470703125,
        -20.1685791015625
      ],
      "type": "VEC3"
    },
    {
      "bufferView": 2,
      "byteOffset": 786396,
      "componentType": 5126,
      "count": 65533,
      "max": [
        0.999965488910675,
        0.9999852776527405,
        0.9999982714653015
      ],
      "min": [
        -0.9999943971633911,
        -0.9999731183052063,
        -0.9999328255653381
      ],
      "type": "VEC3"
    },
    {
      "bufferView": 1,
      "componentType": 5126,
      "count": 65533,
      "max": [
        0.9990500211715698,
        0.9989399909973145
      ],
      "min": [
        0.0010400000028312206,
        0.002319999970495701
      ],
      "type": "VEC2"
    },
    {
      "bufferView": 0,
      "componentType": 5125,
      "count": 153621,
      "type": "SCALAR"
    },
    {
      "bufferView": 2,
      "byteOffset": 1572792,
      "componentType": 5126,
      "count": 14424,
      "max": [
        1.5576200485229492,
        -0.6635599732398987,
        -10.820070266723633
      ],
      "min": [
        -17.82118034362793,
        -17.67729949951172,
        -20.1685791015625
      ],
      "type": "VEC3"
    },
    {
      "bufferView": 2,
      "byteOffset": 1745880,
      "componentType": 5126,
      "count": 14424,
      "max": [
        0.9998776316642761,
        0.9997886419296265,
        0.9998233318328857
      ],
      "min": [
        -0.9994900226593018,
        -0.9998817443847656,
        -0.9978721141815186
      ],
      "type": "VEC3"
    },
    {
      "bufferView": 1,
      "byteOffset": 524264,
      "componentType": 5126,
      "count": 14424,
      "max": [
        0.998960018157959,
        0.9989500045776367
      ],
      "min": [
        0.0010499999625608325,
        0.002529999939724803
      ],
      "type": "VEC2"
    },
    {
      "bufferView": 0,
      "byteOffset": 614484,
      "componentType": 5125,
      "count": 18831,
      "type": "SCALAR"
    },
    {
      "bufferView": 2,
      "byteOffset": 1918968,
      "componentType": 5126,
      "count": 5445,
      "max": [
        1.5576200485229492,
        -0.661050021648407,
        -10.919440269470215
      ],
      "min": [
        -17.75094985961914,
        -17.626949310302734,
        -20.018280029296875
      ],
      "type": "VEC3"
    },
    {
      "bufferView": 2,
      "byteOffset": 1984308,
      "componentType": 5126,
      "count": 5445,
      "max": [
        0.9990490674972534,
        0.9991772770881653,
        0.9999829530715942
      ],
      "min": [
        -0.9963994026184082,
        -0.9995997548103333,
        -0.9911877512931824
      ],
      "type": "VEC3"
    },
    {
      "bufferView": 1,
      "byteOffset": 639656,
      "componentType": 5126,
      "count": 5445,
      "max": [
        0.9958199858665466,
        0.9958099722862244
      ],
      "min": [
        0.0041600000113248825,
        0.0037499999161809683
      ],
      "type": "VEC2"
    },
    {
      "bufferView": 0,
      "byteOffset": 689808,
      "componentType": 5125,
      "count": 5445,
      "type": "SCALAR"
    },
    {
      "bufferView": 2,
      "byteOffset": 2049648,
      "componentType": 5126,
      "count": 65532,
      "max": [
        24.562700271606445,
        18.580659866333008,
        -9.771200180053711
      ],
      "min": [
        1.4091800451278687,
        -19.99696922302246,
        -21.364139556884766
      ],
      "type": "VEC3"
    },
    {
      "bufferView": 2,
      "byteOffset": 2836032,
      "componentType": 5126,
      "count": 65532,
      "max": [
        0.9999762773513794,
        0.9999797344207764,
        0.9999947547912598
      ],
      "min": [
        -0.9999644160270691,
        -0.9999967813491821,
        -0.9996010661125183
      ],
      "type": "VEC3"
    },
    {
      "bufferView": 1,
      "byteOffset": 683216,
      "componentType": 5126,
      "count": 65532,
      "max": [
        0.9987900257110596,
        0.9989399909973145
      ],
      "min": [
        0.0010400000028312206,
        0.0020200000144541264
      ],
      "type": "VEC2"
    },
    {
      "bufferView": 0,
      "byteOffset": 711588,
      "componentType": 5125,
      "count": 65538,
      "type": "SCALAR"
    },
    {
      "bufferView": 2,
      "byteOffset": 3622416,
      "componentType": 5126,
      "count": 65532,
      "max": [
        24.562700271606445,
        18.549699783325195,
        -9.771200180053711
      ],
      "min": [
        1.446120023727417,
        -19.989810943603516,
        -20.63800048828125
      ],
      "type": "VEC3"
    },
    {
      "bufferView": 2,
      "byteOffset": 4408800,
      "componentType": 5126,
      "count": 65532,
      "max": [
        0.9999830722808838,
        0.9999092817306519,
        0.9999958276748657
      ],
      "min": [
        -0.9999792575836182,
        -0.9999451041221619,
        -0.9997000098228455
      ],
      "type": "VEC3"
    },
    {
      "bufferView": 1,
      "byteOffset": 1207472,
      "componentType": 5126,
      "count": 65532,
      "max": [
        0.9990699887275696,
        0.9989399909973145
      ],
      "min": [
        0.0010400000028312206,
        0.0017600000137463212
      ],
      "type": "VEC2"
    },
    {
      "bufferView": 0,
      "byteOffset": 973740,
      "componentType": 5125,
      "count": 65532,
      "type": "SCALAR"
    },
    {
      "bufferView": 2,
      "byteOffset": 5195184,
      "componentType": 5126,
      "count": 65532,
      "max": [
        24.555810928344727,
        18.5504207611084,
        -9.836520195007324
      ],
      "min": [
        1.439560055732727,
        -19.99580955505371,
        -21.364139556884766
      ],
      "type": "VEC3"
    },
    {
      "bufferView": 2,
      "byteOffset": 5981568,
      "componentType": 5126,
      "count": 65532,
      "max": [
        0.9998205900192261,
        0.9995036721229553,
        0.9999995231628418
      ],
      "min": [
        -0.9999947547912598,
        -0.9999771118164063,
        -0.9999588131904602
      ],
      "type": "VEC3"
    },
    {
      "bufferView": 1,
      "byteOffset": 1731728,
      "componentType": 5126,
      "count": 65532,
      "max": [
        0.998960018157959,
        0.9989500045776367
      ],
      "min": [
        0.001069999998435378,
        0.0020200000144541264
      ],
      "type": "VEC2"
    },
    {
      "bufferView": 0,
      "byteOffset": 1235868,
      "componentType": 5125,
      "count": 65532,
      "type": "SCALAR"
    },
    {
      "bufferView": 2,
      "byteOffset": 6767952,
      "componentType": 5126,
      "count": 19767,
      "max": [
        24.28611946105957,
        18.54829978942871,
        -11.996620178222656
      ],
      "min": [
        1.43858003616333,
        -6.762549877166748,
        -20.910919189453125
      ],
      "type": "VEC3"
    },
    {
      "bufferView": 2,
      "byteOffset": 7005156,
      "componentType": 5126,
      "count": 19767,
      "max": [
        0.9998453259468079,
        0.9999436736106873,
        0.9997640252113342
      ],
      "min": [
        -0.999946653842926,
        -0.9997397661209106,
        -0.995196521282196
      ],
      "type": "VEC3"
    },
    {
      "bufferView": 1,
      "byteOffset": 2255984,
      "componentType": 5126,
      "count": 19767,
      "max": [
        0.9973400235176086,
        0.9987999796867371
      ],
      "min": [
        0.001129999989643693,
        0.0018599999602884054
      ],
      "type": "VEC2"
    },
    {
      "bufferView": 0,
      "byteOffset": 1497996,
      "componentType": 5125,
      "count": 19767,
      "type": "SCALAR"
    },
    {
      "bufferView": 2,
      "byteOffset": 7242360,
      "componentType": 5126,
      "count": 65532,
      "max": [
        24.5615291595459,
        18.55278968811035,
        -10.451889991760254
      ],
      "min": [
        1.4349600076675415,
        -19.996599197387695,
        -20.910919189453125
      ],
      "type": "VEC3"
    },
    {
      "bufferView": 2,
      "byteOffset": 8028744,
      "componentType": 5126,
      "count": 65532,
      "max": [
        0.9998783469200134,
        0.9998762011528015,
        0.999985933303833
      ],
      "min": [
        -0.9999691843986511,
        -0.9999879598617554,
        -0.9993014335632324
      ],
      "type": "VEC3"
    },
    {
      "bufferView": 1,
      "byteOffset": 2414120,
      "componentType": 5126,
      "count": 65532,
      "max": [
        0.999019980430603,
        0.9989500045776367
      ],
      "min": [
        0.0010499999625608325,
        0.1330299973487854
      ],
      "type": "VEC2"
    },
    {
      "bufferView": 0,
      "byteOffset": 1577064,
      "componentType": 5125,
      "count": 65532,
      "type": "SCALAR"
    },
    {
      "bufferView": 2,
      "byteOffset": 8815128,
      "componentType": 5126,
      "count": 65532,
      "max": [
        24.554489135742188,
        18.55278968811035,
        -10.226119995117188
      ],
      "min": [
        1.43927001953125,
        -19.996599197387695,
        -20.703350067138672
      ],
      "type": "VEC3"
    },
    {
      "bufferView": 2,
      "byteOffset": 9601512,
      "componentType": 5126,
      "count": 65532,
      "max": [
        0.9998007416725159,
        0.9999529719352722,
        0.999996542930603
      ],
      "min": [
        -0.9999877214431763,
        -0.9999735951423645,
        -0.9998511672019958
      ],
      "type": "VEC3"
    },
    {
      "bufferView": 1,
      "byteOffset": 2938376,
      "componentType": 5126,
      "count": 65532,
      "max": [
        0.9989100098609924,
        0.9989500045776367
      ],
      "min": [
        0.0010499999625608325,
        0.13327999413013458
      ],
      "type": "VEC2"
    },
    {
      "bufferView": 0,
      "byteOffset": 1839192,
      "componentType": 5125,
      "count": 65532,
      "type": "SCALAR"
    },
    {
      "bufferView": 2,
      "byteOffset": 10387896,
      "componentType": 5126,
      "count": 62628,
      "max": [
        24.56325912475586,
        18.54829978942871,
        -10.226119995117188
      ],
      "min": [
        1.43927001953125,
        -19.991369247436523,
        -20.87148094177246
      ],
      "type": "VEC3"
    },
    {
      "bufferView": 2,
      "byteOffset": 11139432,
      "componentType": 5126,
      "count": 62628,
      "max": [
        0.9999804496765137,
        0.9999130964279175,
        0.9999406933784485
      ],
      "min": [
        -0.999945342540741,
        -0.9998779892921448,
        -0.995384156703949
      ],
      "type": "VEC3"
    },
    {
      "bufferView": 1,
      "byteOffset": 3462632,
      "componentType": 5126,
      "count": 62628,
      "max": [
        0.9987999796867371,
        0.9989399909973145
      ],
      "min": [
        0.001069999998435378,
        0.13323000073432922
      ],
      "type": "VEC2"
    },
    {
      "bufferView": 0,
      "byteOffset": 2101320,
      "componentType": 5125,
      "count": 62628,
      "type": "SCALAR"
    },
    {
      "bufferView": 2,
      "byteOffset": 11890968,
      "componentType": 5126,
      "count": 65534,
      "max": [
        1.5602099895477295,
        18.564910888671875,
        -11.455570220947266
      ],
      "min": [
        -21.564790725708008,
        -0.782509982585907,
        -23.243690490722656
      ],
      "type": "VEC3"
    },
    {
      "bufferView": 2,
      "byteOffset": 12677376,
      "componentType": 5126,
      "count": 65534,
      "max": [
        0.9998912811279297,
        0.9999970197677612,
        0.9999811053276062
      ],
      "min": [
        -0.9999790787696838,
        -0.9999830722808838,
        -0.9998883605003357
      ],
      "type": "VEC3"
    },
    {
      "bufferView": 1,
      "byteOffset": 3963656,
      "componentType": 5126,
      "count": 65534,
      "max": [
        0.9989699721336365,
        0.9989500045776367
      ],
      "min": [
        0.0010499999625608325,
        0.001180000021122396
      ],
      "type": "VEC2"
    },
    {
      "bufferView": 0,
      "byteOffset": 2351832,
      "componentType": 5125,
      "count": 165474,
      "type": "SCALAR"
    },
    {
      "bufferView": 2,
      "byteOffset": 13463784,
      "componentType": 5126,
      "count": 6641,
      "max": [
        1.5508500337600708,
        18.543149948120117,
        -13.252949714660645
      ],
      "min": [
        -21.558040618896484,
        -0.6464400291442871,
        -23.243690490722656
      ],
      "type": "VEC3"
    },
    {
      "bufferView": 2,
      "byteOffset": 13543476,
      "componentType": 5126,
      "count": 6641,
      "max": [
        0.9991840124130249,
        0.9992859363555908,
        0.9999538064002991
      ],
      "min": [
        -0.999695360660553,
        -0.9987422823905945,
        -0.9985776543617249
      ],
      "type": "VEC3"
    },
    {
      "bufferView": 1,
      "byteOffset": 4487928,
      "componentType": 5126,
      "count": 6641,
      "max": [
        0.9988399744033813,
        0.9989100098609924
      ],
      "min": [
        0.0010400000028312206,
        0.0017600000137463212
      ],
      "type": "VEC2"
    },
    {
      "bufferView": 0,
      "byteOffset": 3013728,
      "componentType": 5125,
      "count": 8547,
      "type": "SCALAR"
    },
    {
      "bufferView": 2,
      "byteOffset": 13623168,
      "componentType": 5126,
      "count": 35619,
      "max": [
        1.5563499927520752,
        18.558269500732422,
        -11.481710433959961
      ],
      "min": [
        -21.556020736694336,
        -0.7791500091552734,
        -22.17828941345215
      ],
      "type": "VEC3"
    },
    {
      "bufferView": 2,
      "byteOffset": 14050596,
      "componentType": 5126,
      "count": 35619,
      "max": [
        0.9998803734779358,
        0.9997995495796204,
        0.9999070167541504
      ],
      "min": [
        -0.9999392628669739,
        -0.9999803304672241,
        -0.9998535513877869
      ],
      "type": "VEC3"
    },
    {
      "bufferView": 1,
      "byteOffset": 4541056,
      "componentType": 5126,
      "count": 35619,
      "max": [
        0.9977700114250183,
        0.9979100227355957
      ],
      "min": [
        0.002090000081807375,
        0.005909999832510948
      ],
      "type": "VEC2"
    },
    {
      "bufferView": 0,
      "byteOffset": 3047916,
      "componentType": 5125,
      "count": 35619,
      "type": "SCALAR"
    }
  ],
  "asset": {
    "extras": {
      "author": "Epic_Tree_Store (https://sketchfab.com/johngreenstone)",
      "license": "CC-BY-4.0 (http://creativecommons.org/licenses/by/4.0/)",
      "source": "https://sketchfab.com/3d-models/grass-e58b89ba5b5047338210dbcf730f7b05",
      "title": "Grass"
    },
    "generator": "Sketchfab-12.65.0",
    "version": "2.0"
  },
  "bufferViews": [
    {
      "buffer": 0,
      "byteLength": 3190392,
      "name": "floatBufferViews",
      "target": 34963
    },
    {
      "buffer": 0,
      "byteLength": 4826008,
      "byteOffset": 3190392,
      "byteStride": 8,
      "name": "floatBufferViews",
      "target": 34962
    },
    {
      "buffer": 0,
      "byteLength": 14478024,
      "byteOffset": 8016400,
      "byteStride": 12,
      "name": "floatBufferViews",
      "target": 34962
    }
  ],
  "buffers": [
    {
      "byteLength": 22494424,
      "uri": "scene.bin"
    }
  ],
  "extensionsUsed": [
    "KHR_materials_unlit"
  ],
  "images": [
    {
      "uri": "textures/Tile_2_0_baseColor.jpeg"
    },
    {
      "uri": "textures/Tile_2_1_baseColor.jpeg"
    },
    {
      "uri": "textures/Tile_1_0_baseColor.jpeg"
    },
    {
      "uri": "textures/Tile_1_1_baseColor.jpeg"
    },
    {
      "uri": "textures/Tile_3_0_baseColor.jpeg"
    },
    {
      "uri": "textures/Tile_3_1_baseColor.jpeg"
    }
  ],
  "materials": [
    {
      "doubleSided": true,
      "extensions": {
        "KHR_materials_unlit": {}
      },
      "name": "Tile_2_0",
      "pbrMetallicRoughness": {
        "baseColorTexture": {
          "index": 0
        },
        "metallicFactor": 0.0
      }
    },
    {
      "doubleSided": true,
      "extensions": {
        "KHR_materials_unlit": {}
      },
      "name": "Tile_2_1",
      "pbrMetallicRoughness": {
        "baseColorTexture": {
          "index": 1
        },
        "metallicFactor": 0.0
      }
    },
    {
      "doubleSided": true,
      "extensions": {
        "KHR_materials_unlit": {}
      },
      "name": "Tile_1_0",
      "pbrMetallicRoughness": {
        "baseColorTexture": {
          "index": 2
        },
        "metallicFactor": 0.0
      }
    },
    {
      "doubleSided": true,
      "extensions": {
        "KHR_materials_unlit": {}
      },
      "name": "Tile_1_1",
      "pbrMetallicRoughness": {
        "baseColorTexture": {
          "index": 3
        },
        "metallicFactor": 0.0
      }
    },
    {
      "doubleSided": true,
      "extensions": {
        "KHR_materials_unlit": {}
      },
      "name": "Tile_3_0",
      "pbrMetallicRoughness": {
        "baseColorTexture": {
          "index": 4
        },
        "metallicFactor": 0.0
      }
    },
    {
      "doubleSided": true,
      "extensions": {
        "KHR_materials_unlit": {}
      },
      "name": "Tile_3_1",
      "pbrMetallicRoughness": {
        "baseColorTexture": {
          "index": 5
        },
        "metallicFactor": 0.0
      }
    }
  ],
  "meshes": [
    {
      "name": "Tile_3_0",
      "primitives": [
        {
          "attributes": {
            "NORMAL": 1,
            "POSITION": 0,
            "TEXCOORD_0": 2
          },
          "indices": 3,
          "material": 4,
          "mode": 4
        }
      ]
    },
    {
      "name": "Tile_3_0",
      "primitives": [
        {
          "attributes": {
            "NORMAL": 5,
            "POSITION": 4,
            "TEXCOORD_0": 6
          },
          "indices": 7,
          "material": 4,
          "mode": 4
        }
      ]
    },
    {
      "name": "Tile_3_1",
      "primitives": [
        {
          "attributes": {
            "NORMAL": 9,
            "POSITION": 8,
            "TEXCOORD_0": 10
          },
          "indices": 11,
          "material": 5,
          "mode": 4
        }
      ]
    },
    {
      "name": "Tile_1_0",
      "primitives": [
        {
          "attributes": {
            "NORMAL": 13,
            "POSITION": 12,
            "TEXCOORD_0": 14
          },
          "indices": 15,
          "material": 2,
          "mode": 4
        }
      ]
    },
    {
      "name": "Tile_1_0",
      "primitives": [
        {
          "attributes": {
            "NORMAL": 17,
            "POSITION": 16,
            "TEXCOORD_0": 18
          },
          "indices": 19,
          "material": 2,
          "mode": 4
        }
      ]
    },
    {
      "name": "Tile_1_0",
      "primitives": [
        {
          "attributes": {
            "NORMAL": 21,
            "POSITION": 20,
            "TEXCOORD_0": 22
          },
          "indices": 23,
          "material": 2,
          "mode": 4
        }
      ]
    },
    {
      "name": "Tile_1_0",
      "primitives": [
        {
          "attributes": {
            "NORMAL": 25,
            "POSITION": 24,
            "TEXCOORD_0": 26
          },
          "indices": 27,
          "material": 2,
          "mode": 4
        }
      ]
    },
    {
      "name": "Tile_1_1",
      "primitives": [
        {
          "attributes": {
            "NORMAL": 29,
            "POSITION": 28,
            "TEXCOORD_0": 30
          },
          "indices": 31,
          "material": 3,
          "mode": 4
        }
      ]
    },
    {
      "name": "Tile_1_1",
      "primitives": [
        {
          "attributes": {
            "NORMAL": 33,
            "POSITION": 32,
            "TEXCOORD_0": 34
          },
          "indices": 35,
          "material": 3,
          "mode": 4
        }
      ]
    },
    {
      "name": "Tile_1_1",
      "primitives": [
        {
          "attributes": {
            "NORMAL": 37,
            "POSITION": 36,
            "TEXCOORD_0": 38
          },
          "indices": 39,
          "material": 3,
          "mode": 4
        }
      ]
    },
    {
      "name": "Tile_2_0",
      "primitives": [
        {
          "attributes": {
            "NORMAL": 41,
            "POSITION": 40,
            "TEXCOORD_0": 42
          },
          "indices": 43,
          "material": 0,
          "mode": 4
        }
      ]
    },
    {
      "name": "Tile_2_0",
      "primitives": [
        {
          "attributes": {
            "NORMAL": 45,
            "POSITION": 44,
            "TEXCOORD_0": 46
          },
          "indices": 47,
          "material": 0,
          "mode": 4
        }
      ]
    },
    {
      "name": "Tile_2_1",
      "primitives": [
        {
          "attributes": {
            "NORMAL": 49,
            "POSITION": 48,
            "TEXCOORD_0": 50
          },
          "indices": 51,
          "material": 1,
          "mode": 4
        }
      ]
    }
  ],
  "nodes": [
    {
      "children": [
        1
      ],
      "matrix": [
        0.992355227470398,
        -0.12339871376752853,
        -0.0019705968443304574,
        0.0,
        -0.1226290836930275,
        -0.9841160774230957,
        -0.12836553156375907,
        0.0,
        0.013900846242904663,
        0.12762586772441886,
        -0.991724967956543,
        0.0,
        2.04559588432312,
        15.812425613403324,
        -15.087803840637203,
        1.0
      ],
      "name": "Sketchfab_model"
    },
    {
      "children": [
        2,
        6,
        14
      ],
      "name": "Root"
    },
    {
      "children": [
        3,
        4,
        5
      ],
      "matrix": [
        1.0,
        0.0,
        0.0,
        0.0,
        0.0,
        -0.0,
        1.0,
        0.0,
        0.0,
        -1.0,
        -0.0,
        0.0,
        0.0,
        0.0,
        0.0,
        1.0
      ],
      "name": "Tile_3"
    },
    {
      "mesh": 0,
      "name": "Tile_3_0"
    },
    {
      "mesh": 1,
      "name": "Tile_3_0"
    },
    {
      "mesh": 2,
      "name": "Tile_3_1"
    },
    {
      "children": [
        7,
        8,
        9,
        10,
        11,
        12,
        13
      ],
      "matrix": [
        1.0,
        0.0,
        0.0,
        0.0,
        0.0,
        -0.0,
        1.0,
        0.0,
        0.0,
        -1.0,
        -0.0,
        0.0,
        0.0,
        0.0,
        0.0,
        1.0
      ],
      "name": "Tile_1"
    },
    {
      "mesh": 3,
      "name": "Tile_1_0"
    },
    {
      "mesh": 4,
      "name": "Tile_1_0"
    },
    {
      "mesh": 5,
      "name": "Tile_1_0"
    },
    {
      "mesh": 6,
      "name": "Tile_1_0"
    },
    {
      "mesh": 7,
      "name": "Tile_1_1"
    },
    {
      "mesh": 8,
      "name": "Tile_1_1"
    },
    {
      "mesh": 9,
      "name": "Tile_1_1"
    },
    {
      "children": [
        15,
        16,
        17
      ],
      "matrix": [
        1.0,
        0.0,
        0.0,
        0.0,
        0.0,
        -0.0,
        1.0,
        0.0,
        0.0,
        -1.0,
        -0.0,
        0.0,
        0.0,
        0.0,
        0.0,
        1.0
      ],
      "name": "Tile_2"
    },
    {
      "mesh": 10,
      "name": "Tile_2_0"
    },
    {
      "mesh": 11,
      "name": "Tile_2_0"
    },
    {
      "mesh": 12,
      "name": "Tile_2_1"
    }
  ],
  "samplers": [
    {
      "magFilter": 9729,
      "minFilter": 9987,
      "wrapS": 10497,
      "wrapT": 10497
    }
  ],
  "scene": 0,
  "scenes": [
    {
      "name": "Sketchfab_Scene",
      "nodes": [
        0
      ]
    }
  ],
  "textures": [
    {
      "sampler": 0,
      "source": 0
    },
    {
      "sampler": 0,
      "source": 1
    },
    {
      "sampler": 0,
      "source": 2
    },
    {
      "sampler": 0,
      "source": 3
    },
    {
      "sampler": 0,
      "source": 4
    },
    {
      "sampler": 0,
      "source": 5
    }
  ]
}
