{
  "accessors": [
    {
      "bufferView": 2,
      "componentType": 5126,
      "count": 39335,
      "max": [
        290.4253845214844,
        110.10169982910156,
        352.53570556640625
      ],
      "min": [
        -290.4253845214844,
        -110.10169982910156,
        -352.53570556640625
      ],
      "type": "VEC3"
    },
    {
      "bufferView": 2,
      "byteOffset": 472020,
      "componentType": 5126,
      "count": 39335,
      "max": [
        1.0,
        1.0,
        1.0
      ],
      "min": [
        -1.0,
        -1.0,
        -1.0
      ],
      "type": "VEC3"
    },
    {
      "bufferView": 1,
      "componentType": 5126,
      "count": 39335,
      "max": [
        0.9972813129425049,
        0.9926053285598755
      ],
      "min": [
        0.002961542923003435,
        0.0030294659081846476
      ],
      "type": "VEC2"
    },
    {
      "bufferView": 1,
      "byteOffset": 314680,
      "componentType": 5126,
      "count": 39335,
      "max": [
        0.9972813129425049,
        0.9926053285598755
      ],
      "min": [
        0.002961542923003435,
        0.0030294659081846476
      ],
      "type": "VEC2"
    },
    {
      "bufferView": 1,
      "byteOffset": 629360,
      "componentType": 5126,
      "count": 39335,
      "max": [
        0.9972813129425049,
        0.9926053285598755
      ],
      "min": [
        0.002961542923003435,
        0.0030294659081846476
      ],
      "type": "VEC2"
    },
    {
      "bufferView": 1,
      "byteOffset": 944040,
      "componentType": 5126,
      "count": 39335,
      "max": [
        0.9972813129425049,
        0.9926053285598755
      ],
      "min": [
        0.002961542923003435,
        0.0030294659081846476
      ],
      "type": "VEC2"
    },
    {
      "bufferView": 1,
      "byteOffset": 1258720,
      "componentType": 5126,
      "count": 39335,
      "max": [
        0.9972813129425049,
        0.9926053285598755
      ],
      "min": [
        0.002961542923003435,
        0.0030294659081846476
      ],
      "type": "VEC2"
    },
    {
      "bufferView": 1,
      "byteOffset": 1573400,
      "componentType": 5126,
      "count": 39335,
      "max": [
        0.9972813129425049,
        0.9926053285598755
      ],
      "min": [
        0.002961542923003435,
        0.0030294659081846476
      ],
      "type": "VEC2"
    },
    {
      "bufferView": 1,
      "byteOffset": 1888080,
      "componentType": 5126,
      "count": 39335,
      "max": [
        0.9972813129425049,
        0.9926053285598755
      ],
      "min": [
        0.002961542923003435,
        0.0030294659081846476
      ],
      "type": "VEC2"
    },
    {
      "bufferView": 1,
      "byteOffset": 2202760,
      "componentType": 5126,
      "count": 39335,
      "max": [
        0.9972813129425049,
        0.9926053285598755
      ],
      "min": [
        0.002961542923003435,
        0.0030294659081846476
      ],
      "type": "VEC2"
    },
    {
      "bufferView": 0,
      "componentType": 5125,
      "count": 87666,
      "type": "SCALAR"
    },
    {
      "bufferView": 2,
      "byteOffset": 944040,
      "componentType": 5126,
      "count": 722,
      "max": [
        41.57329177856445,
        86.29016876220703,
        300.7188415527344
      ],
      "min": [
        -41.46009826660156,
        -48.883541107177734,
        -335.0432434082031
      ],
      "type": "VEC3"
    },
    {
      "bufferView": 2,
      "byteOffset": 952704,
      "componentType": 5126,
      "count": 722,
      "max": [
        1.0,
        0.6010863780975342,
        1.0
      ],
      "min": [
        -1.0,
        -0.6210130453109741,
        -0.9991219639778137
      ],
      "type": "VEC3"
    },
    {
      "bufferView": 1,
      "byteOffset": 2517440,
      "componentType": 5126,
      "count": 722,
      "max": [
        3.753669023513794,
        1.9051599502563477
      ],
      "min": [
        -2.5834219455718994,
        -2.2793309688568115
      ],
      "type": "VEC2"
    },
    {
      "bufferView": 1,
      "byteOffset": 2523216,
      "componentType": 5126,
      "count": 722,
      "max": [
        3.753669023513794,
        1.9051599502563477
      ],
      "min": [
        -2.5834219455718994,
        -2.2793309688568115
      ],
      "type": "VEC2"
    },
    {
      "bufferView": 1,
      "byteOffset": 2528992,
      "componentType": 5126,
      "count": 722,
      "max": [
        3.753669023513794,
        1.9051599502563477
      ],
      "min": [
        -2.5834219455718994,
        -2.2793309688568115
      ],
      "type": "VEC2"
    },
    {
      "bufferView": 1,
      "byteOffset": 2534768,
      "componentType": 5126,
      "count": 722,
      "max": [
        3.753669023513794,
        1.9051599502563477
      ],
      "min": [
        -2.5834219455718994,
        -2.2793309688568115
      ],
      "type": "VEC2"
    },
    {
      "bufferView": 1,
      "byteOffset": 2540544,
      "componentType": 5126,
      "count": 722,
      "max": [
        3.753669023513794,
        1.9051599502563477
      ],
      "min": [
        -2.5834219455718994,
        -2.2793309688568115
      ],
      "type": "VEC2"
    },
    {
      "bufferView": 1,
      "byteOffset": 2546320,
      "componentType": 5126,
      "count": 722,
      "max": [
        3.753669023513794,
        1.9051599502563477
      ],
      "min": [
        -2.5834219455718994,
        -2.2793309688568115
      ],
      "type": "VEC2"
    },
    {
      "bufferView": 1,
      "byteOffset": 2552096,
      "componentType": 5126,
      "count": 722,
      "max": [
        3.753669023513794,
        1.9051599502563477
      ],
      "min": [
        -2.5834219455718994,
        -2.2793309688568115
      ],
      "type": "VEC2"
    },
    {
      "bufferView": 0,
      "byteOffset": 350664,
      "componentType": 5125,
      "count": 1356,
      "type": "SCALAR"
    }
  ],
  "asset": {
    "extras": {
      "author": "Wholock (https://sketchfab.com/wholock)",
      "license": "CC-BY-4.0 (http://creativecommons.org/licenses/by/4.0/)",
      "source": "https://sketchfab.com/3d-models/star-trek-dderidex-class-warbird-4cd1e185eaa645b2ad3eeae31d0c5d0d",
      "title": "Star Trek - D'Deridex Class Warbird"
    },
    "generator": "Sketchfab-12.68.0",
    "version": "2.0"
  },
  "bufferViews": [
    {
      "buffer": 0,
      "byteLength": 356088,
      "name": "floatBufferViews",
      "target": 34963
    },
    {
      "buffer": 0,
      "byteLength": 2557872,
      "byteOffset": 356088,
      "byteStride": 8,
      "name": "floatBufferViews",
      "target": 34962
    },
    {
      "buffer": 0,
      "byteLength": 961368,
      "byteOffset": 2913960,
      "byteStride": 12,
      "name": "floatBufferViews",
      "target": 34962
    }
  ],
  "buffers": [
    {
      "byteLength": 3875328,
      "uri": "scene.bin"
    }
  ],
  "images": [
    {
      "uri": "textures/Dderidex_diffuse_1K_baseColor.png"
    },
    {
      "uri": "textures/Dderidex_diffuse_1K_metallicRoughness.png"
    },
    {
      "uri": "textures/Dderidex_diffuse_1K_emissive.png"
    },
    {
      "uri": "textures/Dderidex_windows_1_baseColor.png"
    },
    {
      "uri": "textures/Dderidex_windows_1_emissive.png"
    }
  ],
  "materials": [
    {
      "doubleSided": true,
      "emissiveFactor": [
        1.0,
        1.0,
        1.0
      ],
      "emissiveTexture": {
        "index": 2
      },
      "name": "Dderidex_diffuse_1K",
      "pbrMetallicRoughness": {
        "baseColorTexture": {
          "index": 0
        },
        "metallicFactor": 0.0,
        "metallicRoughnessTexture": {
          "index": 1
        }
      }
    },
    {
      "alphaMode": "BLEND",
      "doubleSided": true,
      "emissiveFactor": [
        1.0,
        1.0,
        1.0
      ],
      "emissiveTexture": {
        "index": 4
      },
      "name": "Dderidex_windows_1",
      "pbrMetallicRoughness": {
        "baseColorTexture": {
          "index": 3
        },
        "metallicFactor": 0.0
      }
    }
  ],
  "meshes": [
    {
      "name": "DDeridex_Class_Warbird_Dderidex_diffuse_1K_0",
      "primitives": [
        {
          "attributes": {
            "NORMAL": 1,
            "POSITION": 0,
            "TEXCOORD_0": 2,
            "TEXCOORD_1": 3,
            "TEXCOORD_2": 4,
            "TEXCOORD_3": 5,
            "TEXCOORD_4": 6,
            "TEXCOORD_5": 7,
            "TEXCOORD_6": 8,
            "TEXCOORD_7": 9
          },
          "indices": 10,
          "material": 0,
          "mode": 4
        }
      ]
    },
    {
      "name": "DDeridex_Class_Warbird_Dderidex_windows_1_0",
      "primitives": [
        {
          "attributes": {
            "NORMAL": 12,
            "POSITION": 11,
            "TEXCOORD_0": 13,
            "TEXCOORD_1": 14,
            "TEXCOORD_2": 15,
            "TEXCOORD_3": 16,
            "TEXCOORD_4": 17,
            "TEXCOORD_5": 18,
            "TEXCOORD_6": 19
          },
          "indices": 20,
          "material": 1,
          "mode": 4
        }
      ]
    }
  ],
  "nodes": [
    {
      "children": [
        1
      ],
      "matrix": [
        -1.0,
        -6.290011496532519e-32,
        2.832769343193999e-16,
        0.0,
        2.832769343193999e-16,
        -2.220446049250313e-16,
        1.0,
        0.0,
        0.0,
        1.0,
        2.220446049250313e-16,
        0.0,
        0.00079345703125,
        3.3881317890172014e-19,
        -0.00152587890625,
        1.0
      ],
      "name": "Sketchfab_model"
    },
    {
      "children": [
        2
      ],
      "matrix": [
        1.0,
        0.0,
        0.0,
        0.0,
        0.0,
        0.0,
        1.0,
        0.0,
        0.0,
        -1.0,
        0.0,
        0.0,
        0.0,
        0.0,
        0.0,
        1.0
      ],
      "name": "40f7f3231c9749bea323e6e26f13fafb.fbx"
    },
    {
      "children": [
        3,
        6,
        9
      ],
      "name": "RootNode"
    },
    {
      "children": [
        4,
        5
      ],
      "name": "DDeridex_Class_Warbird"
    },
    {
      "mesh": 0,
      "name": "DDeridex_Class_Warbird_Dderidex_diffuse_1K_0"
    },
    {
      "mesh": 1,
      "name": "DDeridex_Class_Warbird_Dderidex_windows_1_0"
    },
    {
      "children": [
        7
      ],
      "matrix": [
        0.7071067811865476,
        0.0,
        0.7071067811865475,
        0.0,
        -0.5792279653395692,
        0.5735764363510459,
        0.5792279653395694,
        0.0,
        -0.4055797876726388,
        -0.819152044288992,
        0.4055797876726388,
        0.0,
        -200.0,
        200.0,
        200.0,
        1.0
      ],
      "name": "Light"
    },
    {
      "children": [
        8
      ],
      "matrix": [
        1.0,
        0.0,
        0.0,
        0.0,
        0.0,
        2.220446049250313e-16,
        1.0,
        0.0,
        0.0,
        -1.0,
        2.220446049250313e-16,
        0.0,
        0.0,
        0.0,
        0.0,
        1.0
      ],
      "name": "Object_7"
    },
    {
      "name": "Object_8"
    },
    {
      "children": [
        10
      ],
      "matrix": [
        2.220446049250313e-16,
        0.0,
        -1.0,
        0.0,
        0.0,
        1.0,
        0.0,
        0.0,
        1.0,
        0.0,
        2.220446049250313e-16,
        0.0,
        0.0,
        0.0,
        1467.7691650390625,
        1.0
      ],
      "name": "Camera"
    },
    {
      "name": "Object_10"
    }
  ],
  "samplers": [
    {
      "magFilter": 9729,
      "minFilter": 9987,
      "wrapS": 10497,
      "wrapT": 10497
    }
  ],
  "scene": 0,
  "scenes": [
    {
      "name": "Sketchfab_Scene",
      "nodes": [
        0
      ]
    }
  ],
  "textures": [
    {
      "sampler": 0,
      "source": 0
    },
    {
      "sampler": 0,
      "source": 1
    },
    {
      "sampler": 0,
      "source": 2
    },
    {
      "sampler": 0,
      "source": 3
    },
    {
      "sampler": 0,
      "source": 4
    }
  ]
}
