{
  "accessors": [
    {
      "bufferView": 2,
      "componentType": 5126,
      "count": 562,
      "max": [
        0.28957098722457886,
        2.374197006225586,
        2.3408560752868652
      ],
      "min": [
        -3.096698045730591,
        0.4549820125102997,
        -0.6350200176239014
      ],
      "type": "VEC3"
    },
    {
      "bufferView": 2,
      "byteOffset": 6744,
      "componentType": 5126,
      "count": 562,
      "max": [
        1.0,
        1.0,
        1.0
      ],
      "min": [
        -0.9562965035438538,
        -1.0,
        -1.0
      ],
      "type": "VEC3"
    },
    {
      "bufferView": 1,
      "componentType": 5126,
      "count": 562,
      "max": [
        0.9950879812240601,
        0.9989029765129089
      ],
      "min": [
        0.0010969999711960554,
        0.0010969999711960554
      ],
      "type": "VEC2"
    },
    {
      "bufferView": 0,
      "componentType": 5125,
      "count": 1536,
      "type": "SCALAR"
    },
    {
      "bufferView": 2,
      "byteOffset": 13488,
      "componentType": 5126,
      "count": 2366,
      "max": [
        0.7833700180053711,
        5.356913089752197,
        8.399784088134766
      ],
      "min": [
        -6.7526750564575195,
        -2.189284086227417,
        -0.09359099715948105
      ],
      "type": "VEC3"
    },
    {
      "bufferView": 2,
      "byteOffset": 41880,
      "componentType": 5126,
      "count": 2366,
      "max": [
        0.999966025352478,
        0.9999648332595825,
        0.9996265769004822
      ],
      "min": [
        -0.9989089369773865,
        -0.9998392462730408,
        -0.9987556338310242
      ],
      "type": "VEC3"
    },
    {
      "bufferView": 1,
      "byteOffset": 4496,
      "componentType": 5126,
      "count": 2366,
      "max": [
        0.9990419745445251,
        0.9820500016212463
      ],
      "min": [
        0.0,
        0.0
      ],
      "type": "VEC2"
    },
    {
      "bufferView": 0,
      "byteOffset": 6144,
      "componentType": 5125,
      "count": 10434,
      "type": "SCALAR"
    },
    {
      "bufferView": 2,
      "byteOffset": 70272,
      "componentType": 5126,
      "count": 16,
      "max": [
        0.017288999632000923,
        0.49252599477767944,
        0.8121020197868347
      ],
      "min": [
        -0.09483999758958817,
        0.3803960084915161,
        0.6642060279846191
      ],
      "type": "VEC3"
    },
    {
      "bufferView": 2,
      "byteOffset": 70464,
      "componentType": 5126,
      "count": 16,
      "max": [
        0.9972283244132996,
        0.9972283244132996,
        0.0744021087884903
      ],
      "min": [
        -0.9972283244132996,
        -0.9972283244132996,
        0.0744021087884903
      ],
      "type": "VEC3"
    },
    {
      "bufferView": 1,
      "byteOffset": 23424,
      "componentType": 5126,
      "count": 16,
      "max": [
        0.8700829744338989,
        0.9965689778327942
      ],
      "min": [
        0.8422960042953491,
        0.8906580209732056
      ],
      "type": "VEC2"
    },
    {
      "bufferView": 0,
      "byteOffset": 47880,
      "componentType": 5125,
      "count": 24,
      "type": "SCALAR"
    },
    {
      "bufferView": 2,
      "byteOffset": 70656,
      "componentType": 5126,
      "count": 2131,
      "max": [
        3.5412380695343018,
        6.063787937164307,
        1.5072250366210938
      ],
      "min": [
        -7.6227312088012695,
        -3.504038095474243,
        -0.8366900086402893
      ],
      "type": "VEC3"
    },
    {
      "bufferView": 2,
      "byteOffset": 96228,
      "componentType": 5126,
      "count": 2131,
      "max": [
        1.0,
        1.0,
        1.0
      ],
      "min": [
        -1.0,
        -1.0,
        -1.0
      ],
      "type": "VEC3"
    },
    {
      "bufferView": 1,
      "byteOffset": 23552,
      "componentType": 5126,
      "count": 2131,
      "max": [
        0.9989569783210754,
        0.9998149871826172
      ],
      "min": [
        0.0001849999971454963,
        0.0001849999971454963
      ],
      "type": "VEC2"
    },
    {
      "bufferView": 0,
      "byteOffset": 47976,
      "componentType": 5125,
      "count": 9771,
      "type": "SCALAR"
    },
    {
      "bufferView": 2,
      "byteOffset": 121800,
      "componentType": 5126,
      "count": 1674,
      "max": [
        3.4055769443511963,
        6.191051959991455,
        8.815516471862793
      ],
      "min": [
        -7.54034423828125,
        -3.567199945449829,
        0.011257999576628208
      ],
      "type": "VEC3"
    },
    {
      "bufferView": 2,
      "byteOffset": 141888,
      "componentType": 5126,
      "count": 1674,
      "max": [
        0.9991510510444641,
        0.9999908208847046,
        1.0
      ],
      "min": [
        -0.9992548823356628,
        -0.9997645020484924,
        -0.9983912706375122
      ],
      "type": "VEC3"
    },
    {
      "bufferView": 1,
      "byteOffset": 40600,
      "componentType": 5126,
      "count": 1674,
      "max": [
        1.0,
        1.0
      ],
      "min": [
        0.0,
        0.0
      ],
      "type": "VEC2"
    },
    {
      "bufferView": 0,
      "byteOffset": 87060,
      "componentType": 5125,
      "count": 4104,
      "type": "SCALAR"
    }
  ],
  "asset": {
    "extras": {
      "author": "alzarac (https://sketchfab.com/alzarac)",
      "license": "CC-BY-4.0 (http://creativecommons.org/licenses/by/4.0/)",
      "source": "https://sketchfab.com/3d-models/cave-gate-stylized-0f29271be80f4c7593964afabd4e5fbc",
      "title": "Cave gate Stylized"
    },
    "generator": "Sketchfab-12.68.0",
    "version": "2.0"
  },
  "bufferViews": [
    {
      "buffer": 0,
      "byteLength": 103476,
      "name": "floatBufferViews",
      "target": 34963
    },
    {
      "buffer": 0,
      "byteLength": 53992,
      "byteOffset": 103476,
      "byteStride": 8,
      "name": "floatBufferViews",
      "target": 34962
    },
    {
      "buffer": 0,
      "byteLength": 161976,
      "byteOffset": 157468,
      "byteStride": 12,
      "name": "floatBufferViews",
      "target": 34962
    }
  ],
  "buffers": [
    {
      "byteLength": 319444,
      "uri": "scene.bin"
    }
  ],
  "extensionsUsed": [
    "KHR_materials_unlit"
  ],
  "images": [
    {
      "uri": "textures/Cave_baseColor.png"
    },
    {
      "uri": "textures/Entrance_baseColor.png"
    },
    {
      "uri": "textures/Floor_baseColor.png"
    },
    {
      "uri": "textures/Grass_baseColor.png"
    }
  ],
  "materials": [
    {
      "doubleSided": true,
      "extensions": {
        "KHR_materials_unlit": {}
      },
      "name": "Cave",
      "pbrMetallicRoughness": {
        "baseColorTexture": {
          "index": 0
        },
        "metallicFactor": 0.0
      }
    },
    {
      "doubleSided": true,
      "extensions": {
        "KHR_materials_unlit": {}
      },
      "name": "Entrance",
      "pbrMetallicRoughness": {
        "baseColorTexture": {
          "index": 1
        },
        "metallicFactor": 0.0
      }
    },
    {
      "doubleSided": true,
      "extensions": {
        "KHR_materials_unlit": {}
      },
      "name": "Floor",
      "pbrMetallicRoughness": {
        "baseColorTexture": {
          "index": 2
        },
        "metallicFactor": 0.0
      }
    },
    {
      "alphaMode": "BLEND",
      "doubleSided": true,
      "extensions": {
        "KHR_materials_unlit": {}
      },
      "name": "Grass",
      "pbrMetallicRoughness": {
        "baseColorTexture": {
          "index": 3
        },
        "metallicFactor": 0.0
      }
    },
    {
      "doubleSided": true,
      "extensions": {
        "KHR_materials_unlit": {}
      },
      "name": "Lamp_Glow",
      "pbrMetallicRoughness": {
        "metallicFactor": 0.0
      }
    }
  ],
  "meshes": [
    {
      "name": "Object_0",
      "primitives": [
        {
          "attributes": {
            "NORMAL": 1,
            "POSITION": 0,
            "TEXCOORD_0": 2
          },
          "indices": 3,
          "material": 1,
          "mode": 4
        }
      ]
    },
    {
      "name": "Object_1",
      "primitives": [
        {
          "attributes": {
            "NORMAL": 5,
            "POSITION": 4,
            "TEXCOORD_0": 6
          },
          "indices": 7,
          "material": 0,
          "mode": 4
        }
      ]
    },
    {
      "name": "Object_2",
      "primitives": [
        {
          "attributes": {
            "NORMAL": 9,
            "POSITION": 8,
            "TEXCOORD_0": 10
          },
          "indices": 11,
          "material": 4,
          "mode": 4
        }
      ]
    },
    {
      "name": "Object_3",
      "primitives": [
        {
          "attributes": {
            "NORMAL": 13,
            "POSITION": 12,
            "TEXCOORD_0": 14
          },
          "indices": 15,
          "material": 2,
          "mode": 4
        }
      ]
    },
    {
      "name": "Object_4",
      "primitives": [
        {
          "attributes": {
            "NORMAL": 17,
            "POSITION": 16,
            "TEXCOORD_0": 18
          },
          "indices": 19,
          "material": 3,
          "mode": 4
        }
      ]
    }
  ],
  "nodes": [
    {
      "children": [
        1
      ],
      "matrix": [
        1.1444414854049683,
        0.0,
        0.0,
        0.0,
        0.0,
        2.5411705748656216e-16,
        -1.1444414854049683,
        0.0,
        0.0,
        1.1444414854049683,
        2.5411705748656216e-16,
        0.0,
        0.0,
        0.0,
        0.0,
        1.0
      ],
      "name": "Sketchfab_model"
    },
    {
      "children": [
        2,
        3,
        4,
        5,
        6
      ],
      "name": "Test_Baked.obj.cleaner.materialmerger.gles"
    },
    {
      "mesh": 0,
      "name": "Object_2"
    },
    {
      "mesh": 1,
      "name": "Object_3"
    },
    {
      "mesh": 2,
      "name": "Object_4"
    },
    {
      "mesh": 3,
      "name": "Object_5"
    },
    {
      "mesh": 4,
      "name": "Object_6"
    }
  ],
  "samplers": [
    {
      "magFilter": 9729,
      "minFilter": 9987,
      "wrapS": 10497,
      "wrapT": 10497
    }
  ],
  "scene": 0,
  "scenes": [
    {
      "name": "Sketchfab_Scene",
      "nodes": [
        0
      ]
    }
  ],
  "textures": [
    {
      "sampler": 0,
      "source": 0
    },
    {
      "sampler": 0,
      "source": 1
    },
    {
      "sampler": 0,
      "source": 2
    },
    {
      "sampler": 0,
      "source": 3
    }
  ]
}
