{
  "accessors": [
    {
      "bufferView": 2,
      "componentType": 5126,
      "count": 30597,
      "max": [
        181.48794555664063,
        48.16151428222656,
        233.37640380859375
      ],
      "min": [
        -181.48794555664063,
        -45.67637634277344,
        -237.56390380859375
      ],
      "type": "VEC3"
    },
    {
      "bufferView": 2,
      "byteOffset": 367164,
      "componentType": 5126,
      "count": 30597,
      "max": [
        1.0,
        1.0,
        1.0
      ],
      "min": [
        -1.0,
        -1.0,
        -1.0
      ],
      "type": "VEC3"
    },
    {
      "bufferView": 1,
      "componentType": 5126,
      "count": 30597,
      "max": [
        0.990436315536499,
        0.9897574186325073
      ],
      "min": [
        0.0027906179893761873,
        0.007235168945044279
      ],
      "type": "VEC2"
    },
    {
      "bufferView": 1,
      "byteOffset": 244776,
      "componentType": 5126,
      "count": 30597,
      "max": [
        0.990436315536499,
        0.9897574186325073
      ],
      "min": [
        0.0027906179893761873,
        0.007235168945044279
      ],
      "type": "VEC2"
    },
    {
      "bufferView": 1,
      "byteOffset": 489552,
      "componentType": 5126,
      "count": 30597,
      "max": [
        0.990436315536499,
        0.9897574186325073
      ],
      "min": [
        0.0027906179893761873,
        0.007235168945044279
      ],
      "type": "VEC2"
    },
    {
      "bufferView": 1,
      "byteOffset": 734328,
      "componentType": 5126,
      "count": 30597,
      "max": [
        0.990436315536499,
        0.9897574186325073
      ],
      "min": [
        0.0027906179893761873,
        0.007235168945044279
      ],
      "type": "VEC2"
    },
    {
      "bufferView": 1,
      "byteOffset": 979104,
      "componentType": 5126,
      "count": 30597,
      "max": [
        0.990436315536499,
        0.9897574186325073
      ],
      "min": [
        0.0027906179893761873,
        0.007235168945044279
      ],
      "type": "VEC2"
    },
    {
      "bufferView": 0,
      "componentType": 5125,
      "count": 68388,
      "type": "SCALAR"
    }
  ],
  "asset": {
    "extras": {
      "author": "Wholock (https://sketchfab.com/wholock)",
      "license": "CC-BY-4.0 (http://creativecommons.org/licenses/by/4.0/)",
      "source": "https://sketchfab.com/3d-models/star-trek-intrepid-type-554e931031264afca1b4c62ecbff2978",
      "title": "Star Trek - Intrepid Type"
    },
    "generator": "Sketchfab-12.68.0",
    "version": "2.0"
  },
  "bufferViews": [
    {
      "buffer": 0,
      "byteLength": 273552,
      "name": "floatBufferViews",
      "target": 34963
    },
    {
      "buffer": 0,
      "byteLength": 1223880,
      "byteOffset": 273552,
      "byteStride": 8,
      "name": "floatBufferViews",
      "target": 34962
    },
    {
      "buffer": 0,
      "byteLength": 734328,
      "byteOffset": 1497432,
      "byteStride": 12,
      "name": "floatBufferViews",
      "target": 34962
    }
  ],
  "buffers": [
    {
      "byteLength": 2231760,
      "uri": "scene.bin"
    }
  ],
  "images": [
    {
      "uri": "textures/Intrepid_diffuse_1_baseColor.png"
    },
    {
      "uri": "textures/Intrepid_diffuse_1_metallicRoughness.png"
    },
    {
      "uri": "textures/Intrepid_diffuse_1_emissive.png"
    }
  ],
  "materials": [
    {
      "doubleSided": true,
      "emissiveFactor": [
        1.0,
        1.0,
        1.0
      ],
      "emissiveTexture": {
        "index": 2
      },
      "name": "Intrepid_diffuse_1",
      "pbrMetallicRoughness": {
        "baseColorTexture": {
          "index": 0
        },
        "metallicFactor": 0.0,
        "metallicRoughnessTexture": {
          "index": 1
        }
      }
    }
  ],
  "meshes": [
    {
      "name": "Intrepid_Type_Intrepid_diffuse_1_0",
      "primitives": [
        {
          "attributes": {
            "NORMAL": 1,
            "POSITION": 0,
            "TEXCOORD_0": 2,
            "TEXCOORD_1": 3,
            "TEXCOORD_2": 4,
            "TEXCOORD_3": 5,
            "TEXCOORD_4": 6
          },
          "indices": 7,
          "material": 0,
          "mode": 4
        }
      ]
    }
  ],
  "nodes": [
    {
      "children": [
        1
      ],
      "matrix": [
        -1.0,
        -6.290011496532519e-32,
        2.832769343193999e-16,
        0.0,
        2.832769343193999e-16,
        -2.220446049250313e-16,
        1.0,
        0.0,
        0.0,
        1.0,
        2.220446049250313e-16,
        0.0,
        -0.0001068115234375,
        9.297914543328345e-16,
        -4.187408447265625,
        1.0
      ],
      "name": "Sketchfab_model"
    },
    {
      "children": [
        2
      ],
      "matrix": [
        1.0,
        0.0,
        0.0,
        0.0,
        0.0,
        0.0,
        1.0,
        0.0,
        0.0,
        -1.0,
        0.0,
        0.0,
        0.0,
        0.0,
        0.0,
        1.0
      ],
      "name": "ba153cf8d1384d9b9af7f703f9d5755a.fbx"
    },
    {
      "children": [
        3,
        5,
        8
      ],
      "name": "RootNode"
    },
    {
      "children": [
        4
      ],
      "name": "Intrepid_Type"
    },
    {
      "mesh": 0,
      "name": "Intrepid_Type_Intrepid_diffuse_1_0"
    },
    {
      "children": [
        6
      ],
      "matrix": [
        0.7071067811865476,
        0.0,
        0.7071067811865475,
        0.0,
        -0.5792279653395692,
        0.5735764363510459,
        0.5792279653395694,
        0.0,
        -0.4055797876726388,
        -0.819152044288992,
        0.4055797876726388,
        0.0,
        -200.0,
        200.0,
        200.0,
        1.0
      ],
      "name": "Light"
    },
    {
      "children": [
        7
      ],
      "matrix": [
        1.0,
        0.0,
        0.0,
        0.0,
        0.0,
        2.220446049250313e-16,
        1.0,
        0.0,
        0.0,
        -1.0,
        2.220446049250313e-16,
        0.0,
        0.0,
        0.0,
        0.0,
        1.0
      ],
      "name": "Object_6"
    },
    {
      "name": "Object_7"
    },
    {
      "children": [
        9
      ],
      "matrix": [
        2.220446049250313e-16,
        0.0,
        -1.0,
        0.0,
        0.0,
        1.0,
        0.0,
        0.0,
        1.0,
        0.0,
        2.220446049250313e-16,
        0.0,
        0.0,
        1.242567539215088,
        930.2901000976563,
        1.0
      ],
      "name": "Camera"
    },
    {
      "name": "Object_9"
    }
  ],
  "samplers": [
    {
      "magFilter": 9729,
      "minFilter": 9987,
      "wrapS": 10497,
      "wrapT": 10497
    }
  ],
  "scene": 0,
  "scenes": [
    {
      "name": "Sketchfab_Scene",
      "nodes": [
        0
      ]
    }
  ],
  "textures": [
    {
      "sampler": 0,
      "source": 0
    },
    {
      "sampler": 0,
      "source": 1
    },
    {
      "sampler": 0,
      "source": 2
    }
  ]
}
