{
  "accessors": [
    {
      "bufferView": 2,
      "componentType": 5126,
      "count": 2785,
      "max": [
        0.4842199981212616,
        0.4842199981212616,
        -0.007790000177919865
      ],
      "min": [
        -0.4842199981212616,
        -0.4842199981212616,
        -0.04836999997496605
      ],
      "type": "VEC3"
    },
    {
      "bufferView": 2,
      "byteOffset": 33420,
      "componentType": 5126,
      "count": 2785,
      "max": [
        1.0,
        1.0,
        1.0
      ],
      "min": [
        -1.0,
        -1.0,
        -1.0
      ],
      "type": "VEC3"
    },
    {
      "bufferView": 1,
      "componentType": 5126,
      "count": 2785,
      "max": [
        0.975820004940033,
        0.9776600003242493
      ],
      "min": [
        0.03272999823093414,
        0.014739999547600746
      ],
      "type": "VEC2"
    },
    {
      "bufferView": 0,
      "componentType": 5125,
      "count": 16128,
      "type": "SCALAR"
    },
    {
      "bufferView": 2,
      "byteOffset": 66840,
      "componentType": 5126,
      "count": 929,
      "max": [
        0.4502899944782257,
        0.4502899944782257,
        0.0
      ],
      "min": [
        -0.4502899944782257,
        -0.4502899944782257,
        -0.024870000779628754
      ],
      "type": "VEC3"
    },
    {
      "bufferView": 2,
      "byteOffset": 77988,
      "componentType": 5126,
      "count": 929,
      "max": [
        0.9947729110717773,
        0.9032857418060303,
        1.0
      ],
      "min": [
        -0.9809964299201965,
        -0.8465102314949036,
        -0.646342933177948
      ],
      "type": "VEC3"
    },
    {
      "bufferView": 1,
      "byteOffset": 22280,
      "componentType": 5126,
      "count": 929,
      "max": [
        0.9881100058555603,
        0.9881100058555603
      ],
      "min": [
        0.011889999732375145,
        0.011889999732375145
      ],
      "type": "VEC2"
    },
    {
      "bufferView": 0,
      "byteOffset": 64512,
      "componentType": 5125,
      "count": 5376,
      "type": "SCALAR"
    },
    {
      "bufferView": 2,
      "byteOffset": 89136,
      "componentType": 5126,
      "count": 7898,
      "max": [
        0.4874800145626068,
        0.7399500012397766,
        0.7103700041770935
      ],
      "min": [
        -0.4874800145626068,
        -0.7970200181007385,
        0.058309998363256454
      ],
      "type": "VEC3"
    },
    {
      "bufferView": 2,
      "byteOffset": 183912,
      "componentType": 5126,
      "count": 7898,
      "max": [
        1.0,
        0.9999944567680359,
        0.9999995231628418
      ],
      "min": [
        -1.0,
        -1.0,
        -0.9999976754188538
      ],
      "type": "VEC3"
    },
    {
      "bufferView": 1,
      "byteOffset": 29712,
      "componentType": 5126,
      "count": 7898,
      "max": [
        0.9901999831199646,
        0.9901999831199646
      ],
      "min": [
        0.0,
        0.0
      ],
      "type": "VEC2"
    },
    {
      "bufferView": 1,
      "byteOffset": 92896,
      "componentType": 5126,
      "count": 7898,
      "max": [
        0.9901999831199646,
        0.9901999831199646
      ],
      "min": [
        0.0,
        0.0
      ],
      "type": "VEC2"
    },
    {
      "bufferView": 0,
      "byteOffset": 86016,
      "componentType": 5125,
      "count": 20562,
      "type": "SCALAR"
    },
    {
      "bufferView": 2,
      "byteOffset": 278688,
      "componentType": 5126,
      "count": 256,
      "max": [
        0.14587999880313873,
        0.2847299873828888,
        0.4396600127220154
      ],
      "min": [
        -0.14587999880313873,
        0.08427999913692474,
        0.34995999932289124
      ],
      "type": "VEC3"
    },
    {
      "bufferView": 2,
      "byteOffset": 281760,
      "componentType": 5126,
      "count": 256,
      "max": [
        0.00750000961124897,
        0.3200981020927429,
        0.9651791453361511
      ],
      "min": [
        -0.00750000961124897,
        0.26158979535102844,
        -0.9474341869354248
      ],
      "type": "VEC3"
    },
    {
      "bufferView": 1,
      "byteOffset": 156080,
      "componentType": 5126,
      "count": 256,
      "max": [
        0.9884499907493591,
        0.9882699847221375
      ],
      "min": [
        0.18602000176906586,
        0.10563000291585922
      ],
      "type": "VEC2"
    },
    {
      "bufferView": 0,
      "byteOffset": 168264,
      "componentType": 5125,
      "count": 384,
      "type": "SCALAR"
    },
    {
      "bufferView": 2,
      "byteOffset": 284832,
      "componentType": 5126,
      "count": 180,
      "max": [
        0.1717199981212616,
        -0.08150000125169754,
        0.4651300013065338
      ],
      "min": [
        -0.1717199981212616,
        -0.596310019493103,
        0.2183299958705902
      ],
      "type": "VEC3"
    },
    {
      "bufferView": 2,
      "byteOffset": 286992,
      "componentType": 5126,
      "count": 180,
      "max": [
        0.9906215667724609,
        0.5323474407196045,
        0.9869698882102966
      ],
      "min": [
        -0.9906219244003296,
        -0.9998757243156433,
        -0.9982892870903015
      ],
      "type": "VEC3"
    },
    {
      "bufferView": 1,
      "byteOffset": 158128,
      "componentType": 5126,
      "count": 180,
      "max": [
        0.9581199884414673,
        0.9815499782562256
      ],
      "min": [
        0.5471100211143494,
        0.17970000207424164
      ],
      "type": "VEC2"
    },
    {
      "bufferView": 0,
      "byteOffset": 169800,
      "componentType": 5125,
      "count": 276,
      "type": "SCALAR"
    },
    {
      "bufferView": 2,
      "byteOffset": 289152,
      "componentType": 5126,
      "count": 198,
      "max": [
        0.035840000957250595,
        0.5709599852561951,
        0.5224800109863281
      ],
      "min": [
        -0.035840000957250595,
        0.3398500084877014,
        0.4277600049972534
      ],
      "type": "VEC3"
    },
    {
      "bufferView": 2,
      "byteOffset": 291528,
      "componentType": 5126,
      "count": 198,
      "max": [
        0.9999871253967285,
        0.9300587177276611,
        0.9997438192367554
      ],
      "min": [
        -0.9999871253967285,
        -0.023889968171715736,
        -0.36737000942230225
      ],
      "type": "VEC3"
    },
    {
      "bufferView": 1,
      "byteOffset": 159568,
      "componentType": 5126,
      "count": 198,
      "max": [
        0.9585700035095215,
        0.9841300249099731
      ],
      "min": [
        0.5444899797439575,
        0.3930400013923645
      ],
      "type": "VEC2"
    },
    {
      "bufferView": 0,
      "byteOffset": 170904,
      "componentType": 5125,
      "count": 294,
      "type": "SCALAR"
    },
    {
      "bufferView": 2,
      "byteOffset": 293904,
      "componentType": 5126,
      "count": 4,
      "max": [
        1.0,
        1.0,
        0.0
      ],
      "min": [
        -1.0,
        -1.0,
        0.0
      ],
      "type": "VEC3"
    },
    {
      "bufferView": 2,
      "byteOffset": 293952,
      "componentType": 5126,
      "count": 4,
      "max": [
        0.0,
        0.0,
        1.0
      ],
      "min": [
        0.0,
        0.0,
        1.0
      ],
      "type": "VEC3"
    },
    {
      "bufferView": 1,
      "byteOffset": 161152,
      "componentType": 5126,
      "count": 4,
      "max": [
        0.9998999834060669,
        0.9998999834060669
      ],
      "min": [
        9.999999747378752e-05,
        9.999999747378752e-05
      ],
      "type": "VEC2"
    },
    {
      "bufferView": 0,
      "byteOffset": 172080,
      "componentType": 5125,
      "count": 6,
      "type": "SCALAR"
    }
  ],
  "asset": {
    "extras": {
      "author": "Jabril Anderson (https://sketchfab.com/jabrilanderson)",
      "license": "CC-BY-4.0 (http://creativecommons.org/licenses/by/4.0/)",
      "source": "https://sketchfab.com/3d-models/ship6-9e3ae2ad55ae4772b2205e1396a27101",
      "title": "ship6"
    },
    "generator": "Sketchfab-12.68.0",
    "version": "2.0"
  },
  "bufferViews": [
    {
      "buffer": 0,
      "byteLength": 172104,
      "name": "floatBufferViews",
      "target": 34963
    },
    {
      "buffer": 0,
      "byteLength": 161184,
      "byteOffset": 172104,
      "byteStride": 8,
      "name": "floatBufferViews",
      "target": 34962
    },
    {
      "buffer": 0,
      "byteLength": 294000,
      "byteOffset": 333288,
      "byteStride": 12,
      "name": "floatBufferViews",
      "target": 34962
    }
  ],
  "buffers": [
    {
      "byteLength": 627288,
      "uri": "scene.bin"
    }
  ],
  "extensionsUsed": [
    "KHR_materials_unlit"
  ],
  "images": [
    {
      "uri": "textures/Stars_baseColor.png"
    },
    {
      "uri": "textures/TurnTable_baseColor.png"
    },
    {
      "uri": "textures/Tiles_baseColor.png"
    },
    {
      "uri": "textures/talros-nothing-to-lose.000_baseColor.png"
    }
  ],
  "materials": [
    {
      "doubleSided": true,
      "extensions": {
        "KHR_materials_unlit": {}
      },
      "name": "Root",
      "pbrMetallicRoughness": {
        "metallicFactor": 0.0
      }
    },
    {
      "alphaMode": "BLEND",
      "doubleSided": true,
      "emissiveFactor": [
        0.5,
        0.5,
        0.5
      ],
      "extensions": {
        "KHR_materials_unlit": {}
      },
      "name": "Stars",
      "pbrMetallicRoughness": {
        "baseColorTexture": {
          "index": 0
        },
        "metallicFactor": 0.0
      }
    },
    {
      "doubleSided": true,
      "extensions": {
        "KHR_materials_unlit": {}
      },
      "name": "TurnTable",
      "pbrMetallicRoughness": {
        "baseColorTexture": {
          "index": 1
        },
        "metallicFactor": 0.0
      }
    },
    {
      "doubleSided": true,
      "extensions": {
        "KHR_materials_unlit": {}
      },
      "name": "Tiles",
      "pbrMetallicRoughness": {
        "baseColorTexture": {
          "index": 2
        },
        "metallicFactor": 0.0
      }
    },
    {
      "doubleSided": true,
      "emissiveFactor": [
        0.02500000037252903,
        0.02500000037252903,
        0.02500000037252903
      ],
      "extensions": {
        "KHR_materials_unlit": {}
      },
      "name": "talros-nothing-to-lose.000",
      "pbrMetallicRoughness": {
        "baseColorTexture": {
          "index": 3
        },
        "metallicFactor": 0.0
      }
    },
    {
      "doubleSided": true,
      "emissiveFactor": [
        1.0,
        1.0,
        1.0
      ],
      "extensions": {
        "KHR_materials_unlit": {}
      },
      "name": "RedLights",
      "pbrMetallicRoughness": {
        "baseColorFactor": [
          1.0,
          0.0,
          0.01373942382633686,
          1.0
        ],
        "metallicFactor": 0.0
      }
    },
    {
      "doubleSided": true,
      "extensions": {
        "KHR_materials_unlit": {}
      },
      "name": "talros-nothing-to-lose.002",
      "pbrMetallicRoughness": {
        "baseColorTexture": {
          "index": 3
        },
        "metallicFactor": 0.0
      }
    }
  ],
  "meshes": [
    {
      "name": "TT_0",
      "primitives": [
        {
          "attributes": {
            "NORMAL": 1,
            "POSITION": 0,
            "TEXCOORD_0": 2
          },
          "indices": 3,
          "material": 2,
          "mode": 4
        }
      ]
    },
    {
      "name": "TT_1",
      "primitives": [
        {
          "attributes": {
            "NORMAL": 5,
            "POSITION": 4,
            "TEXCOORD_0": 6
          },
          "indices": 7,
          "material": 3,
          "mode": 4
        }
      ]
    },
    {
      "name": "Talros ship.002_0",
      "primitives": [
        {
          "attributes": {
            "NORMAL": 9,
            "POSITION": 8,
            "TEXCOORD_0": 10,
            "TEXCOORD_1": 11
          },
          "indices": 12,
          "material": 4,
          "mode": 4
        }
      ]
    },
    {
      "name": "Talros ship.002_1",
      "primitives": [
        {
          "attributes": {
            "NORMAL": 14,
            "POSITION": 13,
            "TEXCOORD_0": 15
          },
          "indices": 16,
          "material": 0,
          "mode": 4
        }
      ]
    },
    {
      "name": "Talros ship.002_2",
      "primitives": [
        {
          "attributes": {
            "NORMAL": 18,
            "POSITION": 17,
            "TEXCOORD_0": 19
          },
          "indices": 20,
          "material": 5,
          "mode": 4
        }
      ]
    },
    {
      "name": "Talros ship.002_3",
      "primitives": [
        {
          "attributes": {
            "NORMAL": 22,
            "POSITION": 21,
            "TEXCOORD_0": 23
          },
          "indices": 24,
          "material": 6,
          "mode": 4
        }
      ]
    },
    {
      "name": "Plane.045_0",
      "primitives": [
        {
          "attributes": {
            "NORMAL": 26,
            "POSITION": 25,
            "TEXCOORD_0": 27
          },
          "indices": 28,
          "material": 1,
          "mode": 4
        }
      ]
    }
  ],
  "nodes": [
    {
      "children": [
        1
      ],
      "matrix": [
        1.0,
        0.0,
        0.0,
        0.0,
        0.0,
        2.220446049250313e-16,
        -1.0,
        0.0,
        0.0,
        1.0,
        2.220446049250313e-16,
        0.0,
        0.0,
        0.0,
        0.0,
        1.0
      ],
      "name": "Sketchfab_model"
    },
    {
      "children": [
        2,
        10,
        12,
        14,
        16,
        18,
        20
      ],
      "name": "Root"
    },
    {
      "children": [
        3,
        4,
        5
      ],
      "matrix": [
        7.0,
        0.0,
        0.0,
        0.0,
        0.0,
        7.0,
        0.0,
        0.0,
        0.0,
        0.0,
        7.0,
        0.0,
        0.0,
        0.0,
        0.0,
        1.0
      ],
      "name": "TT"
    },
    {
      "mesh": 0,
      "name": "TT_0"
    },
    {
      "mesh": 1,
      "name": "TT_1"
    },
    {
      "children": [
        6,
        7,
        8,
        9
      ],
      "matrix": [
        -0.49276000000000003,
        0.0,
        0.0,
        0.0,
        -0.0,
        -0.49276000000000003,
        0.0,
        0.0,
        0.0,
        0.0,
        0.49276000000000003,
        0.0,
        -0.0,
        -0.07062000000000002,
        0.019560000000000004,
        1.0
      ],
      "name": "Talros ship.002"
    },
    {
      "mesh": 2,
      "name": "Talros ship.002_0"
    },
    {
      "mesh": 3,
      "name": "Talros ship.002_1"
    },
    {
      "mesh": 4,
      "name": "Talros ship.002_2"
    },
    {
      "mesh": 5,
      "name": "Talros ship.002_3"
    },
    {
      "children": [
        11
      ],
      "matrix": [
        1.0,
        0.0,
        0.0,
        0.0,
        0.0,
        1.0,
        0.0,
        0.0,
        0.0,
        0.0,
        1.0,
        0.0,
        4.508660000000001,
        -4.175409999999999,
        1.98437,
        1.0
      ],
      "name": "Point"
    },
    {
      "name": "Point"
    },
    {
      "children": [
        13
      ],
      "matrix": [
        1.0,
        0.0,
        0.0,
        0.0,
        0.0,
        1.0,
        0.0,
        0.0,
        0.0,
        0.0,
        1.0,
        0.0,
        -0.29766000000000004,
        -0.5586300000000001,
        -0.5093599999999999,
        1.0
      ],
      "name": "Point.001"
    },
    {
      "name": "Point.001"
    },
    {
      "children": [
        15
      ],
      "matrix": [
        1.0,
        0.0,
        0.0,
        0.0,
        0.0,
        1.0,
        0.0,
        0.0,
        0.0,
        0.0,
        1.0,
        0.0,
        -2.82895,
        -4.04479,
        3.80801,
        1.0
      ],
      "name": "Point.004"
    },
    {
      "name": "Point.004"
    },
    {
      "children": [
        17
      ],
      "matrix": [
        1.0,
        0.0,
        0.0,
        0.0,
        0.0,
        1.0,
        0.0,
        0.0,
        0.0,
        0.0,
        1.0,
        0.0,
        5.56389,
        6.415260000000001,
        1.7768400000000002,
        1.0
      ],
      "name": "Point.002"
    },
    {
      "name": "Point.002"
    },
    {
      "children": [
        19
      ],
      "matrix": [
        1.0,
        0.0,
        0.0,
        0.0,
        0.0,
        1.0,
        0.0,
        0.0,
        0.0,
        0.0,
        1.0,
        0.0,
        -8.58961,
        6.415260000000001,
        -3.5763,
        1.0
      ],
      "name": "Point.003"
    },
    {
      "name": "Point.003"
    },
    {
      "children": [
        21
      ],
      "matrix": [
        -14.624299999999998,
        14.624299999999998,
        0.0,
        0.0,
        0.0,
        0.0,
        -20.681870000000004,
        0.0,
        14.624299999999998,
        14.624299999999998,
        0.0,
        0.0,
        18.283739999999995,
        22.56733,
        -0.5726000000000001,
        1.0
      ],
      "name": "Plane.045"
    },
    {
      "mesh": 6,
      "name": "Plane.045_0"
    }
  ],
  "samplers": [
    {
      "magFilter": 9729,
      "minFilter": 9987,
      "wrapS": 10497,
      "wrapT": 10497
    }
  ],
  "scene": 0,
  "scenes": [
    {
      "name": "Sketchfab_Scene",
      "nodes": [
        0
      ]
    }
  ],
  "textures": [
    {
      "sampler": 0,
      "source": 0
    },
    {
      "sampler": 0,
      "source": 1
    },
    {
      "sampler": 0,
      "source": 2
    },
    {
      "sampler": 0,
      "source": 3
    }
  ]
}
