{
  "accessors": [
    {
      "bufferView": 2,
      "componentType": 5126,
      "count": 101,
      "max": [
        0.08105900138616562,
        0.29023700952529907,
        0.01697400026023388
      ],
      "min": [
        -0.08105900138616562,
        0.18988299369812012,
        -0.43356001377105713
      ],
      "type": "VEC3"
    },
    {
      "bufferView": 2,
      "byteOffset": 1212,
      "componentType": 5126,
      "count": 101,
      "max": [
        0.9886457920074463,
        1.0,
        0.4612739086151123
      ],
      "min": [
        -0.9886457920074463,
        0.15025198459625244,
        0.0
      ],
      "type": "VEC3"
    },
    {
      "bufferView": 1,
      "componentType": 5126,
      "count": 101,
      "max": [
        -2.085059881210327,
        0.8420050144195557
      ],
      "min": [
        -2.5922820568084717,
        -0.002266000024974346
      ],
      "type": "VEC2"
    },
    {
      "bufferView": 0,
      "componentType": 5125,
      "count": 486,
      "type": "SCALAR"
    },
    {
      "bufferView": 2,
      "byteOffset": 2424,
      "componentType": 5126,
      "count": 19530,
      "max": [
        0.9411622285842896,
        0.36224907636642456,
        0.9438276886940002
      ],
      "min": [
        -0.9411622285842896,
        -0.18505501747131348,
        -1.0582160949707031
      ],
      "type": "VEC3"
    },
    {
      "bufferView": 2,
      "byteOffset": 236784,
      "componentType": 5126,
      "count": 19530,
      "max": [
        1.0,
        1.0,
        1.0
      ],
      "min": [
        -1.0,
        -1.0,
        -1.0
      ],
      "type": "VEC3"
    },
    {
      "bufferView": 3,
      "componentType": 5126,
      "count": 19530,
      "max": [
        1.0,
        1.0,
        1.0,
        1.0
      ],
      "min": [
        -1.0,
        -1.0,
        -1.0,
        -1.0
      ],
      "type": "VEC4"
    },
    {
      "bufferView": 1,
      "byteOffset": 808,
      "componentType": 5126,
      "count": 19530,
      "max": [
        0.9996143579483032,
        0.9997996091842651
      ],
      "min": [
        0.000406037550419569,
        0.0016620680689811707
      ],
      "type": "VEC2"
    },
    {
      "bufferView": 1,
      "byteOffset": 157048,
      "componentType": 5126,
      "count": 19530,
      "max": [
        0.9958338737487793,
        0.9932832717895508
      ],
      "min": [
        0.0,
        0.0
      ],
      "type": "VEC2"
    },
    {
      "bufferView": 1,
      "byteOffset": 313288,
      "componentType": 5126,
      "count": 19530,
      "max": [
        0.9964113235473633,
        0.9985692501068115
      ],
      "min": [
        0.0020816680043935776,
        0.003889709711074829
      ],
      "type": "VEC2"
    },
    {
      "bufferView": 0,
      "byteOffset": 1944,
      "componentType": 5125,
      "count": 44241,
      "type": "SCALAR"
    },
    {
      "bufferView": 2,
      "byteOffset": 471144,
      "componentType": 5126,
      "count": 5490,
      "max": [
        0.8613824844360352,
        0.006058976054191589,
        0.07124996185302734
      ],
      "min": [
        -0.860048770904541,
        -0.110334113240242,
        -0.38548362255096436
      ],
      "type": "VEC3"
    },
    {
      "bufferView": 2,
      "byteOffset": 537024,
      "componentType": 5126,
      "count": 5490,
      "max": [
        0.9997143149375916,
        0.9969472289085388,
        1.0
      ],
      "min": [
        -0.9997143149375916,
        -0.9969473481178284,
        -1.0
      ],
      "type": "VEC3"
    },
    {
      "bufferView": 3,
      "byteOffset": 312480,
      "componentType": 5126,
      "count": 5490,
      "max": [
        0.9999096989631653,
        0.9995182752609253,
        0.9961584806442261,
        1.0
      ],
      "min": [
        -0.9999098181724548,
        -0.9918562769889832,
        -1.0,
        -1.0
      ],
      "type": "VEC4"
    },
    {
      "bufferView": 1,
      "byteOffset": 469528,
      "componentType": 5126,
      "count": 5490,
      "max": [
        0.984050989151001,
        0.9857379794120789
      ],
      "min": [
        0.018974000588059425,
        0.01862199977040291
      ],
      "type": "VEC2"
    },
    {
      "bufferView": 0,
      "byteOffset": 178908,
      "componentType": 5125,
      "count": 13404,
      "type": "SCALAR"
    }
  ],
  "asset": {
    "extras": {
      "author": "Star Conflict (https://sketchfab.com/star_conflict)",
      "license": "CC-BY-4.0 (http://creativecommons.org/licenses/by/4.0/)",
      "source": "https://sketchfab.com/3d-models/ajf-12-dvergr-ecc16e103e79448faf9730f172a1d7e8",
      "title": "AJF-12 \"Dvergr\""
    },
    "generator": "Sketchfab-12.67.0",
    "version": "2.0"
  },
  "bufferViews": [
    {
      "buffer": 0,
      "byteLength": 232524,
      "name": "floatBufferViews",
      "target": 34963
    },
    {
      "buffer": 0,
      "byteLength": 513448,
      "byteOffset": 232524,
      "byteStride": 8,
      "name": "floatBufferViews",
      "target": 34962
    },
    {
      "buffer": 0,
      "byteLength": 602904,
      "byteOffset": 745972,
      "byteStride": 12,
      "name": "floatBufferViews",
      "target": 34962
    },
    {
      "buffer": 0,
      "byteLength": 400320,
      "byteOffset": 1348876,
      "byteStride": 16,
      "name": "floatBufferViews",
      "target": 34962
    }
  ],
  "buffers": [
    {
      "byteLength": 1749196,
      "uri": "scene.bin"
    }
  ],
  "images": [
    {
      "uri": "textures/lambert11_baseColor.png"
    },
    {
      "uri": "textures/lambert11_metallicRoughness.png"
    },
    {
      "uri": "textures/lambert11_emissive.png"
    },
    {
      "uri": "textures/lambert11_normal.png"
    },
    {
      "uri": "textures/lambert3_baseColor.png"
    },
    {
      "uri": "textures/lambert3_metallicRoughness.png"
    },
    {
      "uri": "textures/lambert3_emissive.png"
    },
    {
      "uri": "textures/lambert3_normal.png"
    }
  ],
  "materials": [
    {
      "alphaMode": "BLEND",
      "doubleSided": true,
      "name": "blinn1",
      "pbrMetallicRoughness": {
        "baseColorFactor": [
          0.0173027416,
          0.0281006019,
          0.0342184214,
          0.52
        ],
        "roughnessFactor": 0.0
      }
    },
    {
      "doubleSided": true,
      "emissiveFactor": [
        1.0,
        1.0,
        1.0
      ],
      "emissiveTexture": {
        "index": 2
      },
      "name": "lambert11",
      "normalTexture": {
        "index": 3
      },
      "occlusionTexture": {
        "index": 1
      },
      "pbrMetallicRoughness": {
        "baseColorTexture": {
          "index": 0
        },
        "metallicFactor": 0.64,
        "metallicRoughnessTexture": {
          "index": 1
        }
      }
    },
    {
      "doubleSided": true,
      "emissiveFactor": [
        1.0,
        1.0,
        1.0
      ],
      "emissiveTexture": {
        "index": 6
      },
      "name": "lambert3",
      "normalTexture": {
        "index": 7
      },
      "occlusionTexture": {
        "index": 5
      },
      "pbrMetallicRoughness": {
        "baseColorTexture": {
          "index": 4
        },
        "metallicFactor": 0.86,
        "metallicRoughnessTexture": {
          "index": 5
        }
      }
    }
  ],
  "meshes": [
    {
      "name": "Object_0",
      "primitives": [
        {
          "attributes": {
            "NORMAL": 1,
            "POSITION": 0,
            "TEXCOORD_0": 2
          },
          "indices": 3,
          "material": 0,
          "mode": 4
        }
      ]
    },
    {
      "name": "Object_1",
      "primitives": [
        {
          "attributes": {
            "NORMAL": 5,
            "POSITION": 4,
            "TANGENT": 6,
            "TEXCOORD_0": 7,
            "TEXCOORD_1": 8,
            "TEXCOORD_2": 9
          },
          "indices": 10,
          "material": 1,
          "mode": 4
        }
      ]
    },
    {
      "name": "Object_2",
      "primitives": [
        {
          "attributes": {
            "NORMAL": 12,
            "POSITION": 11,
            "TANGENT": 13,
            "TEXCOORD_0": 14
          },
          "indices": 15,
          "material": 2,
          "mode": 4
        }
      ]
    }
  ],
  "nodes": [
    {
      "children": [
        1
      ],
      "matrix": [
        1.0,
        0.0,
        0.0,
        0.0,
        0.0,
        2.220446049250313e-16,
        -1.0,
        0.0,
        0.0,
        1.0,
        2.220446049250313e-16,
        0.0,
        0.0,
        0.0,
        0.0,
        1.0
      ],
      "name": "Sketchfab_model"
    },
    {
      "children": [
        2
      ],
      "matrix": [
        1.0,
        0.0,
        0.0,
        0.0,
        0.0,
        0.0,
        1.0,
        0.0,
        0.0,
        -1.0,
        0.0,
        0.0,
        0.0,
        0.0,
        0.0,
        1.0
      ],
      "name": "f34a705e34c342099d68d8294cf16086.fbx"
    },
    {
      "children": [
        3,
        4,
        5
      ],
      "name": "RootNode"
    },
    {
      "mesh": 0,
      "name": "Object_3"
    },
    {
      "mesh": 1,
      "name": "Object_4"
    },
    {
      "mesh": 2,
      "name": "Object_5"
    }
  ],
  "samplers": [
    {
      "magFilter": 9729,
      "minFilter": 9987,
      "wrapS": 10497,
      "wrapT": 10497
    }
  ],
  "scene": 0,
  "scenes": [
    {
      "name": "Sketchfab_Scene",
      "nodes": [
        0
      ]
    }
  ],
  "textures": [
    {
      "sampler": 0,
      "source": 0
    },
    {
      "sampler": 0,
      "source": 1
    },
    {
      "sampler": 0,
      "source": 2
    },
    {
      "sampler": 0,
      "source": 3
    },
    {
      "sampler": 0,
      "source": 4
    },
    {
      "sampler": 0,
      "source": 5
    },
    {
      "sampler": 0,
      "source": 6
    },
    {
      "sampler": 0,
      "source": 7
    }
  ]
}
