{
  "accessors": [
    {
      "bufferView": 2,
      "componentType": 5126,
      "count": 65532,
      "max": [
        0.4995119869709015,
        0.3125914931297302,
        0.12938250601291656
      ],
      "min": [
        -0.5,
        -0.4995119869709015,
        0.0
      ],
      "type": "VEC3"
    },
    {
      "bufferView": 2,
      "byteOffset": 786384,
      "componentType": 5126,
      "count": 65532,
      "max": [
        0.995861291885376,
        0.982039749622345,
        1.0
      ],
      "min": [
        -0.9800135493278503,
        -0.9853976368904114,
        0.07195056974887848
      ],
      "type": "VEC3"
    },
    {
      "bufferView": 1,
      "componentType": 5126,
      "count": 65532,
      "max": [
        0.9995120167732239,
        0.8125914931297302
      ],
      "min": [
        0.0,
        0.000488042802317068
      ],
      "type": "VEC2"
    },
    {
      "bufferView": 0,
      "componentType": 5125,
      "count": 237066,
      "type": "SCALAR"
    },
    {
      "bufferView": 2,
      "byteOffset": 1572768,
      "componentType": 5126,
      "count": 65532,
      "max": [
        0.1891167014837265,
        0.5,
        0.12450999766588211
      ],
      "min": [
        -0.5,
        -0.4682771861553192,
        0.0
      ],
      "type": "VEC3"
    },
    {
      "bufferView": 2,
      "byteOffset": 2359152,
      "componentType": 5126,
      "count": 65532,
      "max": [
        0.9887897372245789,
        0.9858574271202087,
        1.0
      ],
      "min": [
        -0.9932713508605957,
        -0.993266224861145,
        0.07073381543159485
      ],
      "type": "VEC3"
    },
    {
      "bufferView": 1,
      "byteOffset": 524256,
      "componentType": 5126,
      "count": 65532,
      "max": [
        0.6891167163848877,
        1.0
      ],
      "min": [
        0.0,
        0.0317227803170681
      ],
      "type": "VEC2"
    },
    {
      "bufferView": 0,
      "byteOffset": 948264,
      "componentType": 5125,
      "count": 200523,
      "type": "SCALAR"
    },
    {
      "bufferView": 2,
      "byteOffset": 3145536,
      "componentType": 5126,
      "count": 65532,
      "max": [
        0.4995119869709015,
        0.5,
        0.21803690493106842
      ],
      "min": [
        -0.3223522901535034,
        -0.4917033016681671,
        0.0
      ],
      "type": "VEC3"
    },
    {
      "bufferView": 2,
      "byteOffset": 3931920,
      "componentType": 5126,
      "count": 65532,
      "max": [
        0.9927788972854614,
        0.9974775910377502,
        1.0
      ],
      "min": [
        -0.9986294507980347,
        -0.9952213168144226,
        0.05079375207424164
      ],
      "type": "VEC3"
    },
    {
      "bufferView": 1,
      "byteOffset": 1048512,
      "componentType": 5126,
      "count": 65532,
      "max": [
        0.9995120167732239,
        1.0
      ],
      "min": [
        0.17764760553836823,
        0.008296728134155273
      ],
      "type": "VEC2"
    },
    {
      "bufferView": 0,
      "byteOffset": 1750356,
      "componentType": 5125,
      "count": 203325,
      "type": "SCALAR"
    },
    {
      "bufferView": 2,
      "byteOffset": 4718304,
      "componentType": 5126,
      "count": 65532,
      "max": [
        0.3862859904766083,
        0.01586139015853405,
        0.18149270117282867
      ],
      "min": [
        -0.3438262939453125,
        -0.4917033016681671,
        0.0
      ],
      "type": "VEC3"
    },
    {
      "bufferView": 2,
      "byteOffset": 5504688,
      "componentType": 5126,
      "count": 65532,
      "max": [
        0.9947710037231445,
        0.9968221783638,
        1.0
      ],
      "min": [
        -0.9967687726020813,
        -0.9977982044219971,
        0.05090677738189697
      ],
      "type": "VEC3"
    },
    {
      "bufferView": 1,
      "byteOffset": 1572768,
      "componentType": 5126,
      "count": 65532,
      "max": [
        0.8862860202789307,
        0.5158613920211792
      ],
      "min": [
        0.1561737060546875,
        0.008296728134155273
      ],
      "type": "VEC2"
    },
    {
      "bufferView": 0,
      "byteOffset": 2563656,
      "componentType": 5125,
      "count": 177444,
      "type": "SCALAR"
    },
    {
      "bufferView": 2,
      "byteOffset": 6291072,
      "componentType": 5126,
      "count": 65532,
      "max": [
        0.4682771861553192,
        0.4687652885913849,
        0.1501826047897339
      ],
      "min": [
        -0.24524159729480743,
        -0.24426549673080444,
        0.0005896309739910066
      ],
      "type": "VEC3"
    },
    {
      "bufferView": 2,
      "byteOffset": 7077456,
      "componentType": 5126,
      "count": 65532,
      "max": [
        0.9965428113937378,
        0.9968581199645996,
        0.9999901652336121
      ],
      "min": [
        -0.9984260201454163,
        -0.9981842041015625,
        0.04147155582904816
      ],
      "type": "VEC3"
    },
    {
      "bufferView": 1,
      "byteOffset": 2097024,
      "componentType": 5126,
      "count": 65532,
      "max": [
        0.9682772159576416,
        0.9687653183937073
      ],
      "min": [
        0.25475838780403137,
        0.25573450326919556
      ],
      "type": "VEC2"
    },
    {
      "bufferView": 0,
      "byteOffset": 3273432,
      "componentType": 5125,
      "count": 207078,
      "type": "SCALAR"
    },
    {
      "bufferView": 2,
      "byteOffset": 7863840,
      "componentType": 5126,
      "count": 65532,
      "max": [
        0.39019039273262024,
        0.5,
        0.2070630043745041
      ],
      "min": [
        -0.3594436049461365,
        -0.15056130290031433,
        0.0
      ],
      "type": "VEC3"
    },
    {
      "bufferView": 2,
      "byteOffset": 8650224,
      "componentType": 5126,
      "count": 65532,
      "max": [
        0.9988099336624146,
        0.9965845346450806,
        1.0
      ],
      "min": [
        -0.9994385838508606,
        -0.998443603515625,
        0.03239934518933296
      ],
      "type": "VEC3"
    },
    {
      "bufferView": 1,
      "byteOffset": 2621280,
      "componentType": 5126,
      "count": 65532,
      "max": [
        0.8901904225349426,
        1.0
      ],
      "min": [
        0.14055639505386353,
        0.34943869709968567
      ],
      "type": "VEC2"
    },
    {
      "bufferView": 0,
      "byteOffset": 4101744,
      "componentType": 5125,
      "count": 190410,
      "type": "SCALAR"
    },
    {
      "bufferView": 2,
      "byteOffset": 9436608,
      "componentType": 5126,
      "count": 65532,
      "max": [
        0.4917033016681671,
        0.3438262939453125,
        0.246293306350708
      ],
      "min": [
        0.000244021401158534,
        -0.42142510414123535,
        0.0
      ],
      "type": "VEC3"
    },
    {
      "bufferView": 2,
      "byteOffset": 10222992,
      "componentType": 5126,
      "count": 65532,
      "max": [
        0.99676114320755,
        0.9992697238922119,
        1.0
      ],
      "min": [
        -0.9985226392745972,
        -0.9971896409988403,
        0.03584027290344238
      ],
      "type": "VEC3"
    },
    {
      "bufferView": 1,
      "byteOffset": 3145536,
      "componentType": 5126,
      "count": 65532,
      "max": [
        0.9917032718658447,
        0.8438262939453125
      ],
      "min": [
        0.5002440214157104,
        0.07857490330934525
      ],
      "type": "VEC2"
    },
    {
      "bufferView": 0,
      "byteOffset": 4863384,
      "componentType": 5125,
      "count": 161742,
      "type": "SCALAR"
    },
    {
      "bufferView": 2,
      "byteOffset": 11009376,
      "componentType": 5126,
      "count": 48765,
      "max": [
        0.42142510414123535,
        0.21498289704322815,
        0.2379932999610901
      ],
      "min": [
        -0.12518300116062164,
        -0.3433381915092468,
        0.011017249897122383
      ],
      "type": "VEC3"
    },
    {
      "bufferView": 2,
      "byteOffset": 11594556,
      "componentType": 5126,
      "count": 48765,
      "max": [
        0.9992331266403198,
        0.9990066885948181,
        0.9998805522918701
      ],
      "min": [
        -0.9981681704521179,
        -0.9978682398796082,
        0.02899879775941372
      ],
      "type": "VEC3"
    },
    {
      "bufferView": 1,
      "byteOffset": 3669792,
      "componentType": 5126,
      "count": 48765,
      "max": [
        0.9214251041412354,
        0.7149829268455505
      ],
      "min": [
        0.37481701374053955,
        0.15666179358959198
      ],
      "type": "VEC2"
    },
    {
      "bufferView": 0,
      "byteOffset": 5510352,
      "componentType": 5125,
      "count": 119106,
      "type": "SCALAR"
    }
  ],
  "asset": {
    "extras": {
      "author": "Foto Retina (https://sketchfab.com/ferret)",
      "license": "CC-BY-NC-SA-4.0 (http://creativecommons.org/licenses/by-nc-sa/4.0/)",
      "source": "https://sketchfab.com/3d-models/peak-0307872971a24ce3847730ff9a6a5665",
      "title": "Peak"
    },
    "generator": "Sketchfab-13.74.0",
    "version": "2.0"
  },
  "bufferViews": [
    {
      "buffer": 0,
      "byteLength": 5986776,
      "name": "floatBufferViews",
      "target": 34963
    },
    {
      "buffer": 0,
      "byteLength": 4059912,
      "byteOffset": 5986776,
      "byteStride": 8,
      "name": "floatBufferViews",
      "target": 34962
    },
    {
      "buffer": 0,
      "byteLength": 12179736,
      "byteOffset": 10046688,
      "byteStride": 12,
      "name": "floatBufferViews",
      "target": 34962
    }
  ],
  "buffers": [
    {
      "byteLength": 22226424,
      "uri": "scene.bin"
    }
  ],
  "extensionsRequired": [
    "KHR_materials_pbrSpecularGlossiness"
  ],
  "extensionsUsed": [
    "KHR_materials_pbrSpecularGlossiness"
  ],
  "images": [
    {
      "uri": "textures/material_0_diffuse.png"
    },
    {
      "uri": "textures/material_0_occlusion.png"
    }
  ],
  "materials": [
    {
      "doubleSided": true,
      "extensions": {
        "KHR_materials_pbrSpecularGlossiness": {
          "diffuseFactor": [
            1.0,
            1.0,
            1.0,
            1.0
          ],
          "diffuseTexture": {
            "index": 0
          },
          "glossinessFactor": 0.4,
          "specularFactor": [
            0.0,
            0.0,
            0.0
          ]
        }
      },
      "name": "material_0",
      "occlusionTexture": {
        "index": 1
      }
    }
  ],
  "meshes": [
    {
      "name": "Object_0",
      "primitives": [
        {
          "attributes": {
            "NORMAL": 1,
            "POSITION": 0,
            "TEXCOORD_0": 2
          },
          "indices": 3,
          "material": 0,
          "mode": 4
        }
      ]
    },
    {
      "name": "Object_1",
      "primitives": [
        {
          "attributes": {
            "NORMAL": 5,
            "POSITION": 4,
            "TEXCOORD_0": 6
          },
          "indices": 7,
          "material": 0,
          "mode": 4
        }
      ]
    },
    {
      "name": "Object_2",
      "primitives": [
        {
          "attributes": {
            "NORMAL": 9,
            "POSITION": 8,
            "TEXCOORD_0": 10
          },
          "indices": 11,
          "material": 0,
          "mode": 4
        }
      ]
    },
    {
      "name": "Object_3",
      "primitives": [
        {
          "attributes": {
            "NORMAL": 13,
            "POSITION": 12,
            "TEXCOORD_0": 14
          },
          "indices": 15,
          "material": 0,
          "mode": 4
        }
      ]
    },
    {
      "name": "Object_4",
      "primitives": [
        {
          "attributes": {
            "NORMAL": 17,
            "POSITION": 16,
            "TEXCOORD_0": 18
          },
          "indices": 19,
          "material": 0,
          "mode": 4
        }
      ]
    },
    {
      "name": "Object_5",
      "primitives": [
        {
          "attributes": {
            "NORMAL": 21,
            "POSITION": 20,
            "TEXCOORD_0": 22
          },
          "indices": 23,
          "material": 0,
          "mode": 4
        }
      ]
    },
    {
      "name": "Object_6",
      "primitives": [
        {
          "attributes": {
            "NORMAL": 25,
            "POSITION": 24,
            "TEXCOORD_0": 26
          },
          "indices": 27,
          "material": 0,
          "mode": 4
        }
      ]
    },
    {
      "name": "Object_7",
      "primitives": [
        {
          "attributes": {
            "NORMAL": 29,
            "POSITION": 28,
            "TEXCOORD_0": 30
          },
          "indices": 31,
          "material": 0,
          "mode": 4
        }
      ]
    }
  ],
  "nodes": [
    {
      "children": [
        1
      ],
      "matrix": [
        1.0,
        0.0,
        0.0,
        0.0,
        0.0,
        2.220446049250313e-16,
        -1.0,
        0.0,
        0.0,
        1.0,
        2.220446049250313e-16,
        0.0,
        0.0,
        0.0,
        0.0,
        1.0
      ],
      "name": "Sketchfab_model"
    },
    {
      "children": [
        2,
        3,
        4,
        5,
        6,
        7,
        8,
        9
      ],
      "name": "Mesher.obj.cleaner.materialmerger.gles"
    },
    {
      "mesh": 0,
      "name": "Object_2"
    },
    {
      "mesh": 1,
      "name": "Object_3"
    },
    {
      "mesh": 2,
      "name": "Object_4"
    },
    {
      "mesh": 3,
      "name": "Object_5"
    },
    {
      "mesh": 4,
      "name": "Object_6"
    },
    {
      "mesh": 5,
      "name": "Object_7"
    },
    {
      "mesh": 6,
      "name": "Object_8"
    },
    {
      "mesh": 7,
      "name": "Object_9"
    }
  ],
  "samplers": [
    {
      "magFilter": 9729,
      "minFilter": 9987,
      "wrapS": 10497,
      "wrapT": 10497
    }
  ],
  "scene": 0,
  "scenes": [
    {
      "name": "Sketchfab_Scene",
      "nodes": [
        0
      ]
    }
  ],
  "textures": [
    {
      "sampler": 0,
      "source": 0
    },
    {
      "sampler": 0,
      "source": 1
    }
  ]
}
