{
  "accessors": [
    {
      "bufferView": 2,
      "componentType": 5126,
      "count": 65532,
      "max": [
        14.362133026123047,
        11.686750411987305,
        -10.706342697143555
      ],
      "min": [
        -11.80173397064209,
        -6.565953731536865,
        -33.11459732055664
      ],
      "type": "VEC3"
    },
    {
      "bufferView": 2,
      "byteOffset": 786384,
      "componentType": 5126,
      "count": 65532,
      "max": [
        0.9872749447822571,
        0.9999998211860657,
        0.9999472498893738
      ],
      "min": [
        -0.9217171669006348,
        -0.9601777791976929,
        -0.9563396573066711
      ],
      "type": "VEC3"
    },
    {
      "bufferView": 3,
      "componentType": 5126,
      "count": 65532,
      "max": [
        0.9176470637321472,
        0.9176470637321472,
        0.8549019694328308,
        1.0
      ],
      "min": [
        0.0,
        0.0,
        0.0,
        1.0
      ],
      "type": "VEC4"
    },
    {
      "bufferView": 1,
      "componentType": 5126,
      "count": 65532,
      "max": [
        0.6471269130706787,
        0.8154322504997253
      ],
      "min": [
        0.0,
        0.0
      ],
      "type": "VEC2"
    },
    {
      "bufferView": 0,
      "componentType": 5125,
      "count": 364899,
      "type": "SCALAR"
    },
    {
      "bufferView": 2,
      "byteOffset": 1572768,
      "componentType": 5126,
      "count": 65532,
      "max": [
        7.09345817565918,
        5.146598815917969,
        -13.099021911621094
      ],
      "min": [
        -8.392662048339844,
        -4.071733474731445,
        -22.467487335205078
      ],
      "type": "VEC3"
    },
    {
      "bufferView": 2,
      "byteOffset": 2359152,
      "componentType": 5126,
      "count": 65532,
      "max": [
        0.9939040541648865,
        0.9999995827674866,
        0.9999472498893738
      ],
      "min": [
        -0.9973323345184326,
        -0.9165119528770447,
        -0.9961888790130615
      ],
      "type": "VEC3"
    },
    {
      "bufferView": 3,
      "byteOffset": 1048512,
      "componentType": 5126,
      "count": 65532,
      "max": [
        0.9490196108818054,
        0.9372549057006836,
        0.8313725590705872,
        1.0
      ],
      "min": [
        0.11372549086809158,
        0.1725490242242813,
        0.0470588244497776,
        1.0
      ],
      "type": "VEC4"
    },
    {
      "bufferView": 1,
      "byteOffset": 524256,
      "componentType": 5126,
      "count": 65532,
      "max": [
        0.9752111434936523,
        0.994019091129303
      ],
      "min": [
        0.09282846748828888,
        0.004482582677155733
      ],
      "type": "VEC2"
    },
    {
      "bufferView": 0,
      "byteOffset": 1459596,
      "componentType": 5125,
      "count": 351033,
      "type": "SCALAR"
    },
    {
      "bufferView": 2,
      "byteOffset": 3145536,
      "componentType": 5126,
      "count": 65532,
      "max": [
        11.977627754211426,
        4.334497451782227,
        -6.798457622528076
      ],
      "min": [
        -7.962267875671387,
        -8.15650463104248,
        -21.49761390686035
      ],
      "type": "VEC3"
    },
    {
      "bufferView": 2,
      "byteOffset": 3931920,
      "componentType": 5126,
      "count": 65532,
      "max": [
        0.9994558095932007,
        0.9999979138374329,
        0.9999210834503174
      ],
      "min": [
        -0.9995293617248535,
        -0.999448299407959,
        -0.9978498220443726
      ],
      "type": "VEC3"
    },
    {
      "bufferView": 3,
      "byteOffset": 2097024,
      "componentType": 5126,
      "count": 65532,
      "max": [
        0.8627451062202454,
        0.8470588326454163,
        0.7411764860153198,
        1.0
      ],
      "min": [
        0.0,
        0.0,
        0.0,
        1.0
      ],
      "type": "VEC4"
    },
    {
      "bufferView": 1,
      "byteOffset": 1048512,
      "componentType": 5126,
      "count": 65532,
      "max": [
        1.0,
        0.9937804341316223
      ],
      "min": [
        6.087018846301362e-06,
        0.00036806578282266855
      ],
      "type": "VEC2"
    },
    {
      "bufferView": 0,
      "byteOffset": 2863728,
      "componentType": 5125,
      "count": 348123,
      "type": "SCALAR"
    },
    {
      "bufferView": 2,
      "byteOffset": 4718304,
      "componentType": 5126,
      "count": 65532,
      "max": [
        14.437679290771484,
        4.14786434173584,
        -12.959729194641113
      ],
      "min": [
        -14.841705322265625,
        -5.171191215515137,
        -21.752716064453125
      ],
      "type": "VEC3"
    },
    {
      "bufferView": 2,
      "byteOffset": 5504688,
      "componentType": 5126,
      "count": 65532,
      "max": [
        0.9889775514602661,
        0.9999569654464722,
        0.9986739754676819
      ],
      "min": [
        -0.9800019860267639,
        -0.9863755702972412,
        -0.9841414093971252
      ],
      "type": "VEC3"
    },
    {
      "bufferView": 3,
      "byteOffset": 3145536,
      "componentType": 5126,
      "count": 65532,
      "max": [
        0.8901960849761963,
        0.9019607901573181,
        0.7686274647712708,
        1.0
      ],
      "min": [
        0.1725490242242813,
        0.20000000298023224,
        0.0470588244497776,
        1.0
      ],
      "type": "VEC4"
    },
    {
      "bufferView": 1,
      "byteOffset": 1572768,
      "componentType": 5126,
      "count": 65532,
      "max": [
        0.9999964833259583,
        0.9680104851722717
      ],
      "min": [
        0.051791463047266006,
        9.118585876422003e-05
      ],
      "type": "VEC2"
    },
    {
      "bufferView": 0,
      "byteOffset": 4256220,
      "componentType": 5125,
      "count": 326964,
      "type": "SCALAR"
    },
    {
      "bufferView": 2,
      "byteOffset": 6291072,
      "componentType": 5126,
      "count": 65532,
      "max": [
        12.63483715057373,
        10.101299285888672,
        -9.609085083007813
      ],
      "min": [
        -15.39265251159668,
        -6.879469394683838,
        -32.4649543762207
      ],
      "type": "VEC3"
    },
    {
      "bufferView": 2,
      "byteOffset": 7077456,
      "componentType": 5126,
      "count": 65532,
      "max": [
        0.9998165965080261,
        0.9999995827674866,
        0.9964026808738708
      ],
      "min": [
        -0.993774950504303,
        -0.9696241617202759,
        -0.9995652437210083
      ],
      "type": "VEC3"
    },
    {
      "bufferView": 3,
      "byteOffset": 4194048,
      "componentType": 5126,
      "count": 65532,
      "max": [
        0.9803921580314636,
        0.9960784316062927,
        0.8784313797950745,
        1.0
      ],
      "min": [
        0.0,
        0.0,
        0.0,
        1.0
      ],
      "type": "VEC4"
    },
    {
      "bufferView": 1,
      "byteOffset": 2097024,
      "componentType": 5126,
      "count": 65532,
      "max": [
        0.9981169700622559,
        0.9663947224617004
      ],
      "min": [
        0.07539020478725433,
        0.004756315145641565
      ],
      "type": "VEC2"
    },
    {
      "bufferView": 0,
      "byteOffset": 5564076,
      "componentType": 5125,
      "count": 307935,
      "type": "SCALAR"
    },
    {
      "bufferView": 2,
      "byteOffset": 7863840,
      "componentType": 5126,
      "count": 65532,
      "max": [
        25.535314559936523,
        10.620077133178711,
        -14.830801963806152
      ],
      "min": [
        2.25152850151062,
        0.13479237258434296,
        -31.430953979492188
      ],
      "type": "VEC3"
    },
    {
      "bufferView": 2,
      "byteOffset": 8650224,
      "componentType": 5126,
      "count": 65532,
      "max": [
        0.92125004529953,
        0.9999905228614807,
        0.9823457598686218
      ],
      "min": [
        -0.9828558564186096,
        -0.771735429763794,
        -0.9203296899795532
      ],
      "type": "VEC3"
    },
    {
      "bufferView": 3,
      "byteOffset": 5242560,
      "componentType": 5126,
      "count": 65532,
      "max": [
        0.9686274528503418,
        0.9725490212440491,
        0.8509804010391235,
        1.0
      ],
      "min": [
        0.1764705926179886,
        0.18039216101169586,
        0.054901961237192154,
        1.0
      ],
      "type": "VEC4"
    },
    {
      "bufferView": 1,
      "byteOffset": 2621280,
      "componentType": 5126,
      "count": 65532,
      "max": [
        0.8833381533622742,
        0.27133405208587646
      ],
      "min": [
        0.08837606012821198,
        0.013328148052096367
      ],
      "type": "VEC2"
    },
    {
      "bufferView": 0,
      "byteOffset": 6795816,
      "componentType": 5125,
      "count": 354780,
      "type": "SCALAR"
    },
    {
      "bufferView": 2,
      "byteOffset": 9436608,
      "componentType": 5126,
      "count": 65532,
      "max": [
        19.547008514404297,
        11.704848289489746,
        -8.868841171264648
      ],
      "min": [
        -15.083641052246094,
        -5.590369701385498,
        -33.21626663208008
      ],
      "type": "VEC3"
    },
    {
      "bufferView": 2,
      "byteOffset": 10222992,
      "componentType": 5126,
      "count": 65532,
      "max": [
        0.9996517300605774,
        0.9998924136161804,
        0.9998788237571716
      ],
      "min": [
        -0.999272882938385,
        -0.9989221096038818,
        -0.9992063641548157
      ],
      "type": "VEC3"
    },
    {
      "bufferView": 3,
      "byteOffset": 6291072,
      "componentType": 5126,
      "count": 65532,
      "max": [
        0.9019607901573181,
        0.9058823585510254,
        0.7686274647712708,
        1.0
      ],
      "min": [
        0.0,
        0.0,
        0.0,
        1.0
      ],
      "type": "VEC4"
    },
    {
      "bufferView": 1,
      "byteOffset": 3145536,
      "componentType": 5126,
      "count": 65532,
      "max": [
        0.9997204542160034,
        0.9949086308479309
      ],
      "min": [
        0.0,
        0.005083070136606693
      ],
      "type": "VEC2"
    },
    {
      "bufferView": 0,
      "byteOffset": 8214936,
      "componentType": 5125,
      "count": 340020,
      "type": "SCALAR"
    },
    {
      "bufferView": 2,
      "byteOffset": 11009376,
      "componentType": 5126,
      "count": 65532,
      "max": [
        31.35963249206543,
        12.19484806060791,
        -5.127908706665039
      ],
      "min": [
        -15.457423210144043,
        -9.141965866088867,
        -35.16027069091797
      ],
      "type": "VEC3"
    },
    {
      "bufferView": 2,
      "byteOffset": 11795760,
      "componentType": 5126,
      "count": 65532,
      "max": [
        0.9995233416557312,
        0.9998825192451477,
        0.9999161958694458
      ],
      "min": [
        -0.999436616897583,
        -0.9967697858810425,
        -0.9996886849403381
      ],
      "type": "VEC3"
    },
    {
      "bufferView": 3,
      "byteOffset": 7339584,
      "componentType": 5126,
      "count": 65532,
      "max": [
        0.9254902005195618,
        0.9137254953384399,
        0.8588235378265381,
        1.0
      ],
      "min": [
        0.0,
        0.0,
        0.0,
        1.0
      ],
      "type": "VEC4"
    },
    {
      "bufferView": 1,
      "byteOffset": 3669792,
      "componentType": 5126,
      "count": 65532,
      "max": [
        0.9999773502349854,
        0.9933029413223267
      ],
      "min": [
        0.0,
        0.0012346813455224037
      ],
      "type": "VEC2"
    },
    {
      "bufferView": 0,
      "byteOffset": 9575016,
      "componentType": 5125,
      "count": 320526,
      "type": "SCALAR"
    },
    {
      "bufferView": 2,
      "byteOffset": 12582144,
      "componentType": 5126,
      "count": 56452,
      "max": [
        21.792888641357422,
        12.044727325439453,
        -20.6480770111084
      ],
      "min": [
        0.5147833228111267,
        3.74052357673645,
        -33.051475524902344
      ],
      "type": "VEC3"
    },
    {
      "bufferView": 2,
      "byteOffset": 13259568,
      "componentType": 5126,
      "count": 56452,
      "max": [
        0.9996656775474548,
        0.9999905228614807,
        0.9999489784240723
      ],
      "min": [
        -0.9992329478263855,
        -0.9984268546104431,
        -0.9997861981391907
      ],
      "type": "VEC3"
    },
    {
      "bufferView": 3,
      "byteOffset": 8388096,
      "componentType": 5126,
      "count": 56452,
      "max": [
        0.9607843160629272,
        0.9686274528503418,
        0.8470588326454163,
        1.0
      ],
      "min": [
        0.0,
        0.0,
        0.0,
        1.0
      ],
      "type": "VEC4"
    },
    {
      "bufferView": 1,
      "byteOffset": 4194048,
      "componentType": 5126,
      "count": 56452,
      "max": [
        0.9999484419822693,
        0.9943320155143738
      ],
      "min": [
        1.4341898349812254e-05,
        1.6037840396165848e-05
      ],
      "type": "VEC2"
    },
    {
      "bufferView": 0,
      "byteOffset": 10857120,
      "componentType": 5125,
      "count": 241254,
      "type": "SCALAR"
    }
  ],
  "asset": {
    "extras": {
      "author": "Chris Bibb (https://sketchfab.com/chrisbibb)",
      "license": "CC-BY-4.0 (http://creativecommons.org/licenses/by/4.0/)",
      "source": "https://sketchfab.com/3d-models/northumberlandia-land-sculpture-1beab497b6924e06adff8b407991f2ed",
      "title": "Northumberlandia land sculpture"
    },
    "generator": "Sketchfab-12.68.0",
    "version": "2.0"
  },
  "bufferViews": [
    {
      "buffer": 0,
      "byteLength": 11822136,
      "name": "floatBufferViews",
      "target": 34963
    },
    {
      "buffer": 0,
      "byteLength": 4645664,
      "byteOffset": 11822136,
      "byteStride": 8,
      "name": "floatBufferViews",
      "target": 34962
    },
    {
      "buffer": 0,
      "byteLength": 13936992,
      "byteOffset": 16467800,
      "byteStride": 12,
      "name": "floatBufferViews",
      "target": 34962
    },
    {
      "buffer": 0,
      "byteLength": 9291328,
      "byteOffset": 30404792,
      "byteStride": 16,
      "name": "floatBufferViews",
      "target": 34962
    }
  ],
  "buffers": [
    {
      "byteLength": 39696120,
      "uri": "scene.bin"
    }
  ],
  "extensionsUsed": [
    "KHR_materials_unlit"
  ],
  "images": [
    {
      "uri": "textures/material0_baseColor.jpeg"
    }
  ],
  "materials": [
    {
      "doubleSided": true,
      "extensions": {
        "KHR_materials_unlit": {}
      },
      "name": "material0",
      "pbrMetallicRoughness": {
        "baseColorTexture": {
          "index": 0
        },
        "metallicFactor": 0.0
      }
    }
  ],
  "meshes": [
    {
      "name": "Model_material0_0",
      "primitives": [
        {
          "attributes": {
            "COLOR_0": 2,
            "NORMAL": 1,
            "POSITION": 0,
            "TEXCOORD_0": 3
          },
          "indices": 4,
          "material": 0,
          "mode": 4
        }
      ]
    },
    {
      "name": "Model_material0_0",
      "primitives": [
        {
          "attributes": {
            "COLOR_0": 7,
            "NORMAL": 6,
            "POSITION": 5,
            "TEXCOORD_0": 8
          },
          "indices": 9,
          "material": 0,
          "mode": 4
        }
      ]
    },
    {
      "name": "Model_material0_0",
      "primitives": [
        {
          "attributes": {
            "COLOR_0": 12,
            "NORMAL": 11,
            "POSITION": 10,
            "TEXCOORD_0": 13
          },
          "indices": 14,
          "material": 0,
          "mode": 4
        }
      ]
    },
    {
      "name": "Model_material0_0",
      "primitives": [
        {
          "attributes": {
            "COLOR_0": 17,
            "NORMAL": 16,
            "POSITION": 15,
            "TEXCOORD_0": 18
          },
          "indices": 19,
          "material": 0,
          "mode": 4
        }
      ]
    },
    {
      "name": "Model_material0_0",
      "primitives": [
        {
          "attributes": {
            "COLOR_0": 22,
            "NORMAL": 21,
            "POSITION": 20,
            "TEXCOORD_0": 23
          },
          "indices": 24,
          "material": 0,
          "mode": 4
        }
      ]
    },
    {
      "name": "Model_material0_0",
      "primitives": [
        {
          "attributes": {
            "COLOR_0": 27,
            "NORMAL": 26,
            "POSITION": 25,
            "TEXCOORD_0": 28
          },
          "indices": 29,
          "material": 0,
          "mode": 4
        }
      ]
    },
    {
      "name": "Model_material0_0",
      "primitives": [
        {
          "attributes": {
            "COLOR_0": 32,
            "NORMAL": 31,
            "POSITION": 30,
            "TEXCOORD_0": 33
          },
          "indices": 34,
          "material": 0,
          "mode": 4
        }
      ]
    },
    {
      "name": "Model_material0_0",
      "primitives": [
        {
          "attributes": {
            "COLOR_0": 37,
            "NORMAL": 36,
            "POSITION": 35,
            "TEXCOORD_0": 38
          },
          "indices": 39,
          "material": 0,
          "mode": 4
        }
      ]
    },
    {
      "name": "Model_material0_0",
      "primitives": [
        {
          "attributes": {
            "COLOR_0": 42,
            "NORMAL": 41,
            "POSITION": 40,
            "TEXCOORD_0": 43
          },
          "indices": 44,
          "material": 0,
          "mode": 4
        }
      ]
    }
  ],
  "nodes": [
    {
      "children": [
        1
      ],
      "matrix": [
        0.9953134655952454,
        -0.09666644036769867,
        -0.0025871717371046756,
        0.0,
        -0.0786920115351677,
        -0.825211524963379,
        0.5593152046203611,
        0.0,
        -0.05620197206735611,
        -0.556490361690521,
        -0.8289510607719422,
        0.0,
        1.0492843389511108,
        30.863103866577145,
        19.099246978759773,
        1.0
      ],
      "name": "Sketchfab_model"
    },
    {
      "children": [
        2
      ],
      "matrix": [
        1.0,
        0.0,
        0.0,
        0.0,
        0.0,
        -1.0,
        0.0,
        0.0,
        0.0,
        0.0,
        -1.0,
        0.0,
        0.0,
        0.0,
        0.0,
        1.0
      ],
      "name": "9c30359f6ff642b68e0ed6a17c4a47b8.fbx"
    },
    {
      "children": [
        3
      ],
      "name": "RootNode"
    },
    {
      "children": [
        4,
        5,
        6,
        7,
        8,
        9,
        10,
        11,
        12
      ],
      "name": "Model"
    },
    {
      "mesh": 0,
      "name": "Model_material0_0"
    },
    {
      "mesh": 1,
      "name": "Model_material0_0"
    },
    {
      "mesh": 2,
      "name": "Model_material0_0"
    },
    {
      "mesh": 3,
      "name": "Model_material0_0"
    },
    {
      "mesh": 4,
      "name": "Model_material0_0"
    },
    {
      "mesh": 5,
      "name": "Model_material0_0"
    },
    {
      "mesh": 6,
      "name": "Model_material0_0"
    },
    {
      "mesh": 7,
      "name": "Model_material0_0"
    },
    {
      "mesh": 8,
      "name": "Model_material0_0"
    }
  ],
  "samplers": [
    {
      "magFilter": 9729,
      "minFilter": 9987,
      "wrapS": 10497,
      "wrapT": 10497
    }
  ],
  "scene": 0,
  "scenes": [
    {
      "name": "Sketchfab_Scene",
      "nodes": [
        0
      ]
    }
  ],
  "textures": [
    {
      "sampler": 0,
      "source": 0
    }
  ]
}
