{
  "accessors": [
    {
      "bufferView": 2,
      "componentType": 5126,
      "count": 13695,
      "max": [
        28.73946189880371,
        9.250303268432617,
        23.529918670654297
      ],
      "min": [
        -28.23188591003418,
        -10.514605522155762,
        -31.190013885498047
      ],
      "type": "VEC3"
    },
    {
      "bufferView": 2,
      "byteOffset": 164340,
      "componentType": 5126,
      "count": 13695,
      "max": [
        0.9999784827232361,
        0.9837822318077087,
        0.9999939203262329
      ],
      "min": [
        -0.9999493956565857,
        -0.9999971389770508,
        -0.999871015548706
      ],
      "type": "VEC3"
    },
    {
      "bufferView": 3,
      "componentType": 5126,
      "count": 13695,
      "max": [
        0.9999672770500183,
        0.9996439814567566,
        0.999995768070221,
        1.0
      ],
      "min": [
        -0.9997323155403137,
        -0.999936044216156,
        -0.9999268054962158,
        -1.0
      ],
      "type": "VEC4"
    },
    {
      "bufferView": 1,
      "componentType": 5126,
      "count": 13695,
      "max": [
        0.9988038539886475,
        0.9969150424003601
      ],
      "min": [
        0.0010792695684358478,
        0.0010264033917337656
      ],
      "type": "VEC2"
    },
    {
      "bufferView": 0,
      "componentType": 5125,
      "count": 70743,
      "type": "SCALAR"
    }
  ],
  "asset": {
    "extras": {
      "author": "3dhdscan (https://sketchfab.com/3dhdscan)",
      "license": "CC-BY-4.0 (http://creativecommons.org/licenses/by/4.0/)",
      "source": "https://sketchfab.com/3d-models/boubin-stump-b968b5dc462148989cb87b072885da85",
      "title": "Boubín Stump"
    },
    "generator": "Sketchfab-12.67.0",
    "version": "2.0"
  },
  "bufferViews": [
    {
      "buffer": 0,
      "byteLength": 282972,
      "name": "floatBufferViews",
      "target": 34963
    },
    {
      "buffer": 0,
      "byteLength": 109560,
      "byteOffset": 282972,
      "byteStride": 8,
      "name": "floatBufferViews",
      "target": 34962
    },
    {
      "buffer": 0,
      "byteLength": 328680,
      "byteOffset": 392532,
      "byteStride": 12,
      "name": "floatBufferViews",
      "target": 34962
    },
    {
      "buffer": 0,
      "byteLength": 219120,
      "byteOffset": 721212,
      "byteStride": 16,
      "name": "floatBufferViews",
      "target": 34962
    }
  ],
  "buffers": [
    {
      "byteLength": 940332,
      "uri": "scene.bin"
    }
  ],
  "images": [
    {
      "uri": "textures/boubin_stump_baseColor.jpeg"
    },
    {
      "uri": "textures/boubin_stump_metallicRoughness.png"
    },
    {
      "uri": "textures/boubin_stump_normal.jpeg"
    }
  ],
  "materials": [
    {
      "doubleSided": true,
      "name": "boubin_stump",
      "normalTexture": {
        "index": 2
      },
      "occlusionTexture": {
        "index": 1,
        "strength": 0.7029344512195121
      },
      "pbrMetallicRoughness": {
        "baseColorTexture": {
          "index": 0
        },
        "metallicFactor": 0.0,
        "metallicRoughnessTexture": {
          "index": 1
        },
        "roughnessFactor": 0.9007240853658537
      }
    }
  ],
  "meshes": [
    {
      "name": "boubin_stump_boubin_stump_0",
      "primitives": [
        {
          "attributes": {
            "NORMAL": 1,
            "POSITION": 0,
            "TANGENT": 2,
            "TEXCOORD_0": 3
          },
          "indices": 4,
          "material": 0,
          "mode": 4
        }
      ]
    }
  ],
  "nodes": [
    {
      "children": [
        1
      ],
      "matrix": [
        1.0,
        0.0,
        0.0,
        0.0,
        0.0,
        1.0,
        0.0,
        0.0,
        0.0,
        0.0,
        1.0,
        0.0,
        0.0,
        -8.879681587219237,
        -11.724154472351076,
        1.0
      ],
      "name": "Sketchfab_model"
    },
    {
      "children": [
        2
      ],
      "matrix": [
        1.0,
        0.0,
        0.0,
        0.0,
        0.0,
        -1.0,
        0.0,
        0.0,
        0.0,
        0.0,
        -1.0,
        0.0,
        0.0,
        0.0,
        0.0,
        1.0
      ],
      "name": "boubin_stump.FBX"
    },
    {
      "children": [
        3
      ],
      "name": "RootNode"
    },
    {
      "children": [
        4
      ],
      "matrix": [
        1.0,
        0.0,
        0.0,
        0.0,
        0.0,
        1.0,
        0.0,
        0.0,
        0.0,
        0.0,
        1.0,
        0.0,
        -6.86041259765625,
        -9.669781684875488,
        2.4078102111816406,
        1.0
      ],
      "name": "boubin_stump"
    },
    {
      "mesh": 0,
      "name": "boubin_stump_boubin_stump_0"
    }
  ],
  "samplers": [
    {
      "magFilter": 9729,
      "minFilter": 9987,
      "wrapS": 10497,
      "wrapT": 10497
    }
  ],
  "scene": 0,
  "scenes": [
    {
      "name": "Sketchfab_Scene",
      "nodes": [
        0
      ]
    }
  ],
  "textures": [
    {
      "sampler": 0,
      "source": 0
    },
    {
      "sampler": 0,
      "source": 1
    },
    {
      "sampler": 0,
      "source": 2
    }
  ]
}
