{
  "accessors": [
    {
      "bufferView": 2,
      "componentType": 5126,
      "count": 1911,
      "max": [
        13.329000473022461,
        48.25,
        85.21299743652344
      ],
      "min": [
        -27.961999893188477,
        2.9730000495910645,
        30.297000885009766
      ],
      "type": "VEC3"
    },
    {
      "bufferView": 2,
      "byteOffset": 22932,
      "componentType": 5126,
      "count": 1911,
      "max": [
        1.0,
        1.0,
        1.0
      ],
      "min": [
        -1.0,
        -1.0,
        -1.0
      ],
      "type": "VEC3"
    },
    {
      "bufferView": 1,
      "componentType": 5126,
      "count": 1911,
      "max": [
        6.431399345397949,
        6.431398868560791
      ],
      "min": [
        -5.431399345397949,
        -5.431398868560791
      ],
      "type": "VEC2"
    },
    {
      "bufferView": 0,
      "componentType": 5125,
      "count": 2064,
      "type": "SCALAR"
    },
    {
      "bufferView": 2,
      "byteOffset": 45864,
      "componentType": 5126,
      "count": 1412,
      "max": [
        17.31800079345703,
        26.461000442504883,
        86.0
      ],
      "min": [
        -28.55299949645996,
        0.0,
        29.510000228881836
      ],
      "type": "VEC3"
    },
    {
      "bufferView": 2,
      "byteOffset": 62808,
      "componentType": 5126,
      "count": 1412,
      "max": [
        1.0,
        1.0,
        1.0
      ],
      "min": [
        -1.0,
        -1.0,
        -1.0
      ],
      "type": "VEC3"
    },
    {
      "bufferView": 1,
      "byteOffset": 15288,
      "componentType": 5126,
      "count": 1412,
      "max": [
        4.570287227630615,
        4.570286750793457
      ],
      "min": [
        -3.5702872276306152,
        -3.570286750793457
      ],
      "type": "VEC2"
    },
    {
      "bufferView": 0,
      "byteOffset": 8256,
      "componentType": 5125,
      "count": 1560,
      "type": "SCALAR"
    },
    {
      "bufferView": 2,
      "byteOffset": 79752,
      "componentType": 5126,
      "count": 31786,
      "max": [
        132.45700073242188,
        122.5,
        279.4739990234375
      ],
      "min": [
        -122.45700073242188,
        4.604000091552734,
        -131.13900756835938
      ],
      "type": "VEC3"
    },
    {
      "bufferView": 2,
      "byteOffset": 461184,
      "componentType": 5126,
      "count": 31786,
      "max": [
        1.0,
        1.0,
        1.0
      ],
      "min": [
        -1.0,
        -1.0,
        -1.0
      ],
      "type": "VEC3"
    },
    {
      "bufferView": 1,
      "byteOffset": 26584,
      "componentType": 5126,
      "count": 31786,
      "max": [
        5.168983459472656,
        5.168983459472656
      ],
      "min": [
        -4.168983459472656,
        -4.168983459472656
      ],
      "type": "VEC2"
    },
    {
      "bufferView": 0,
      "byteOffset": 14496,
      "componentType": 5125,
      "count": 89838,
      "type": "SCALAR"
    },
    {
      "bufferView": 2,
      "byteOffset": 842616,
      "componentType": 5126,
      "count": 65532,
      "max": [
        30.648000717163086,
        28.759000778198242,
        -110.23699951171875
      ],
      "min": [
        -27.25,
        3.0,
        -121.34600067138672
      ],
      "type": "VEC3"
    },
    {
      "bufferView": 2,
      "byteOffset": 1629000,
      "componentType": 5126,
      "count": 65532,
      "max": [
        1.0,
        1.0,
        1.0
      ],
      "min": [
        -1.0,
        -1.0,
        -1.0
      ],
      "type": "VEC3"
    },
    {
      "bufferView": 1,
      "byteOffset": 280872,
      "componentType": 5126,
      "count": 65532,
      "max": [
        2.461364269256592,
        2.4614009857177734
      ],
      "min": [
        -1.4614008665084839,
        -1.4614008665084839
      ],
      "type": "VEC2"
    },
    {
      "bufferView": 0,
      "byteOffset": 373848,
      "componentType": 5125,
      "count": 186402,
      "type": "SCALAR"
    },
    {
      "bufferView": 2,
      "byteOffset": 2415384,
      "componentType": 5126,
      "count": 14297,
      "max": [
        28.53499984741211,
        28.759000778198242,
        -110.23699951171875
      ],
      "min": [
        20.40999984741211,
        3.0,
        -121.34600067138672
      ],
      "type": "VEC3"
    },
    {
      "bufferView": 2,
      "byteOffset": 2586948,
      "componentType": 5126,
      "count": 14297,
      "max": [
        1.0,
        1.0,
        1.0
      ],
      "min": [
        -1.0,
        -1.0,
        -1.0
      ],
      "type": "VEC3"
    },
    {
      "bufferView": 1,
      "byteOffset": 805128,
      "componentType": 5126,
      "count": 14297,
      "max": [
        2.4614009857177734,
        2.4608867168426514
      ],
      "min": [
        -1.4264942407608032,
        -1.454328179359436
      ],
      "type": "VEC2"
    },
    {
      "bufferView": 0,
      "byteOffset": 1119456,
      "componentType": 5125,
      "count": 38346,
      "type": "SCALAR"
    },
    {
      "bufferView": 2,
      "byteOffset": 2758512,
      "componentType": 5126,
      "count": 65534,
      "max": [
        127.64800262451172,
        31.187000274658203,
        187.25999450683594
      ],
      "min": [
        -120.99700164794922,
        3.0,
        -23.8439998626709
      ],
      "type": "VEC3"
    },
    {
      "bufferView": 2,
      "byteOffset": 3544920,
      "componentType": 5126,
      "count": 65534,
      "max": [
        1.0,
        1.0,
        1.0
      ],
      "min": [
        -1.0,
        -1.0,
        -1.0
      ],
      "type": "VEC3"
    },
    {
      "bufferView": 1,
      "byteOffset": 919504,
      "componentType": 5126,
      "count": 65534,
      "max": [
        10.562102317810059,
        10.562102317810059
      ],
      "min": [
        -9.562102317810059,
        -9.562102317810059
      ],
      "type": "VEC2"
    },
    {
      "bufferView": 0,
      "byteOffset": 1272840,
      "componentType": 5125,
      "count": 107487,
      "type": "SCALAR"
    },
    {
      "bufferView": 2,
      "byteOffset": 4331328,
      "componentType": 5126,
      "count": 7243,
      "max": [
        127.39900207519531,
        31.187000274658203,
        187.08799743652344
      ],
      "min": [
        -120.99700164794922,
        3.0,
        16.268999099731445
      ],
      "type": "VEC3"
    },
    {
      "bufferView": 2,
      "byteOffset": 4418244,
      "componentType": 5126,
      "count": 7243,
      "max": [
        1.0,
        1.0,
        0.999971330165863
      ],
      "min": [
        -1.0,
        -1.0,
        -0.9998760223388672
      ],
      "type": "VEC3"
    },
    {
      "bufferView": 1,
      "byteOffset": 1443776,
      "componentType": 5126,
      "count": 7243,
      "max": [
        10.561545372009277,
        10.560876846313477
      ],
      "min": [
        -9.562102317810059,
        -9.562102317810059
      ],
      "type": "VEC2"
    },
    {
      "bufferView": 0,
      "byteOffset": 1702788,
      "componentType": 5125,
      "count": 9915,
      "type": "SCALAR"
    },
    {
      "bufferView": 2,
      "byteOffset": 4505160,
      "componentType": 5126,
      "count": 5075,
      "max": [
        172.0,
        3.0,
        279.76300048828125
      ],
      "min": [
        -165.0,
        0.0,
        -179.98699951171875
      ],
      "type": "VEC3"
    },
    {
      "bufferView": 2,
      "byteOffset": 4566060,
      "componentType": 5126,
      "count": 5075,
      "max": [
        1.0,
        1.0,
        1.0
      ],
      "min": [
        -1.0,
        -1.0,
        -1.0
      ],
      "type": "VEC3"
    },
    {
      "bufferView": 1,
      "byteOffset": 1501720,
      "componentType": 5126,
      "count": 5075,
      "max": [
        7.290873050689697,
        7.290872573852539
      ],
      "min": [
        -6.290873050689697,
        -6.290872573852539
      ],
      "type": "VEC2"
    },
    {
      "bufferView": 0,
      "byteOffset": 1742448,
      "componentType": 5125,
      "count": 17982,
      "type": "SCALAR"
    },
    {
      "bufferView": 2,
      "byteOffset": 4626960,
      "componentType": 5126,
      "count": 2885,
      "max": [
        30.253000259399414,
        31.75,
        -110.58300018310547
      ],
      "min": [
        -26.881999969482422,
        28.759000778198242,
        -120.9749984741211
      ],
      "type": "VEC3"
    },
    {
      "bufferView": 2,
      "byteOffset": 4661580,
      "componentType": 5126,
      "count": 2885,
      "max": [
        1.0,
        1.0,
        0.9974614977836609
      ],
      "min": [
        -1.0,
        -1.0,
        -1.0
      ],
      "type": "VEC3"
    },
    {
      "bufferView": 0,
      "byteOffset": 1814376,
      "componentType": 5125,
      "count": 5004,
      "type": "SCALAR"
    },
    {
      "bufferView": 2,
      "byteOffset": 4696200,
      "componentType": 5126,
      "count": 65532,
      "max": [
        144.75599670410156,
        160.5,
        287.29901123046875
      ],
      "min": [
        -137.75599670410156,
        -0.8209999799728394,
        -190.78500366210938
      ],
      "type": "VEC3"
    },
    {
      "bufferView": 2,
      "byteOffset": 5482584,
      "componentType": 5126,
      "count": 65532,
      "max": [
        1.0,
        1.0,
        1.0
      ],
      "min": [
        -1.0,
        -1.0,
        -1.0
      ],
      "type": "VEC3"
    },
    {
      "bufferView": 1,
      "byteOffset": 1542320,
      "componentType": 5126,
      "count": 65532,
      "max": [
        7.5314202308654785,
        7.5314202308654785
      ],
      "min": [
        -6.5314202308654785,
        -6.5314202308654785
      ],
      "type": "VEC2"
    },
    {
      "bufferView": 0,
      "byteOffset": 1834392,
      "componentType": 5125,
      "count": 204330,
      "type": "SCALAR"
    },
    {
      "bufferView": 2,
      "byteOffset": 6268968,
      "componentType": 5126,
      "count": 16954,
      "max": [
        144.14199829101563,
        159.9929962158203,
        201.23719787597656
      ],
      "min": [
        -137.75599670410156,
        0.0,
        -130.7761993408203
      ],
      "type": "VEC3"
    },
    {
      "bufferView": 2,
      "byteOffset": 6472416,
      "componentType": 5126,
      "count": 16954,
      "max": [
        1.0,
        1.0,
        1.0
      ],
      "min": [
        -1.0,
        -1.0,
        -1.0
      ],
      "type": "VEC3"
    },
    {
      "bufferView": 1,
      "byteOffset": 2066576,
      "componentType": 5126,
      "count": 16954,
      "max": [
        7.496330261230469,
        7.466189861297607
      ],
      "min": [
        -6.4935760498046875,
        -6.5314202308654785
      ],
      "type": "VEC2"
    },
    {
      "bufferView": 0,
      "byteOffset": 2651712,
      "componentType": 5125,
      "count": 46209,
      "type": "SCALAR"
    }
  ],
  "asset": {
    "extras": {
      "author": "Michael Ironstone (https://sketchfab.com/Michael-Ironstone)",
      "license": "CC-BY-4.0 (http://creativecommons.org/licenses/by/4.0/)",
      "source": "https://sketchfab.com/3d-models/minas-tirith-throne-room-test-v1-485105dd3d9243c3a94e2e553a65e5a7",
      "title": "Minas Tirith Throne Room Test v1"
    },
    "generator": "Sketchfab-12.67.0",
    "version": "2.0"
  },
  "bufferViews": [
    {
      "buffer": 0,
      "byteLength": 2836548,
      "name": "floatBufferViews",
      "target": 34963
    },
    {
      "buffer": 0,
      "byteLength": 2202208,
      "byteOffset": 2836548,
      "byteStride": 8,
      "name": "floatBufferViews",
      "target": 34962
    },
    {
      "buffer": 0,
      "byteLength": 6675864,
      "byteOffset": 5038756,
      "byteStride": 12,
      "name": "floatBufferViews",
      "target": 34962
    }
  ],
  "buffers": [
    {
      "byteLength": 11714620,
      "uri": "scene.bin"
    }
  ],
  "images": [
    {
      "uri": "textures/color_16777215.001_baseColor.png"
    },
    {
      "uri": "textures/color_0.001_baseColor.png"
    },
    {
      "uri": "textures/color_2829873_baseColor.png"
    },
    {
      "uri": "textures/color_7693138_baseColor.jpeg"
    },
    {
      "uri": "textures/color_13618616_baseColor.png"
    },
    {
      "uri": "textures/color_16448250_baseColor.png"
    }
  ],
  "materials": [
    {
      "doubleSided": true,
      "name": "color_16777215.001",
      "pbrMetallicRoughness": {
        "baseColorTexture": {
          "index": 0
        },
        "metallicFactor": 0.0
      }
    },
    {
      "doubleSided": true,
      "name": "color_0.001",
      "pbrMetallicRoughness": {
        "baseColorTexture": {
          "index": 1
        },
        "metallicFactor": 0.0,
        "roughnessFactor": 0.5
      }
    },
    {
      "doubleSided": true,
      "name": "color_2829873",
      "pbrMetallicRoughness": {
        "baseColorTexture": {
          "index": 2
        },
        "metallicFactor": 0.0
      }
    },
    {
      "doubleSided": true,
      "name": "color_7693138",
      "pbrMetallicRoughness": {
        "baseColorTexture": {
          "index": 3
        },
        "metallicFactor": 0.0
      }
    },
    {
      "doubleSided": true,
      "name": "color_11107152",
      "pbrMetallicRoughness": {
        "baseColorTexture": {
          "index": 3
        },
        "metallicFactor": 0.0
      }
    },
    {
      "doubleSided": true,
      "name": "color_13618616",
      "pbrMetallicRoughness": {
        "baseColorTexture": {
          "index": 4
        },
        "metallicFactor": 0.0
      }
    },
    {
      "doubleSided": true,
      "name": "color_14093196",
      "pbrMetallicRoughness": {
        "metallicFactor": 0.0
      }
    },
    {
      "doubleSided": true,
      "name": "color_16448250",
      "pbrMetallicRoughness": {
        "baseColorTexture": {
          "index": 5
        },
        "metallicFactor": 0.0
      }
    }
  ],
  "meshes": [
    {
      "name": "Object_0",
      "primitives": [
        {
          "attributes": {
            "NORMAL": 1,
            "POSITION": 0,
            "TEXCOORD_0": 2
          },
          "indices": 3,
          "material": 0,
          "mode": 4
        }
      ]
    },
    {
      "name": "Object_1",
      "primitives": [
        {
          "attributes": {
            "NORMAL": 5,
            "POSITION": 4,
            "TEXCOORD_0": 6
          },
          "indices": 7,
          "material": 1,
          "mode": 4
        }
      ]
    },
    {
      "name": "Object_2",
      "primitives": [
        {
          "attributes": {
            "NORMAL": 9,
            "POSITION": 8,
            "TEXCOORD_0": 10
          },
          "indices": 11,
          "material": 2,
          "mode": 4
        }
      ]
    },
    {
      "name": "Object_3",
      "primitives": [
        {
          "attributes": {
            "NORMAL": 13,
            "POSITION": 12,
            "TEXCOORD_0": 14
          },
          "indices": 15,
          "material": 3,
          "mode": 4
        }
      ]
    },
    {
      "name": "Object_4",
      "primitives": [
        {
          "attributes": {
            "NORMAL": 17,
            "POSITION": 16,
            "TEXCOORD_0": 18
          },
          "indices": 19,
          "material": 3,
          "mode": 4
        }
      ]
    },
    {
      "name": "Object_5",
      "primitives": [
        {
          "attributes": {
            "NORMAL": 21,
            "POSITION": 20,
            "TEXCOORD_0": 22
          },
          "indices": 23,
          "material": 4,
          "mode": 4
        }
      ]
    },
    {
      "name": "Object_6",
      "primitives": [
        {
          "attributes": {
            "NORMAL": 25,
            "POSITION": 24,
            "TEXCOORD_0": 26
          },
          "indices": 27,
          "material": 4,
          "mode": 4
        }
      ]
    },
    {
      "name": "Object_7",
      "primitives": [
        {
          "attributes": {
            "NORMAL": 29,
            "POSITION": 28,
            "TEXCOORD_0": 30
          },
          "indices": 31,
          "material": 5,
          "mode": 4
        }
      ]
    },
    {
      "name": "Object_8",
      "primitives": [
        {
          "attributes": {
            "NORMAL": 33,
            "POSITION": 32
          },
          "indices": 34,
          "material": 6,
          "mode": 4
        }
      ]
    },
    {
      "name": "Object_9",
      "primitives": [
        {
          "attributes": {
            "NORMAL": 36,
            "POSITION": 35,
            "TEXCOORD_0": 37
          },
          "indices": 38,
          "material": 7,
          "mode": 4
        }
      ]
    },
    {
      "name": "Object_10",
      "primitives": [
        {
          "attributes": {
            "NORMAL": 40,
            "POSITION": 39,
            "TEXCOORD_0": 41
          },
          "indices": 42,
          "material": 7,
          "mode": 4
        }
      ]
    }
  ],
  "nodes": [
    {
      "children": [
        1
      ],
      "matrix": [
        -0.9999998807907104,
        -1.6091620077091447e-16,
        0.00046809727791696787,
        0.0,
        0.00046809727791696787,
        -2.2204457845525168e-16,
        0.9999998807907104,
        0.0,
        -1.6081224906088311e-16,
        1.0,
        2.221198807130685e-16,
        0.0,
        -6.98917818069458,
        4.656820956139892e-14,
        46.275428771972656,
        1.0
      ],
      "name": "Sketchfab_model"
    },
    {
      "children": [
        2
      ],
      "name": "root"
    },
    {
      "children": [
        3,
        5,
        7,
        9,
        12,
        15,
        17,
        19
      ],
      "matrix": [
        1.0,
        0.0,
        0.0,
        0.0,
        0.0,
        2.220446049250313e-16,
        1.0,
        0.0,
        0.0,
        -1.0,
        2.220446049250313e-16,
        0.0,
        0.0,
        0.0,
        0.0,
        1.0
      ],
      "name": "GLTF_SceneRootNode"
    },
    {
      "children": [
        4
      ],
      "matrix": [
        0.0,
        0.0,
        -0.7975473403930664,
        0.0,
        0.0,
        0.7975473403930664,
        0.0,
        0.0,
        0.7975473403930664,
        0.0,
        0.0,
        0.0,
        -48.716304779052734,
        2.4624879360198975,
        146.96353149414063,
        1.0
      ],
      "name": "obj_0_0"
    },
    {
      "mesh": 0,
      "name": "Object_4"
    },
    {
      "children": [
        6
      ],
      "matrix": [
        0.0,
        0.0,
        -0.7975473403930664,
        0.0,
        0.0,
        0.7975473403930664,
        0.0,
        0.0,
        0.7975473403930664,
        0.0,
        0.0,
        0.0,
        -48.716304779052734,
        2.4624879360198975,
        146.96353149414063,
        1.0
      ],
      "name": "obj_0.001_1"
    },
    {
      "mesh": 1,
      "name": "Object_6"
    },
    {
      "children": [
        8
      ],
      "matrix": [
        -0.999999999999996,
        0.0,
        8.742277657347569e-08,
        0.0,
        0.0,
        1.0,
        0.0,
        0.0,
        -8.742277657347569e-08,
        0.0,
        -0.999999999999996,
        0.0,
        0.0,
        0.0,
        71.39388275146484,
        1.0
      ],
      "name": "obj_0.002_27"
    },
    {
      "mesh": 2,
      "name": "Object_8"
    },
    {
      "children": [
        10,
        11
      ],
      "matrix": [
        -0.999999999999996,
        0.0,
        8.742277657347569e-08,
        0.0,
        0.0,
        1.0,
        0.0,
        0.0,
        -8.742277657347569e-08,
        0.0,
        -0.999999999999996,
        0.0,
        0.0,
        0.0,
        71.39388275146484,
        1.0
      ],
      "name": "obj_0.003_28"
    },
    {
      "mesh": 3,
      "name": "Object_10"
    },
    {
      "mesh": 4,
      "name": "Object_11"
    },
    {
      "children": [
        13,
        14
      ],
      "matrix": [
        -0.999999999999996,
        0.0,
        8.742277657347569e-08,
        0.0,
        0.0,
        1.0,
        0.0,
        0.0,
        -8.742277657347569e-08,
        0.0,
        -0.999999999999996,
        0.0,
        0.0,
        0.0,
        71.39388275146484,
        1.0
      ],
      "name": "obj_0.004_29"
    },
    {
      "mesh": 5,
      "name": "Object_13"
    },
    {
      "mesh": 6,
      "name": "Object_14"
    },
    {
      "children": [
        16
      ],
      "matrix": [
        -0.999999999999996,
        0.0,
        8.742277657347569e-08,
        0.0,
        0.0,
        1.0,
        0.0,
        0.0,
        -8.742277657347569e-08,
        0.0,
        -0.999999999999996,
        0.0,
        0.0,
        0.0,
        71.39388275146484,
        1.0
      ],
      "name": "obj_0.005_30"
    },
    {
      "mesh": 7,
      "name": "Object_16"
    },
    {
      "children": [
        18
      ],
      "matrix": [
        -0.999999999999996,
        0.0,
        8.742277657347569e-08,
        0.0,
        0.0,
        1.0,
        0.0,
        0.0,
        -8.742277657347569e-08,
        0.0,
        -0.999999999999996,
        0.0,
        0.0,
        0.0,
        71.39388275146484,
        1.0
      ],
      "name": "obj_0.006_31"
    },
    {
      "mesh": 8,
      "name": "Object_18"
    },
    {
      "children": [
        20,
        21
      ],
      "matrix": [
        -0.999999999999996,
        0.0,
        8.742277657347569e-08,
        0.0,
        0.0,
        1.0,
        0.0,
        0.0,
        -8.742277657347569e-08,
        0.0,
        -0.999999999999996,
        0.0,
        0.0,
        0.0,
        71.39388275146484,
        1.0
      ],
      "name": "obj_0.007_32"
    },
    {
      "mesh": 9,
      "name": "Object_20"
    },
    {
      "mesh": 10,
      "name": "Object_21"
    }
  ],
  "samplers": [
    {
      "magFilter": 9729,
      "minFilter": 9987,
      "wrapS": 10497,
      "wrapT": 10497
    }
  ],
  "scene": 0,
  "scenes": [
    {
      "name": "Sketchfab_Scene",
      "nodes": [
        0
      ]
    }
  ],
  "textures": [
    {
      "sampler": 0,
      "source": 0
    },
    {
      "sampler": 0,
      "source": 1
    },
    {
      "sampler": 0,
      "source": 2
    },
    {
      "sampler": 0,
      "source": 3
    },
    {
      "sampler": 0,
      "source": 4
    },
    {
      "sampler": 0,
      "source": 5
    }
  ]
}
