{
  "accessors": [
    {
      "bufferView": 1,
      "componentType": 5126,
      "count": 65534,
      "max": [
        3996.2451171875,
        2705.87890625,
        1698.0909423828125
      ],
      "min": [
        1258.531982421875,
        -249.0966033935547,
        -42.82992935180664
      ],
      "type": "VEC3"
    },
    {
      "bufferView": 1,
      "byteOffset": 786408,
      "componentType": 5126,
      "count": 65534,
      "max": [
        0.9999833106994629,
        0.9999852776527405,
        1.0
      ],
      "min": [
        -0.9999803900718689,
        -1.0,
        -1.0
      ],
      "type": "VEC3"
    },
    {
      "bufferView": 2,
      "componentType": 5126,
      "count": 65534,
      "max": [
        0.3137255012989044,
        0.32156863808631897,
        0.3960784375667572,
        1.0
      ],
      "min": [
        0.1882352977991104,
        0.1882352977991104,
        0.1882352977991104,
        1.0
      ],
      "type": "VEC4"
    },
    {
      "bufferView": 0,
      "componentType": 5125,
      "count": 179067,
      "type": "SCALAR"
    },
    {
      "bufferView": 1,
      "byteOffset": 1572816,
      "componentType": 5126,
      "count": 65534,
      "max": [
        5212.294921875,
        2458.302001953125,
        1698.0909423828125
      ],
      "min": [
        1396.593017578125,
        -1481.6180419921875,
        -42.82992935180664
      ],
      "type": "VEC3"
    },
    {
      "bufferView": 1,
      "byteOffset": 2359224,
      "componentType": 5126,
      "count": 65534,
      "max": [
        1.0,
        1.0,
        1.0
      ],
      "min": [
        -0.9999834299087524,
        -0.9999800324440002,
        -1.0
      ],
      "type": "VEC3"
    },
    {
      "bufferView": 2,
      "byteOffset": 1048544,
      "componentType": 5126,
      "count": 65534,
      "max": [
        0.3137255012989044,
        0.32156863808631897,
        0.3960784375667572,
        1.0
      ],
      "min": [
        0.1882352977991104,
        0.1882352977991104,
        0.1882352977991104,
        1.0
      ],
      "type": "VEC4"
    },
    {
      "bufferView": 0,
      "byteOffset": 716268,
      "componentType": 5125,
      "count": 175827,
      "type": "SCALAR"
    },
    {
      "bufferView": 1,
      "byteOffset": 3145632,
      "componentType": 5126,
      "count": 65532,
      "max": [
        5446.02880859375,
        2566.319091796875,
        1698.0909423828125
      ],
      "min": [
        2598.97900390625,
        -1247.885009765625,
        -42.82992935180664
      ],
      "type": "VEC3"
    },
    {
      "bufferView": 1,
      "byteOffset": 3932016,
      "componentType": 5126,
      "count": 65532,
      "max": [
        1.0,
        1.0,
        1.0
      ],
      "min": [
        -1.0,
        -1.0,
        -1.0
      ],
      "type": "VEC3"
    },
    {
      "bufferView": 2,
      "byteOffset": 2097088,
      "componentType": 5126,
      "count": 65532,
      "max": [
        0.3137255012989044,
        0.32156863808631897,
        0.3960784375667572,
        1.0
      ],
      "min": [
        0.1882352977991104,
        0.1882352977991104,
        0.1882352977991104,
        1.0
      ],
      "type": "VEC4"
    },
    {
      "bufferView": 0,
      "byteOffset": 1419576,
      "componentType": 5125,
      "count": 176820,
      "type": "SCALAR"
    },
    {
      "bufferView": 1,
      "byteOffset": 4718400,
      "componentType": 5126,
      "count": 65532,
      "max": [
        5343.10400390625,
        2602.9541015625,
        626.79541015625
      ],
      "min": [
        1361.45703125,
        -1342.3480224609375,
        -38.45661926269531
      ],
      "type": "VEC3"
    },
    {
      "bufferView": 1,
      "byteOffset": 5504784,
      "componentType": 5126,
      "count": 65532,
      "max": [
        1.0,
        1.0,
        1.0
      ],
      "min": [
        -1.0,
        -1.0,
        -1.0
      ],
      "type": "VEC3"
    },
    {
      "bufferView": 2,
      "byteOffset": 3145600,
      "componentType": 5126,
      "count": 65532,
      "max": [
        0.501960813999176,
        0.501960813999176,
        0.501960813999176,
        1.0
      ],
      "min": [
        0.1882352977991104,
        0.1882352977991104,
        0.1882352977991104,
        1.0
      ],
      "type": "VEC4"
    },
    {
      "bufferView": 0,
      "byteOffset": 2126856,
      "componentType": 5125,
      "count": 219981,
      "type": "SCALAR"
    },
    {
      "bufferView": 1,
      "byteOffset": 6291168,
      "componentType": 5126,
      "count": 65532,
      "max": [
        5157.89892578125,
        2459.39208984375,
        626.79541015625
      ],
      "min": [
        1632.06201171875,
        -1378.6929931640625,
        -50.32046890258789
      ],
      "type": "VEC3"
    },
    {
      "bufferView": 1,
      "byteOffset": 7077552,
      "componentType": 5126,
      "count": 65532,
      "max": [
        1.0,
        1.0,
        1.0
      ],
      "min": [
        -1.0,
        -1.0,
        -1.0
      ],
      "type": "VEC3"
    },
    {
      "bufferView": 2,
      "byteOffset": 4194112,
      "componentType": 5126,
      "count": 65532,
      "max": [
        0.7607843279838562,
        0.7098039388656616,
        0.3960784375667572,
        1.0
      ],
      "min": [
        0.1882352977991104,
        0.1882352977991104,
        0.027450980618596077,
        1.0
      ],
      "type": "VEC4"
    },
    {
      "bufferView": 0,
      "byteOffset": 3006780,
      "componentType": 5125,
      "count": 204048,
      "type": "SCALAR"
    },
    {
      "bufferView": 1,
      "byteOffset": 7863936,
      "componentType": 5126,
      "count": 65532,
      "max": [
        4063.81494140625,
        1392.64599609375,
        211.88729858398438
      ],
      "min": [
        2569.527099609375,
        -170.2003936767578,
        -37.317909240722656
      ],
      "type": "VEC3"
    },
    {
      "bufferView": 1,
      "byteOffset": 8650320,
      "componentType": 5126,
      "count": 65532,
      "max": [
        1.0,
        1.0,
        1.0
      ],
      "min": [
        -1.0,
        -1.0,
        -0.9999762773513794
      ],
      "type": "VEC3"
    },
    {
      "bufferView": 2,
      "byteOffset": 5242624,
      "componentType": 5126,
      "count": 65532,
      "max": [
        0.501960813999176,
        0.501960813999176,
        0.501960813999176,
        1.0
      ],
      "min": [
        0.3137255012989044,
        0.32156863808631897,
        0.3960784375667572,
        1.0
      ],
      "type": "VEC4"
    },
    {
      "bufferView": 0,
      "byteOffset": 3822972,
      "componentType": 5125,
      "count": 204729,
      "type": "SCALAR"
    },
    {
      "bufferView": 1,
      "byteOffset": 9436704,
      "componentType": 5126,
      "count": 33715,
      "max": [
        5307.9677734375,
        1562.905029296875,
        1866.362060546875
      ],
      "min": [
        2378.303955078125,
        -352.71881103515625,
        -37.31724166870117
      ],
      "type": "VEC3"
    },
    {
      "bufferView": 1,
      "byteOffset": 9841284,
      "componentType": 5126,
      "count": 33715,
      "max": [
        1.0,
        1.0,
        1.0
      ],
      "min": [
        -1.0,
        -1.0,
        -0.9999990463256836
      ],
      "type": "VEC3"
    },
    {
      "bufferView": 2,
      "byteOffset": 6291136,
      "componentType": 5126,
      "count": 33715,
      "max": [
        0.501960813999176,
        0.501960813999176,
        0.501960813999176,
        1.0
      ],
      "min": [
        0.1882352977991104,
        0.1882352977991104,
        0.1882352977991104,
        1.0
      ],
      "type": "VEC4"
    },
    {
      "bufferView": 0,
      "byteOffset": 4641888,
      "componentType": 5125,
      "count": 96636,
      "type": "SCALAR"
    }
  ],
  "asset": {
    "extras": {
      "author": "Binkley-Spacetrucker (https://sketchfab.com/Binkley-Piratepants)",
      "license": "CC-BY-4.0 (http://creativecommons.org/licenses/by/4.0/)",
      "source": "https://sketchfab.com/3d-models/juggernaught-bridge-color-6d4a4dfc289d4bd18320ec21e1a419f2",
      "title": "Juggernaught Bridge Color"
    },
    "generator": "Sketchfab-12.66.0",
    "version": "2.0"
  },
  "bufferViews": [
    {
      "buffer": 0,
      "byteLength": 5028432,
      "name": "floatBufferViews",
      "target": 34963
    },
    {
      "buffer": 0,
      "byteLength": 10245864,
      "byteOffset": 5028432,
      "byteStride": 12,
      "name": "floatBufferViews",
      "target": 34962
    },
    {
      "buffer": 0,
      "byteLength": 6830576,
      "byteOffset": 15274296,
      "byteStride": 16,
      "name": "floatBufferViews",
      "target": 34962
    }
  ],
  "buffers": [
    {
      "byteLength": 22104872,
      "uri": "scene.bin"
    }
  ],
  "materials": [
    {
      "name": "Scene_-_Root",
      "pbrMetallicRoughness": {
        "baseColorFactor": [
          0.38325986090526487,
          0.45647783603482156,
          0.6531182729508583,
          1.0
        ],
        "roughnessFactor": 0.5260840160090748
      }
    }
  ],
  "meshes": [
    {
      "name": "Object_0",
      "primitives": [
        {
          "attributes": {
            "COLOR_0": 2,
            "NORMAL": 1,
            "POSITION": 0
          },
          "indices": 3,
          "material": 0,
          "mode": 4
        }
      ]
    },
    {
      "name": "Object_1",
      "primitives": [
        {
          "attributes": {
            "COLOR_0": 6,
            "NORMAL": 5,
            "POSITION": 4
          },
          "indices": 7,
          "material": 0,
          "mode": 4
        }
      ]
    },
    {
      "name": "Object_2",
      "primitives": [
        {
          "attributes": {
            "COLOR_0": 10,
            "NORMAL": 9,
            "POSITION": 8
          },
          "indices": 11,
          "material": 0,
          "mode": 4
        }
      ]
    },
    {
      "name": "Object_3",
      "primitives": [
        {
          "attributes": {
            "COLOR_0": 14,
            "NORMAL": 13,
            "POSITION": 12
          },
          "indices": 15,
          "material": 0,
          "mode": 4
        }
      ]
    },
    {
      "name": "Object_4",
      "primitives": [
        {
          "attributes": {
            "COLOR_0": 18,
            "NORMAL": 17,
            "POSITION": 16
          },
          "indices": 19,
          "material": 0,
          "mode": 4
        }
      ]
    },
    {
      "name": "Object_5",
      "primitives": [
        {
          "attributes": {
            "COLOR_0": 22,
            "NORMAL": 21,
            "POSITION": 20
          },
          "indices": 23,
          "material": 0,
          "mode": 4
        }
      ]
    },
    {
      "name": "Object_6",
      "primitives": [
        {
          "attributes": {
            "COLOR_0": 26,
            "NORMAL": 25,
            "POSITION": 24
          },
          "indices": 27,
          "material": 0,
          "mode": 4
        }
      ]
    }
  ],
  "nodes": [
    {
      "children": [
        1
      ],
      "matrix": [
        1.0,
        0.0,
        0.0,
        0.0,
        0.0,
        2.220446049250313e-16,
        -1.0,
        0.0,
        0.0,
        1.0,
        2.220446049250313e-16,
        0.0,
        0.0,
        0.0,
        0.0,
        1.0
      ],
      "name": "Sketchfab_model"
    },
    {
      "children": [
        2,
        3,
        4,
        5,
        6,
        7,
        8
      ],
      "name": "Geode"
    },
    {
      "mesh": 0,
      "name": "Object_2"
    },
    {
      "mesh": 1,
      "name": "Object_3"
    },
    {
      "mesh": 2,
      "name": "Object_4"
    },
    {
      "mesh": 3,
      "name": "Object_5"
    },
    {
      "mesh": 4,
      "name": "Object_6"
    },
    {
      "mesh": 5,
      "name": "Object_7"
    },
    {
      "mesh": 6,
      "name": "Object_8"
    }
  ],
  "scene": 0,
  "scenes": [
    {
      "name": "Sketchfab_Scene",
      "nodes": [
        0
      ]
    }
  ]
}
