{
  "accessors": [
    {
      "bufferView": 2,
      "componentType": 5126,
      "count": 65532,
      "max": [
        41.43685531616211,
        48.52171325683594,
        39.417884826660156
      ],
      "min": [
        0.19554901123046875,
        1.440765380859375,
        0.0
      ],
      "type": "VEC3"
    },
    {
      "bufferView": 2,
      "byteOffset": 786384,
      "componentType": 5126,
      "count": 65532,
      "max": [
        0.9999977946281433,
        0.9998284578323364,
        0.9998384118080139
      ],
      "min": [
        -0.9999995231628418,
        -0.9999322295188904,
        -0.9999899864196777
      ],
      "type": "VEC3"
    },
    {
      "bufferView": 1,
      "componentType": 5126,
      "count": 65532,
      "max": [
        0.9946020245552063,
        0.9999269843101501
      ],
      "min": [
        0.003103999886661768,
        0.0034489999525249004
      ],
      "type": "VEC2"
    },
    {
      "bufferView": 0,
      "componentType": 5125,
      "count": 320664,
      "type": "SCALAR"
    },
    {
      "bufferView": 2,
      "byteOffset": 1572768,
      "componentType": 5126,
      "count": 61422,
      "max": [
        40.551307678222656,
        47.464324951171875,
        40.383121490478516
      ],
      "min": [
        2.0286922454833984,
        0.379302978515625,
        3.5603771209716797
      ],
      "type": "VEC3"
    },
    {
      "bufferView": 2,
      "byteOffset": 2309832,
      "componentType": 5126,
      "count": 61422,
      "max": [
        0.9998090267181396,
        0.9998874068260193,
        0.9998384118080139
      ],
      "min": [
        -0.9999995231628418,
        -0.9997377395629883,
        -0.999987006187439
      ],
      "type": "VEC3"
    },
    {
      "bufferView": 1,
      "byteOffset": 524256,
      "componentType": 5126,
      "count": 61422,
      "max": [
        0.9975379705429077,
        1.0000250339508057
      ],
      "min": [
        0.021174000576138496,
        0.004238999914377928
      ],
      "type": "VEC2"
    },
    {
      "bufferView": 0,
      "byteOffset": 1282656,
      "componentType": 5125,
      "count": 274089,
      "type": "SCALAR"
    },
    {
      "bufferView": 2,
      "byteOffset": 3046896,
      "componentType": 5126,
      "count": 65532,
      "max": [
        41.41736602783203,
        48.618858337402344,
        39.417884826660156
      ],
      "min": [
        0.0,
        2.523406982421875,
        0.08050107955932617
      ],
      "type": "VEC3"
    },
    {
      "bufferView": 2,
      "byteOffset": 3833280,
      "componentType": 5126,
      "count": 65532,
      "max": [
        0.9999951124191284,
        0.9999733567237854,
        0.9996155500411987
      ],
      "min": [
        -0.9999876618385315,
        -0.9999306797981262,
        -0.9999806880950928
      ],
      "type": "VEC3"
    },
    {
      "bufferView": 1,
      "byteOffset": 1015632,
      "componentType": 5126,
      "count": 65532,
      "max": [
        0.9969490170478821,
        1.0005099773406982
      ],
      "min": [
        -9.699999645818025e-05,
        0.0028520000632852316
      ],
      "type": "VEC2"
    },
    {
      "bufferView": 0,
      "byteOffset": 2379012,
      "componentType": 5125,
      "count": 267915,
      "type": "SCALAR"
    },
    {
      "bufferView": 2,
      "byteOffset": 4619664,
      "componentType": 5126,
      "count": 65532,
      "max": [
        39.458065032958984,
        47.05876541137695,
        40.39924240112305
      ],
      "min": [
        6.521126747131348,
        0.03047943115234375,
        6.012001991271973
      ],
      "type": "VEC3"
    },
    {
      "bufferView": 2,
      "byteOffset": 5406048,
      "componentType": 5126,
      "count": 65532,
      "max": [
        0.9999719262123108,
        0.9999846816062927,
        0.9999675750732422
      ],
      "min": [
        -0.9999825954437256,
        -0.9999754428863525,
        -0.9999521970748901
      ],
      "type": "VEC3"
    },
    {
      "bufferView": 1,
      "byteOffset": 1539888,
      "componentType": 5126,
      "count": 65532,
      "max": [
        0.9974430203437805,
        0.9994570016860962
      ],
      "min": [
        0.00022600000374950469,
        0.002756000030785799
      ],
      "type": "VEC2"
    },
    {
      "bufferView": 0,
      "byteOffset": 3450672,
      "componentType": 5125,
      "count": 259677,
      "type": "SCALAR"
    },
    {
      "bufferView": 2,
      "byteOffset": 6192432,
      "componentType": 5126,
      "count": 22035,
      "max": [
        37.33702850341797,
        47.33056640625,
        40.42245101928711
      ],
      "min": [
        6.663841247558594,
        0.0,
        5.448102951049805
      ],
      "type": "VEC3"
    },
    {
      "bufferView": 2,
      "byteOffset": 6456852,
      "componentType": 5126,
      "count": 22035,
      "max": [
        0.9999939203262329,
        0.9997856020927429,
        0.9988230466842651
      ],
      "min": [
        -0.9998390674591064,
        -0.9997912645339966,
        -0.9999589920043945
      ],
      "type": "VEC3"
    },
    {
      "bufferView": 1,
      "byteOffset": 2064144,
      "componentType": 5126,
      "count": 22035,
      "max": [
        0.9928560256958008,
        0.999845027923584
      ],
      "min": [
        0.0005430000019259751,
        0.0037360000424087048
      ],
      "type": "VEC2"
    },
    {
      "bufferView": 0,
      "byteOffset": 4489380,
      "componentType": 5125,
      "count": 68946,
      "type": "SCALAR"
    }
  ],
  "asset": {
    "extras": {
      "author": "Nikitos & 3130 (https://sketchfab.com/vrcityphoto)",
      "license": "CC-BY-4.0 (http://creativecommons.org/licenses/by/4.0/)",
      "source": "https://sketchfab.com/3d-models/landscape-m3-bridge-architecture-free-fb8638a866d349b2b364cac100ff6c99",
      "title": "Landscape. M3.  Bridge. Architecture. Free"
    },
    "generator": "Sketchfab-12.68.0",
    "version": "2.0"
  },
  "bufferViews": [
    {
      "buffer": 0,
      "byteLength": 4765164,
      "name": "floatBufferViews",
      "target": 34963
    },
    {
      "buffer": 0,
      "byteLength": 2240424,
      "byteOffset": 4765164,
      "byteStride": 8,
      "name": "floatBufferViews",
      "target": 34962
    },
    {
      "buffer": 0,
      "byteLength": 6721272,
      "byteOffset": 7005588,
      "byteStride": 12,
      "name": "floatBufferViews",
      "target": 34962
    }
  ],
  "buffers": [
    {
      "byteLength": 13726860,
      "uri": "scene.bin"
    }
  ],
  "extensionsUsed": [
    "KHR_materials_unlit"
  ],
  "images": [
    {
      "uri": "textures/model_baseColor.jpeg"
    },
    {
      "uri": "textures/model1_baseColor.jpeg"
    }
  ],
  "materials": [
    {
      "doubleSided": true,
      "extensions": {
        "KHR_materials_unlit": {}
      },
      "name": "model",
      "pbrMetallicRoughness": {
        "baseColorTexture": {
          "index": 0
        },
        "metallicFactor": 0.0
      }
    },
    {
      "doubleSided": true,
      "extensions": {
        "KHR_materials_unlit": {}
      },
      "name": "model1",
      "pbrMetallicRoughness": {
        "baseColorTexture": {
          "index": 1
        },
        "metallicFactor": 0.0
      }
    }
  ],
  "meshes": [
    {
      "name": "Object_0",
      "primitives": [
        {
          "attributes": {
            "NORMAL": 1,
            "POSITION": 0,
            "TEXCOORD_0": 2
          },
          "indices": 3,
          "material": 0,
          "mode": 4
        }
      ]
    },
    {
      "name": "Object_1",
      "primitives": [
        {
          "attributes": {
            "NORMAL": 5,
            "POSITION": 4,
            "TEXCOORD_0": 6
          },
          "indices": 7,
          "material": 0,
          "mode": 4
        }
      ]
    },
    {
      "name": "Object_2",
      "primitives": [
        {
          "attributes": {
            "NORMAL": 9,
            "POSITION": 8,
            "TEXCOORD_0": 10
          },
          "indices": 11,
          "material": 1,
          "mode": 4
        }
      ]
    },
    {
      "name": "Object_3",
      "primitives": [
        {
          "attributes": {
            "NORMAL": 13,
            "POSITION": 12,
            "TEXCOORD_0": 14
          },
          "indices": 15,
          "material": 1,
          "mode": 4
        }
      ]
    },
    {
      "name": "Object_4",
      "primitives": [
        {
          "attributes": {
            "NORMAL": 17,
            "POSITION": 16,
            "TEXCOORD_0": 18
          },
          "indices": 19,
          "material": 1,
          "mode": 4
        }
      ]
    }
  ],
  "nodes": [
    {
      "children": [
        1
      ],
      "matrix": [
        1.0,
        0.0,
        0.0,
        0.0,
        0.0,
        -0.5792422294616701,
        0.8151555061340331,
        0.0,
        0.0,
        -0.8151555061340331,
        -0.5792422294616701,
        0.0,
        0.0,
        23.816761016845696,
        30.9198112487793,
        1.0
      ],
      "name": "Sketchfab_model"
    },
    {
      "children": [
        2
      ],
      "matrix": [
        1.0,
        0.0,
        0.0,
        0.0,
        0.0,
        1.0,
        0.0,
        0.0,
        0.0,
        0.0,
        1.0,
        0.0,
        -20.87930679321289,
        -35.968902587890625,
        -3.3691840171813965,
        1.0
      ],
      "name": "model.obj.cleaner.materialmerger.gles"
    },
    {
      "children": [
        3,
        4,
        5,
        6,
        7
      ],
      "name": "Object_2"
    },
    {
      "mesh": 0,
      "name": "Object_3"
    },
    {
      "mesh": 1,
      "name": "Object_4"
    },
    {
      "mesh": 2,
      "name": "Object_5"
    },
    {
      "mesh": 3,
      "name": "Object_6"
    },
    {
      "mesh": 4,
      "name": "Object_7"
    }
  ],
  "samplers": [
    {
      "magFilter": 9729,
      "minFilter": 9987,
      "wrapS": 10497,
      "wrapT": 10497
    }
  ],
  "scene": 0,
  "scenes": [
    {
      "name": "Sketchfab_Scene",
      "nodes": [
        0
      ]
    }
  ],
  "textures": [
    {
      "sampler": 0,
      "source": 0
    },
    {
      "sampler": 0,
      "source": 1
    }
  ]
}
