{
  "accessors": [
    {
      "bufferView": 2,
      "componentType": 5126,
      "count": 65532,
      "max": [
        96.40714263916016,
        95.35137176513672,
        93.51087951660156
      ],
      "min": [
        -96.40715026855469,
        -95.27145385742188,
        -95.90765380859375
      ],
      "type": "VEC3"
    },
    {
      "bufferView": 2,
      "byteOffset": 786384,
      "componentType": 5126,
      "count": 65532,
      "max": [
        0.9964670538902283,
        0.9999905228614807,
        0.9999812841415405
      ],
      "min": [
        -0.996468722820282,
        -0.9999904632568359,
        -0.9999811053276062
      ],
      "type": "VEC3"
    },
    {
      "bufferView": 1,
      "componentType": 5126,
      "count": 65532,
      "max": [
        1.0,
        1.0
      ],
      "min": [
        0.0,
        0.0
      ],
      "type": "VEC2"
    },
    {
      "bufferView": 0,
      "componentType": 5125,
      "count": 98298,
      "type": "SCALAR"
    },
    {
      "bufferView": 2,
      "byteOffset": 1572768,
      "componentType": 5126,
      "count": 65532,
      "max": [
        96.40693664550781,
        70.30091094970703,
        71.95112609863281
      ],
      "min": [
        -96.40711212158203,
        -72.74820709228516,
        -72.65068817138672
      ],
      "type": "VEC3"
    },
    {
      "bufferView": 2,
      "byteOffset": 2359152,
      "componentType": 5126,
      "count": 65532,
      "max": [
        0.9989647269248962,
        0.9999648928642273,
        0.9999244809150696
      ],
      "min": [
        -0.9989663362503052,
        -0.9999648332595825,
        -0.9999242424964905
      ],
      "type": "VEC3"
    },
    {
      "bufferView": 1,
      "byteOffset": 524256,
      "componentType": 5126,
      "count": 65532,
      "max": [
        1.0,
        1.0
      ],
      "min": [
        0.0,
        0.0
      ],
      "type": "VEC2"
    },
    {
      "bufferView": 0,
      "byteOffset": 393192,
      "componentType": 5125,
      "count": 98298,
      "type": "SCALAR"
    },
    {
      "bufferView": 2,
      "byteOffset": 3145536,
      "componentType": 5126,
      "count": 65532,
      "max": [
        96.40704345703125,
        54.255218505859375,
        55.07741165161133
      ],
      "min": [
        -96.40705108642578,
        -55.247894287109375,
        -54.7332649230957
      ],
      "type": "VEC3"
    },
    {
      "bufferView": 2,
      "byteOffset": 3931920,
      "componentType": 5126,
      "count": 65532,
      "max": [
        0.9968968033790588,
        0.9999119639396667,
        0.9999203681945801
      ],
      "min": [
        -0.9969016313552856,
        -0.9999119639396667,
        -0.9999203085899353
      ],
      "type": "VEC3"
    },
    {
      "bufferView": 1,
      "byteOffset": 1048512,
      "componentType": 5126,
      "count": 65532,
      "max": [
        1.0,
        1.0
      ],
      "min": [
        0.0,
        0.0
      ],
      "type": "VEC2"
    },
    {
      "bufferView": 0,
      "byteOffset": 786384,
      "componentType": 5125,
      "count": 98298,
      "type": "SCALAR"
    },
    {
      "bufferView": 2,
      "byteOffset": 4718304,
      "componentType": 5126,
      "count": 65532,
      "max": [
        96.39608764648438,
        41.671791076660156,
        41.96760940551758
      ],
      "min": [
        -96.40686798095703,
        -41.7447395324707,
        -40.86469650268555
      ],
      "type": "VEC3"
    },
    {
      "bufferView": 2,
      "byteOffset": 5504688,
      "componentType": 5126,
      "count": 65532,
      "max": [
        0.9935594797134399,
        0.9999901056289673,
        0.9999800324440002
      ],
      "min": [
        -0.9935495853424072,
        -0.9999900460243225,
        -0.9999801516532898
      ],
      "type": "VEC3"
    },
    {
      "bufferView": 1,
      "byteOffset": 1572768,
      "componentType": 5126,
      "count": 65532,
      "max": [
        1.0,
        1.0
      ],
      "min": [
        0.0,
        0.0
      ],
      "type": "VEC2"
    },
    {
      "bufferView": 0,
      "byteOffset": 1179576,
      "componentType": 5125,
      "count": 98298,
      "type": "SCALAR"
    },
    {
      "bufferView": 2,
      "byteOffset": 6291072,
      "componentType": 5126,
      "count": 65532,
      "max": [
        96.38887786865234,
        10.414013862609863,
        10.587878227233887
      ],
      "min": [
        -96.38933563232422,
        -10.63388729095459,
        -10.563660621643066
      ],
      "type": "VEC3"
    },
    {
      "bufferView": 2,
      "byteOffset": 7077456,
      "componentType": 5126,
      "count": 65532,
      "max": [
        0.8118090629577637,
        0.9759531617164612,
        0.9658631086349487
      ],
      "min": [
        -0.8142315745353699,
        -0.9759531021118164,
        -0.9659934043884277
      ],
      "type": "VEC3"
    },
    {
      "bufferView": 1,
      "byteOffset": 2097024,
      "componentType": 5126,
      "count": 65532,
      "max": [
        1.0,
        1.0
      ],
      "min": [
        0.0,
        0.0
      ],
      "type": "VEC2"
    },
    {
      "bufferView": 0,
      "byteOffset": 1572768,
      "componentType": 5125,
      "count": 98298,
      "type": "SCALAR"
    },
    {
      "bufferView": 2,
      "byteOffset": 7863840,
      "componentType": 5126,
      "count": 65532,
      "max": [
        96.37679290771484,
        8.023757934570313,
        8.0947847366333
      ],
      "min": [
        -96.37686157226563,
        -8.075494766235352,
        -7.95112419128418
      ],
      "type": "VEC3"
    },
    {
      "bufferView": 2,
      "byteOffset": 8650224,
      "componentType": 5126,
      "count": 65532,
      "max": [
        0.8942678570747375,
        0.9055994153022766,
        0.903916597366333
      ],
      "min": [
        -0.894253134727478,
        -0.9053930640220642,
        -0.9039167761802673
      ],
      "type": "VEC3"
    },
    {
      "bufferView": 1,
      "byteOffset": 2621280,
      "componentType": 5126,
      "count": 65532,
      "max": [
        1.0,
        1.0
      ],
      "min": [
        0.0,
        0.0
      ],
      "type": "VEC2"
    },
    {
      "bufferView": 0,
      "byteOffset": 1965960,
      "componentType": 5125,
      "count": 98298,
      "type": "SCALAR"
    },
    {
      "bufferView": 2,
      "byteOffset": 9436608,
      "componentType": 5126,
      "count": 65532,
      "max": [
        96.37276458740234,
        7.274529933929443,
        7.139405250549316
      ],
      "min": [
        -96.37358856201172,
        -7.269372463226318,
        -7.314560413360596
      ],
      "type": "VEC3"
    },
    {
      "bufferView": 2,
      "byteOffset": 10222992,
      "componentType": 5126,
      "count": 65532,
      "max": [
        0.8767504692077637,
        0.8966805338859558,
        0.8832084536552429
      ],
      "min": [
        -0.8751968741416931,
        -0.8968250155448914,
        -0.8832082152366638
      ],
      "type": "VEC3"
    },
    {
      "bufferView": 1,
      "byteOffset": 3145536,
      "componentType": 5126,
      "count": 65532,
      "max": [
        1.0,
        1.0
      ],
      "min": [
        0.0,
        0.0
      ],
      "type": "VEC2"
    },
    {
      "bufferView": 0,
      "byteOffset": 2359152,
      "componentType": 5125,
      "count": 98298,
      "type": "SCALAR"
    },
    {
      "bufferView": 2,
      "byteOffset": 11009376,
      "componentType": 5126,
      "count": 65532,
      "max": [
        96.39999389648438,
        16.49714469909668,
        16.60110092163086
      ],
      "min": [
        -96.40166473388672,
        -16.494140625,
        -16.2251033782959
      ],
      "type": "VEC3"
    },
    {
      "bufferView": 2,
      "byteOffset": 11795760,
      "componentType": 5126,
      "count": 65532,
      "max": [
        0.8293946981430054,
        0.9987431168556213,
        0.9999563694000244
      ],
      "min": [
        -0.8294769525527954,
        -0.9987432360649109,
        -0.9999564290046692
      ],
      "type": "VEC3"
    },
    {
      "bufferView": 1,
      "byteOffset": 3669792,
      "componentType": 5126,
      "count": 65532,
      "max": [
        1.0,
        1.0
      ],
      "min": [
        0.0,
        0.0
      ],
      "type": "VEC2"
    },
    {
      "bufferView": 0,
      "byteOffset": 2752344,
      "componentType": 5125,
      "count": 98298,
      "type": "SCALAR"
    },
    {
      "bufferView": 2,
      "byteOffset": 12582144,
      "componentType": 5126,
      "count": 65532,
      "max": [
        96.39928436279297,
        21.496994018554688,
        21.801677703857422
      ],
      "min": [
        -96.40484619140625,
        -21.831592559814453,
        -21.58240509033203
      ],
      "type": "VEC3"
    },
    {
      "bufferView": 2,
      "byteOffset": 13368528,
      "componentType": 5126,
      "count": 65532,
      "max": [
        0.9690613150596619,
        0.9995699524879456,
        0.9999822974205017
      ],
      "min": [
        -0.9691537022590637,
        -0.9995699524879456,
        -0.9999822378158569
      ],
      "type": "VEC3"
    },
    {
      "bufferView": 1,
      "byteOffset": 4194048,
      "componentType": 5126,
      "count": 65532,
      "max": [
        1.0,
        1.0
      ],
      "min": [
        0.0,
        0.0
      ],
      "type": "VEC2"
    },
    {
      "bufferView": 0,
      "byteOffset": 3145536,
      "componentType": 5125,
      "count": 98298,
      "type": "SCALAR"
    },
    {
      "bufferView": 2,
      "byteOffset": 14154912,
      "componentType": 5126,
      "count": 65532,
      "max": [
        96.39996337890625,
        27.878633499145508,
        28.49307632446289
      ],
      "min": [
        -96.40621185302734,
        -28.753713607788086,
        -28.655977249145508
      ],
      "type": "VEC3"
    },
    {
      "bufferView": 2,
      "byteOffset": 14941296,
      "componentType": 5126,
      "count": 65532,
      "max": [
        0.9816198348999023,
        0.9999721050262451,
        0.9999725222587585
      ],
      "min": [
        -0.9816911220550537,
        -0.9999722242355347,
        -0.9999724626541138
      ],
      "type": "VEC3"
    },
    {
      "bufferView": 1,
      "byteOffset": 4718304,
      "componentType": 5126,
      "count": 65532,
      "max": [
        1.0,
        1.0
      ],
      "min": [
        0.0,
        0.0
      ],
      "type": "VEC2"
    },
    {
      "bufferView": 0,
      "byteOffset": 3538728,
      "componentType": 5125,
      "count": 98298,
      "type": "SCALAR"
    },
    {
      "bufferView": 2,
      "byteOffset": 15727680,
      "componentType": 5126,
      "count": 65532,
      "max": [
        96.40652465820313,
        37.54331588745117,
        37.070953369140625
      ],
      "min": [
        -96.4067611694336,
        -37.68845748901367,
        -37.84856033325195
      ],
      "type": "VEC3"
    },
    {
      "bufferView": 2,
      "byteOffset": 16514064,
      "componentType": 5126,
      "count": 65532,
      "max": [
        0.9255138635635376,
        0.9999883770942688,
        0.9999613761901855
      ],
      "min": [
        -0.9255071878433228,
        -0.9999883770942688,
        -0.999961256980896
      ],
      "type": "VEC3"
    },
    {
      "bufferView": 1,
      "byteOffset": 5242560,
      "componentType": 5126,
      "count": 65532,
      "max": [
        1.0,
        1.0
      ],
      "min": [
        0.0,
        0.0
      ],
      "type": "VEC2"
    },
    {
      "bufferView": 0,
      "byteOffset": 3931920,
      "componentType": 5125,
      "count": 98298,
      "type": "SCALAR"
    },
    {
      "bufferView": 2,
      "byteOffset": 17300448,
      "componentType": 5126,
      "count": 5964,
      "max": [
        96.39774322509766,
        38.982749938964844,
        39.18683624267578
      ],
      "min": [
        -96.40679168701172,
        -37.145442962646484,
        -38.30087661743164
      ],
      "type": "VEC3"
    },
    {
      "bufferView": 2,
      "byteOffset": 17372016,
      "componentType": 5126,
      "count": 5964,
      "max": [
        0.9469694495201111,
        0.9956178069114685,
        0.9998733997344971
      ],
      "min": [
        -0.9469612836837769,
        -0.9956176280975342,
        -0.9998753070831299
      ],
      "type": "VEC3"
    },
    {
      "bufferView": 1,
      "byteOffset": 5766816,
      "componentType": 5126,
      "count": 5964,
      "max": [
        1.0,
        1.0
      ],
      "min": [
        0.0,
        0.0
      ],
      "type": "VEC2"
    },
    {
      "bufferView": 0,
      "byteOffset": 4325112,
      "componentType": 5125,
      "count": 8946,
      "type": "SCALAR"
    }
  ],
  "asset": {
    "extras": {
      "author": "Rintaro Akamine (https://sketchfab.com/redpeak)",
      "license": "CC-BY-4.0 (http://creativecommons.org/licenses/by/4.0/)",
      "source": "https://sketchfab.com/3d-models/fibonacci-sphere-a2fb905713944253a93ed36f5903d617",
      "title": "Fibonacci Sphere"
    },
    "generator": "Sketchfab-12.68.0",
    "version": "2.0"
  },
  "bufferViews": [
    {
      "buffer": 0,
      "byteLength": 4360896,
      "name": "floatBufferViews",
      "target": 34963
    },
    {
      "buffer": 0,
      "byteLength": 5814528,
      "byteOffset": 4360896,
      "byteStride": 8,
      "name": "floatBufferViews",
      "target": 34962
    },
    {
      "buffer": 0,
      "byteLength": 17443584,
      "byteOffset": 10175424,
      "byteStride": 12,
      "name": "floatBufferViews",
      "target": 34962
    }
  ],
  "buffers": [
    {
      "byteLength": 27619008,
      "uri": "scene.bin"
    }
  ],
  "materials": [
    {
      "doubleSided": true,
      "name": "Scene_-_Root",
      "pbrMetallicRoughness": {
        "roughnessFactor": 0.6
      }
    }
  ],
  "meshes": [
    {
      "name": "geo1__0",
      "primitives": [
        {
          "attributes": {
            "NORMAL": 1,
            "POSITION": 0,
            "TEXCOORD_0": 2
          },
          "indices": 3,
          "material": 0,
          "mode": 4
        }
      ]
    },
    {
      "name": "geo1__0",
      "primitives": [
        {
          "attributes": {
            "NORMAL": 5,
            "POSITION": 4,
            "TEXCOORD_0": 6
          },
          "indices": 7,
          "material": 0,
          "mode": 4
        }
      ]
    },
    {
      "name": "geo1__0",
      "primitives": [
        {
          "attributes": {
            "NORMAL": 9,
            "POSITION": 8,
            "TEXCOORD_0": 10
          },
          "indices": 11,
          "material": 0,
          "mode": 4
        }
      ]
    },
    {
      "name": "geo1__0",
      "primitives": [
        {
          "attributes": {
            "NORMAL": 13,
            "POSITION": 12,
            "TEXCOORD_0": 14
          },
          "indices": 15,
          "material": 0,
          "mode": 4
        }
      ]
    },
    {
      "name": "geo1__0",
      "primitives": [
        {
          "attributes": {
            "NORMAL": 17,
            "POSITION": 16,
            "TEXCOORD_0": 18
          },
          "indices": 19,
          "material": 0,
          "mode": 4
        }
      ]
    },
    {
      "name": "geo1__0",
      "primitives": [
        {
          "attributes": {
            "NORMAL": 21,
            "POSITION": 20,
            "TEXCOORD_0": 22
          },
          "indices": 23,
          "material": 0,
          "mode": 4
        }
      ]
    },
    {
      "name": "geo1__0",
      "primitives": [
        {
          "attributes": {
            "NORMAL": 25,
            "POSITION": 24,
            "TEXCOORD_0": 26
          },
          "indices": 27,
          "material": 0,
          "mode": 4
        }
      ]
    },
    {
      "name": "geo1__0",
      "primitives": [
        {
          "attributes": {
            "NORMAL": 29,
            "POSITION": 28,
            "TEXCOORD_0": 30
          },
          "indices": 31,
          "material": 0,
          "mode": 4
        }
      ]
    },
    {
      "name": "geo1__0",
      "primitives": [
        {
          "attributes": {
            "NORMAL": 33,
            "POSITION": 32,
            "TEXCOORD_0": 34
          },
          "indices": 35,
          "material": 0,
          "mode": 4
        }
      ]
    },
    {
      "name": "geo1__0",
      "primitives": [
        {
          "attributes": {
            "NORMAL": 37,
            "POSITION": 36,
            "TEXCOORD_0": 38
          },
          "indices": 39,
          "material": 0,
          "mode": 4
        }
      ]
    },
    {
      "name": "geo1__0",
      "primitives": [
        {
          "attributes": {
            "NORMAL": 41,
            "POSITION": 40,
            "TEXCOORD_0": 42
          },
          "indices": 43,
          "material": 0,
          "mode": 4
        }
      ]
    },
    {
      "name": "geo1__0",
      "primitives": [
        {
          "attributes": {
            "NORMAL": 45,
            "POSITION": 44,
            "TEXCOORD_0": 46
          },
          "indices": 47,
          "material": 0,
          "mode": 4
        }
      ]
    }
  ],
  "nodes": [
    {
      "children": [
        1
      ],
      "matrix": [
        0.8236491680145264,
        0.5670996308326721,
        1.2592141348137178e-16,
        0.0,
        0.0,
        2.220446049250313e-16,
        -1.0,
        0.0,
        -0.5670996308326721,
        0.8236491680145264,
        1.8288685410861624e-16,
        0.0,
        0.022599028423428535,
        0.0070086331106722355,
        1.5562291701237098e-18,
        1.0
      ],
      "name": "Sketchfab_model"
    },
    {
      "children": [
        2
      ],
      "matrix": [
        1.0,
        0.0,
        0.0,
        0.0,
        0.0,
        0.0,
        1.0,
        0.0,
        0.0,
        -1.0,
        0.0,
        0.0,
        0.0,
        0.0,
        0.0,
        1.0
      ],
      "name": "80204accb8a64341854f1173be816dfc.fbx"
    },
    {
      "children": [
        3,
        16,
        18
      ],
      "name": "RootNode"
    },
    {
      "children": [
        4,
        5,
        6,
        7,
        8,
        9,
        10,
        11,
        12,
        13,
        14,
        15
      ],
      "name": "geo1"
    },
    {
      "mesh": 0,
      "name": "geo1__0"
    },
    {
      "mesh": 1,
      "name": "geo1__0"
    },
    {
      "mesh": 2,
      "name": "geo1__0"
    },
    {
      "mesh": 3,
      "name": "geo1__0"
    },
    {
      "mesh": 4,
      "name": "geo1__0"
    },
    {
      "mesh": 5,
      "name": "geo1__0"
    },
    {
      "mesh": 6,
      "name": "geo1__0"
    },
    {
      "mesh": 7,
      "name": "geo1__0"
    },
    {
      "mesh": 8,
      "name": "geo1__0"
    },
    {
      "mesh": 9,
      "name": "geo1__0"
    },
    {
      "mesh": 10,
      "name": "geo1__0"
    },
    {
      "mesh": 11,
      "name": "geo1__0"
    },
    {
      "children": [
        17
      ],
      "matrix": [
        2.220446049250313e-16,
        0.0,
        -1.0,
        0.0,
        0.0,
        1.0,
        0.0,
        0.0,
        1.0,
        0.0,
        2.220446049250313e-16,
        0.0,
        0.0,
        -1094.1134033203125,
        1.2320753335952759,
        1.0
      ],
      "name": "cam1"
    },
    {
      "name": "Object_17"
    },
    {
      "children": [
        19
      ],
      "matrix": [
        -1.0,
        1.224646799147353e-16,
        -1.2246467991473535e-16,
        0.0,
        1.224646799147353e-16,
        1.0,
        1.224646799147353e-16,
        0.0,
        1.2246467991473535e-16,
        1.224646799147353e-16,
        -1.0,
        0.0,
        350850.5,
        0.0,
        0.0,
        1.0
      ],
      "name": "cam2"
    },
    {
      "name": "Object_19"
    }
  ],
  "scene": 0,
  "scenes": [
    {
      "name": "Sketchfab_Scene",
      "nodes": [
        0
      ]
    }
  ]
}
