{
  "accessors": [
    {
      "bufferView": 2,
      "componentType": 5126,
      "count": 39427,
      "max": [
        9.633261680603027,
        7.111440181732178,
        8.101749420166016
      ],
      "min": [
        -9.633261680603027,
        -7.111440181732178,
        -8.101749420166016
      ],
      "type": "VEC3"
    },
    {
      "bufferView": 2,
      "byteOffset": 473124,
      "componentType": 5126,
      "count": 39427,
      "max": [
        0.9999926090240479,
        0.9999635219573975,
        0.9999979734420776
      ],
      "min": [
        -0.9853002429008484,
        -0.9910860061645508,
        -0.9972123503684998
      ],
      "type": "VEC3"
    },
    {
      "bufferView": 1,
      "componentType": 5126,
      "count": 39427,
      "max": [
        0.9965819716453552,
        1.0000580549240112
      ],
      "min": [
        0.0039059999398887157,
        0.00318100000731647
      ],
      "type": "VEC2"
    },
    {
      "bufferView": 0,
      "componentType": 5125,
      "count": 211212,
      "type": "SCALAR"
    }
  ],
  "asset": {
    "extras": {
      "author": "Mark Burginger architect (https://sketchfab.com/toy_meister)",
      "license": "CC-BY-NC-4.0 (http://creativecommons.org/licenses/by-nc/4.0/)",
      "source": "https://sketchfab.com/3d-models/el-capitan-ec8286fe454a4912805fbc2d80e3e739",
      "title": "El Capitan"
    },
    "generator": "Sketchfab-12.67.0",
    "version": "2.0"
  },
  "bufferViews": [
    {
      "buffer": 0,
      "byteLength": 844848,
      "name": "floatBufferViews",
      "target": 34963
    },
    {
      "buffer": 0,
      "byteLength": 315416,
      "byteOffset": 844848,
      "byteStride": 8,
      "name": "floatBufferViews",
      "target": 34962
    },
    {
      "buffer": 0,
      "byteLength": 946248,
      "byteOffset": 1160264,
      "byteStride": 12,
      "name": "floatBufferViews",
      "target": 34962
    }
  ],
  "buffers": [
    {
      "byteLength": 2106512,
      "uri": "scene.bin"
    }
  ],
  "images": [
    {
      "uri": "textures/model_baseColor.jpeg"
    }
  ],
  "materials": [
    {
      "doubleSided": true,
      "name": "model",
      "pbrMetallicRoughness": {
        "baseColorTexture": {
          "index": 0
        },
        "metallicFactor": 0.0
      }
    }
  ],
  "meshes": [
    {
      "name": "Object_0",
      "primitives": [
        {
          "attributes": {
            "NORMAL": 1,
            "POSITION": 0,
            "TEXCOORD_0": 2
          },
          "indices": 3,
          "material": 0,
          "mode": 4
        }
      ]
    }
  ],
  "nodes": [
    {
      "children": [
        1
      ],
      "matrix": [
        0.08001689949595603,
        -7.646201386646194e-06,
        0.002548254874604111,
        0.0,
        0.0011103282821007185,
        0.0721626270488094,
        -0.03464851713530724,
        0.0,
        -0.0022936505897461212,
        0.03466630400763891,
        0.07212617052174998,
        0.0,
        1.7777132654828165e-07,
        4.4791090658691255e-06,
        -4.0521431401430155e-06,
        1.0
      ],
      "name": "Sketchfab_model"
    },
    {
      "children": [
        2
      ],
      "name": "model.obj.cleaner.materialmerger.gles"
    },
    {
      "mesh": 0,
      "name": "Object_2"
    }
  ],
  "samplers": [
    {
      "magFilter": 9729,
      "minFilter": 9987,
      "wrapS": 10497,
      "wrapT": 10497
    }
  ],
  "scene": 0,
  "scenes": [
    {
      "name": "Sketchfab_Scene",
      "nodes": [
        0
      ]
    }
  ],
  "textures": [
    {
      "sampler": 0,
      "source": 0
    }
  ]
}
