{
  "accessors": [
    {
      "bufferView": 3,
      "componentType": 5126,
      "count": 1252,
      "max": [
        -6.130624294281006,
        0.26269033551216125,
        0.2626904249191284
      ],
      "min": [
        -7.636806488037109,
        -0.26269033551216125,
        -0.26269033551216125
      ],
      "type": "VEC3"
    },
    {
      "bufferView": 3,
      "byteOffset": 15024,
      "componentType": 5126,
      "count": 1252,
      "max": [
        1.0,
        1.0,
        1.0
      ],
      "min": [
        -1.0,
        -1.0,
        -1.0
      ],
      "type": "VEC3"
    },
    {
      "bufferView": 2,
      "componentType": 5126,
      "count": 1252,
      "max": [
        0.5232107639312744,
        0.5949809551239014
      ],
      "min": [
        0.2736142873764038,
        0.367120623588562
      ],
      "type": "VEC2"
    },
    {
      "bufferView": 2,
      "byteOffset": 10016,
      "componentType": 5126,
      "count": 1252,
      "max": [
        1.4374998807907104,
        1.0
      ],
      "min": [
        0.0,
        0.0
      ],
      "type": "VEC2"
    },
    {
      "bufferView": 1,
      "componentType": 5125,
      "count": 5760,
      "type": "SCALAR"
    },
    {
      "bufferView": 3,
      "byteOffset": 30048,
      "componentType": 5126,
      "count": 626,
      "max": [
        3.1917099952697754,
        2.210904359817505,
        2.210905075073242
      ],
      "min": [
        -1.2300992012023926,
        -2.210904359817505,
        -2.210904359817505
      ],
      "type": "VEC3"
    },
    {
      "bufferView": 3,
      "byteOffset": 37560,
      "componentType": 5126,
      "count": 626,
      "max": [
        1.0,
        1.0,
        1.0
      ],
      "min": [
        -1.0,
        -1.0,
        -1.0
      ],
      "type": "VEC3"
    },
    {
      "bufferView": 2,
      "byteOffset": 20032,
      "componentType": 5126,
      "count": 626,
      "max": [
        0.9891907572746277,
        0.9980851411819458
      ],
      "min": [
        0.002889588475227356,
        0.8137375116348267
      ],
      "type": "VEC2"
    },
    {
      "bufferView": 2,
      "byteOffset": 25040,
      "componentType": 5126,
      "count": 626,
      "max": [
        1.4374998807907104,
        1.0
      ],
      "min": [
        0.0,
        0.0
      ],
      "type": "VEC2"
    },
    {
      "bufferView": 1,
      "byteOffset": 23040,
      "componentType": 5125,
      "count": 2880,
      "type": "SCALAR"
    },
    {
      "bufferView": 3,
      "byteOffset": 45072,
      "componentType": 5126,
      "count": 627,
      "max": [
        13.911661148071289,
        13.91165828704834,
        13.911663055419922
      ],
      "min": [
        -13.91165542602539,
        -13.91165828704834,
        -13.911659240722656
      ],
      "type": "VEC3"
    },
    {
      "bufferView": 3,
      "byteOffset": 52596,
      "componentType": 5126,
      "count": 627,
      "max": [
        1.0,
        1.0,
        1.0
      ],
      "min": [
        -1.0,
        -1.0,
        -1.0
      ],
      "type": "VEC3"
    },
    {
      "bufferView": 2,
      "byteOffset": 30048,
      "componentType": 5126,
      "count": 627,
      "max": [
        0.9990191459655762,
        0.9317370653152466
      ],
      "min": [
        0.0009808109607547522,
        0.0012893860694020987
      ],
      "type": "VEC2"
    },
    {
      "bufferView": 2,
      "byteOffset": 35064,
      "componentType": 5126,
      "count": 627,
      "max": [
        1.4374998807907104,
        1.0
      ],
      "min": [
        0.0,
        0.0
      ],
      "type": "VEC2"
    },
    {
      "bufferView": 1,
      "byteOffset": 34560,
      "componentType": 5125,
      "count": 2880,
      "type": "SCALAR"
    },
    {
      "bufferView": 5,
      "componentType": 5126,
      "count": 10,
      "max": [
        100.0,
        0.0,
        0.0,
        0.0,
        0.0,
        100.0,
        0.0,
        0.0,
        0.0,
        0.0,
        100.0,
        0.0,
        7.485776901245117,
        5.960464477539063e-08,
        0.0,
        1.0
      ],
      "min": [
        1.0,
        0.0,
        0.0,
        0.0,
        0.0,
        1.0,
        0.0,
        0.0,
        0.0,
        0.0,
        1.0,
        0.0,
        -0.980804443359375,
        0.0,
        -6.135648618510459e-06,
        1.0
      ],
      "type": "MAT4"
    },
    {
      "bufferView": 0,
      "componentType": 5123,
      "count": 1252,
      "type": "VEC4"
    },
    {
      "bufferView": 4,
      "componentType": 5126,
      "count": 1252,
      "max": [
        1.0,
        0.0,
        0.0,
        0.0
      ],
      "min": [
        1.0,
        0.0,
        0.0,
        0.0
      ],
      "type": "VEC4"
    },
    {
      "bufferView": 0,
      "byteOffset": 10016,
      "componentType": 5123,
      "count": 626,
      "type": "VEC4"
    },
    {
      "bufferView": 4,
      "byteOffset": 20032,
      "componentType": 5126,
      "count": 626,
      "max": [
        1.0,
        0.0,
        0.0,
        0.0
      ],
      "min": [
        1.0,
        0.0,
        0.0,
        0.0
      ],
      "type": "VEC4"
    },
    {
      "bufferView": 0,
      "byteOffset": 15024,
      "componentType": 5123,
      "count": 627,
      "type": "VEC4"
    },
    {
      "bufferView": 4,
      "byteOffset": 30048,
      "componentType": 5126,
      "count": 627,
      "max": [
        1.0,
        0.0,
        0.0,
        0.0
      ],
      "min": [
        1.0,
        0.0,
        0.0,
        0.0
      ],
      "type": "VEC4"
    },
    {
      "bufferView": 6,
      "componentType": 5126,
      "count": 1564,
      "max": [
        33.33333206176758
      ],
      "min": [
        0.0
      ],
      "type": "SCALAR"
    },
    {
      "bufferView": 8,
      "componentType": 5126,
      "count": 1564,
      "max": [
        0.7071068286895752,
        0.7071068286895752,
        0.7071067094802856,
        0.7071067094802856
      ],
      "min": [
        -0.4992920160293579,
        -0.5000000596046448,
        -0.4999999701976776,
        -0.49929195642471313
      ],
      "type": "VEC4"
    },
    {
      "bufferView": 6,
      "byteOffset": 6256,
      "componentType": 5126,
      "count": 1564,
      "max": [
        33.33333206176758
      ],
      "min": [
        0.0
      ],
      "type": "SCALAR"
    },
    {
      "bufferView": 8,
      "byteOffset": 25024,
      "componentType": 5126,
      "count": 1564,
      "max": [
        0.7071068286895752,
        0.7071068286895752,
        0.7071067094802856,
        0.7071067094802856
      ],
      "min": [
        -0.49858230352401733,
        -0.49999991059303284,
        -0.4999998211860657,
        -0.49858221411705017
      ],
      "type": "VEC4"
    },
    {
      "bufferView": 6,
      "byteOffset": 12512,
      "componentType": 5126,
      "count": 225,
      "max": [
        33.33333206176758
      ],
      "min": [
        0.0
      ],
      "type": "SCALAR"
    },
    {
      "bufferView": 7,
      "componentType": 5126,
      "count": 225,
      "max": [
        -1.0924615859985352,
        -0.6303170323371887,
        -4.924686436424963e-08
      ],
      "min": [
        -1.0924615859985352,
        -0.6303170323371887,
        -4.9247205424762797e-08
      ],
      "type": "VEC3"
    },
    {
      "bufferView": 6,
      "byteOffset": 13412,
      "componentType": 5126,
      "count": 1001,
      "max": [
        33.33333206176758
      ],
      "min": [
        0.0
      ],
      "type": "SCALAR"
    },
    {
      "bufferView": 8,
      "byteOffset": 50048,
      "componentType": 5126,
      "count": 1001,
      "max": [
        7.940933880509066e-23,
        1.3877787807814457e-16,
        5.293955920339377e-23,
        1.0
      ],
      "min": [
        -1.0587911840678754e-22,
        -1.3877787807814457e-16,
        -6.617444900424221e-23,
        1.0
      ],
      "type": "VEC4"
    },
    {
      "bufferView": 6,
      "byteOffset": 17416,
      "componentType": 5126,
      "count": 1353,
      "max": [
        33.33333206176758
      ],
      "min": [
        0.0
      ],
      "type": "SCALAR"
    },
    {
      "bufferView": 7,
      "byteOffset": 2700,
      "componentType": 5126,
      "count": 1353,
      "max": [
        3.1175062531474396e-13,
        0.630316972732544,
        1.1368683772161603e-13
      ],
      "min": [
        0.0,
        0.630316972732544,
        0.0
      ],
      "type": "VEC3"
    },
    {
      "bufferView": 6,
      "byteOffset": 22828,
      "componentType": 5126,
      "count": 1372,
      "max": [
        33.33333206176758
      ],
      "min": [
        0.0
      ],
      "type": "SCALAR"
    },
    {
      "bufferView": 8,
      "byteOffset": 66064,
      "componentType": 5126,
      "count": 1372,
      "max": [
        8.6594911202551e-17,
        1.0,
        8.659283332485227e-17,
        1.0
      ],
      "min": [
        -8.659283332485227e-17,
        -0.8641754388809204,
        -8.6594911202551e-17,
        -0.4967329502105713
      ],
      "type": "VEC4"
    },
    {
      "bufferView": 6,
      "byteOffset": 28316,
      "componentType": 5126,
      "count": 8,
      "max": [
        33.33333206176758
      ],
      "min": [
        0.0
      ],
      "type": "SCALAR"
    },
    {
      "bufferView": 7,
      "byteOffset": 18936,
      "componentType": 5126,
      "count": 8,
      "max": [
        -7.374119281768799,
        -1.983805537223816,
        -8.592472795498907e-07
      ],
      "min": [
        -7.374119758605957,
        -1.983805537223816,
        -8.592473932367284e-07
      ],
      "type": "VEC3"
    },
    {
      "bufferView": 6,
      "byteOffset": 28348,
      "componentType": 5126,
      "count": 1001,
      "max": [
        33.33333206176758
      ],
      "min": [
        0.0
      ],
      "type": "SCALAR"
    },
    {
      "bufferView": 8,
      "byteOffset": 88016,
      "componentType": 5126,
      "count": 1001,
      "max": [
        7.940933880509066e-23,
        1.6653345369377348e-16,
        3.970466940254533e-23,
        1.0
      ],
      "min": [
        -5.293955920339377e-23,
        -1.6653345369377348e-16,
        -3.970466940254533e-23,
        1.0
      ],
      "type": "VEC4"
    },
    {
      "bufferView": 6,
      "byteOffset": 32352,
      "componentType": 5126,
      "count": 1485,
      "max": [
        33.33333206176758
      ],
      "min": [
        0.0
      ],
      "type": "SCALAR"
    },
    {
      "bufferView": 8,
      "byteOffset": 104032,
      "componentType": 5126,
      "count": 1485,
      "max": [
        0.7071068286895752,
        0.7071068286895752,
        0.7071067094802856,
        0.7071067094802856
      ],
      "min": [
        -0.5,
        -0.49899908900260925,
        -0.4989990293979645,
        -0.4999999403953552
      ],
      "type": "VEC4"
    }
  ],
  "animations": [
    {
      "channels": [
        {
          "sampler": 0,
          "target": {
            "node": 7,
            "path": "rotation"
          }
        },
        {
          "sampler": 1,
          "target": {
            "node": 9,
            "path": "rotation"
          }
        },
        {
          "sampler": 2,
          "target": {
            "node": 14,
            "path": "translation"
          }
        },
        {
          "sampler": 3,
          "target": {
            "node": 14,
            "path": "rotation"
          }
        },
        {
          "sampler": 4,
          "target": {
            "node": 13,
            "path": "translation"
          }
        },
        {
          "sampler": 5,
          "target": {
            "node": 13,
            "path": "rotation"
          }
        },
        {
          "sampler": 6,
          "target": {
            "node": 12,
            "path": "translation"
          }
        },
        {
          "sampler": 7,
          "target": {
            "node": 12,
            "path": "rotation"
          }
        },
        {
          "sampler": 8,
          "target": {
            "node": 11,
            "path": "rotation"
          }
        }
      ],
      "name": "Armature|SpaceAction",
      "samplers": [
        {
          "input": 22,
          "interpolation": "LINEAR",
          "output": 23
        },
        {
          "input": 24,
          "interpolation": "LINEAR",
          "output": 25
        },
        {
          "input": 26,
          "interpolation": "LINEAR",
          "output": 27
        },
        {
          "input": 28,
          "interpolation": "LINEAR",
          "output": 29
        },
        {
          "input": 30,
          "interpolation": "LINEAR",
          "output": 31
        },
        {
          "input": 32,
          "interpolation": "LINEAR",
          "output": 33
        },
        {
          "input": 34,
          "interpolation": "LINEAR",
          "output": 35
        },
        {
          "input": 36,
          "interpolation": "LINEAR",
          "output": 37
        },
        {
          "input": 38,
          "interpolation": "LINEAR",
          "output": 39
        }
      ]
    }
  ],
  "asset": {
    "extras": {
      "author": "Blender3D (https://sketchfab.com/Blender3D)",
      "license": "CC-BY-4.0 (http://creativecommons.org/licenses/by/4.0/)",
      "source": "https://sketchfab.com/3d-models/fake-space-d165714f85d14c5b9bc3da8c43d5f89f",
      "title": "Fake Space"
    },
    "generator": "Sketchfab-12.66.0",
    "version": "2.0"
  },
  "bufferViews": [
    {
      "buffer": 0,
      "byteLength": 20040,
      "byteStride": 8,
      "name": "shortBufferViews",
      "target": 34962
    },
    {
      "buffer": 0,
      "byteLength": 46080,
      "byteOffset": 20040,
      "name": "floatBufferViews",
      "target": 34963
    },
    {
      "buffer": 0,
      "byteLength": 40080,
      "byteOffset": 66120,
      "byteStride": 8,
      "name": "floatBufferViews",
      "target": 34962
    },
    {
      "buffer": 0,
      "byteLength": 60120,
      "byteOffset": 106200,
      "byteStride": 12,
      "name": "floatBufferViews",
      "target": 34962
    },
    {
      "buffer": 0,
      "byteLength": 40080,
      "byteOffset": 166320,
      "byteStride": 16,
      "name": "floatBufferViews",
      "target": 34962
    },
    {
      "buffer": 0,
      "byteLength": 640,
      "byteOffset": 206400,
      "name": "floatBufferViews"
    },
    {
      "buffer": 0,
      "byteLength": 38292,
      "byteOffset": 207040,
      "name": "floatBufferViews"
    },
    {
      "buffer": 0,
      "byteLength": 19032,
      "byteOffset": 245332,
      "byteStride": 12,
      "name": "floatBufferViews"
    },
    {
      "buffer": 0,
      "byteLength": 127792,
      "byteOffset": 264364,
      "byteStride": 16,
      "name": "floatBufferViews"
    }
  ],
  "buffers": [
    {
      "byteLength": 392156,
      "uri": "scene.bin"
    }
  ],
  "extensionsRequired": [
    "KHR_materials_pbrSpecularGlossiness"
  ],
  "extensionsUsed": [
    "KHR_materials_pbrSpecularGlossiness"
  ],
  "images": [
    {
      "uri": "textures/Gray_diffuse.jpeg"
    },
    {
      "uri": "textures/material_emissive.jpeg"
    }
  ],
  "materials": [
    {
      "doubleSided": true,
      "extensions": {
        "KHR_materials_pbrSpecularGlossiness": {
          "diffuseFactor": [
            1.0,
            1.0,
            1.0,
            1.0
          ],
          "diffuseTexture": {
            "index": 0
          },
          "glossinessFactor": 0.1760582743,
          "specularFactor": [
            0.0,
            0.0,
            0.0
          ]
        }
      },
      "name": "Gray"
    },
    {
      "doubleSided": true,
      "emissiveFactor": [
        1.0,
        1.0,
        1.0
      ],
      "emissiveTexture": {
        "index": 1
      },
      "extensions": {
        "KHR_materials_pbrSpecularGlossiness": {
          "diffuseFactor": [
            1.0,
            1.0,
            1.0,
            1.0
          ],
          "diffuseTexture": {
            "index": 0
          },
          "glossinessFactor": 0.1760582743,
          "specularFactor": [
            0.0,
            0.0,
            0.0
          ]
        }
      },
      "name": "material"
    },
    {
      "emissiveFactor": [
        1.0,
        1.0,
        1.0
      ],
      "emissiveTexture": {
        "index": 1
      },
      "extensions": {
        "KHR_materials_pbrSpecularGlossiness": {
          "diffuseFactor": [
            1.0,
            1.0,
            1.0,
            1.0
          ],
          "diffuseTexture": {
            "index": 0
          },
          "glossinessFactor": 0.1760582743,
          "specularFactor": [
            0.0,
            0.0,
            0.0
          ]
        }
      },
      "name": "SPace"
    }
  ],
  "meshes": [
    {
      "name": "Sphere.003_Gray_0",
      "primitives": [
        {
          "attributes": {
            "JOINTS_0": 16,
            "NORMAL": 1,
            "POSITION": 0,
            "TEXCOORD_0": 2,
            "TEXCOORD_1": 3,
            "WEIGHTS_0": 17
          },
          "indices": 4,
          "material": 0,
          "mode": 4
        }
      ]
    },
    {
      "name": "Sphere.003_SUn_0",
      "primitives": [
        {
          "attributes": {
            "JOINTS_0": 18,
            "NORMAL": 6,
            "POSITION": 5,
            "TEXCOORD_0": 7,
            "TEXCOORD_1": 8,
            "WEIGHTS_0": 19
          },
          "indices": 9,
          "material": 1,
          "mode": 4
        }
      ]
    },
    {
      "name": "Sphere.003_SPace_0",
      "primitives": [
        {
          "attributes": {
            "JOINTS_0": 20,
            "NORMAL": 11,
            "POSITION": 10,
            "TEXCOORD_0": 12,
            "TEXCOORD_1": 13,
            "WEIGHTS_0": 21
          },
          "indices": 14,
          "material": 2,
          "mode": 4
        }
      ]
    }
  ],
  "nodes": [
    {
      "children": [
        1
      ],
      "matrix": [
        1.0,
        0.0,
        0.0,
        0.0,
        0.0,
        2.220446049250313e-16,
        -1.0,
        0.0,
        0.0,
        1.0,
        2.220446049250313e-16,
        0.0,
        0.0,
        0.0,
        0.0,
        1.0
      ],
      "name": "Sketchfab_model"
    },
    {
      "children": [
        2
      ],
      "matrix": [
        1.0,
        0.0,
        0.0,
        0.0,
        0.0,
        0.0,
        1.0,
        0.0,
        0.0,
        -1.0,
        0.0,
        0.0,
        0.0,
        0.0,
        0.0,
        1.0
      ],
      "name": "Sun.fbx"
    },
    {
      "children": [
        3
      ],
      "name": "Object_2"
    },
    {
      "children": [
        4,
        20
      ],
      "name": "RootNode"
    },
    {
      "children": [
        5
      ],
      "name": "Armature",
      "rotation": [
        -0.7071068286895752,
        0.0,
        0.0,
        0.7071067094802856
      ],
      "scale": [
        100.0,
        100.0,
        100.0
      ],
      "translation": [
        -0.00016689300537109375,
        0.0,
        0.0006135648582130671
      ]
    },
    {
      "children": [
        6,
        17,
        18,
        19,
        16
      ],
      "name": "Object_5"
    },
    {
      "children": [
        7,
        9,
        11
      ],
      "name": "_rootJoint"
    },
    {
      "children": [
        8
      ],
      "name": "Bone_00",
      "rotation": [
        0.7071068286895752,
        0.0,
        0.0,
        0.7071067094802856
      ]
    },
    {
      "name": "Bone_end_06",
      "translation": [
        0.0,
        4.0,
        0.0
      ]
    },
    {
      "children": [
        10
      ],
      "name": "Bone.001_01",
      "rotation": [
        0.7071068286895752,
        0.0,
        0.0,
        0.7071067094802856
      ],
      "translation": [
        0.9808061122894287,
        5.160543423698982e-06,
        0.0
      ]
    },
    {
      "name": "Bone.001_end_07",
      "translation": [
        0.0,
        1.983805537223816,
        0.0
      ]
    },
    {
      "children": [
        12
      ],
      "name": "Bone.005_02",
      "rotation": [
        0.7071068286895752,
        0.0,
        0.0,
        0.7071067094802856
      ],
      "translation": [
        0.9808061122894287,
        5.160543423698982e-06,
        1.983805537223816
      ]
    },
    {
      "children": [
        13
      ],
      "name": "Bone.002_03",
      "translation": [
        -7.374119758605957,
        -1.983805537223816,
        -8.592473932367284e-07
      ]
    },
    {
      "children": [
        14
      ],
      "name": "Bone.004_04",
      "translation": [
        0.0,
        0.630316972732544,
        0.0
      ]
    },
    {
      "children": [
        15
      ],
      "name": "Bone.003_05",
      "translation": [
        -1.0924615859985352,
        -0.6303170323371887,
        -4.924686436424963e-08
      ]
    },
    {
      "name": "Bone.003_end_08",
      "translation": [
        0.0,
        0.5670376420021057,
        0.0
      ]
    },
    {
      "matrix": [
        100.0,
        0.0,
        0.0,
        0.0,
        0.0,
        6.123233995736766e-15,
        -100.0,
        0.0,
        0.0,
        100.0,
        6.123233995736766e-15,
        0.0,
        0.0003337860107421875,
        0.0,
        0.0002384185754635837,
        1.0
      ],
      "name": "Object_16"
    },
    {
      "mesh": 0,
      "name": "Object_17",
      "skin": 0
    },
    {
      "mesh": 1,
      "name": "Object_18",
      "skin": 0
    },
    {
      "mesh": 2,
      "name": "Object_19",
      "skin": 0
    },
    {
      "name": "Sphere.003",
      "rotation": [
        -0.7071068286895752,
        0.0,
        0.0,
        0.7071067094802856
      ],
      "scale": [
        100.0,
        100.0,
        100.0
      ],
      "translation": [
        0.0003337860107421875,
        0.0,
        0.0002384185791015625
      ]
    }
  ],
  "samplers": [
    {
      "magFilter": 9729,
      "minFilter": 9987,
      "wrapS": 10497,
      "wrapT": 10497
    }
  ],
  "scene": 0,
  "scenes": [
    {
      "name": "Sketchfab_Scene",
      "nodes": [
        0
      ]
    }
  ],
  "skins": [
    {
      "inverseBindMatrices": 15,
      "joints": [
        6,
        7,
        8,
        9,
        10,
        11,
        12,
        13,
        14,
        15
      ],
      "skeleton": 6
    }
  ],
  "textures": [
    {
      "sampler": 0,
      "source": 0
    },
    {
      "sampler": 0,
      "source": 1
    }
  ]
}
