{
  "accessors": [
    {
      "bufferView": 2,
      "componentType": 5126,
      "count": 12330,
      "max": [
        196.00999450683594,
        -125.12300109863281,
        29.399099349975586
      ],
      "min": [
        -205.2259979248047,
        -250.3730010986328,
        5.233190059661865
      ],
      "type": "VEC3"
    },
    {
      "bufferView": 2,
      "byteOffset": 147960,
      "componentType": 5126,
      "count": 12330,
      "max": [
        0.9490351676940918,
        0.9602007865905762,
        1.0
      ],
      "min": [
        -0.9563961029052734,
        -0.9356994032859802,
        0.24277986586093903
      ],
      "type": "VEC3"
    },
    {
      "bufferView": 1,
      "componentType": 5126,
      "count": 12330,
      "max": [
        1.0,
        1.0
      ],
      "min": [
        0.0,
        0.0
      ],
      "type": "VEC2"
    },
    {
      "bufferView": 0,
      "componentType": 5125,
      "count": 71442,
      "type": "SCALAR"
    },
    {
      "bufferView": 2,
      "byteOffset": 295920,
      "componentType": 5126,
      "count": 42866,
      "max": [
        98.63960266113281,
        42.177101135253906,
        355.61199951171875
      ],
      "min": [
        -114.14299774169922,
        -182.00999450683594,
        12.475799560546875
      ],
      "type": "VEC3"
    },
    {
      "bufferView": 2,
      "byteOffset": 810312,
      "componentType": 5126,
      "count": 42866,
      "max": [
        0.9999977946281433,
        1.0,
        1.0
      ],
      "min": [
        -0.9999977946281433,
        -1.0,
        -1.0
      ],
      "type": "VEC3"
    },
    {
      "bufferView": 1,
      "byteOffset": 98640,
      "componentType": 5126,
      "count": 42866,
      "max": [
        1.1532200574874878,
        1.0
      ],
      "min": [
        0.0,
        0.0
      ],
      "type": "VEC2"
    },
    {
      "bufferView": 0,
      "byteOffset": 285768,
      "componentType": 5125,
      "count": 134589,
      "type": "SCALAR"
    },
    {
      "bufferView": 2,
      "byteOffset": 1324704,
      "componentType": 5126,
      "count": 4096,
      "max": [
        242.39300537109375,
        242.6490020751953,
        35.345001220703125
      ],
      "min": [
        -250.1959991455078,
        -292.1260070800781,
        5.787909984588623
      ],
      "type": "VEC3"
    },
    {
      "bufferView": 2,
      "byteOffset": 1373856,
      "componentType": 5126,
      "count": 4096,
      "max": [
        0.27582424879074097,
        0.21226121485233307,
        1.0
      ],
      "min": [
        -0.27633407711982727,
        -0.20224802196025848,
        0.959915816783905
      ],
      "type": "VEC3"
    },
    {
      "bufferView": 1,
      "byteOffset": 441568,
      "componentType": 5126,
      "count": 4096,
      "max": [
        1.0,
        1.0
      ],
      "min": [
        0.0,
        0.0
      ],
      "type": "VEC2"
    },
    {
      "bufferView": 0,
      "byteOffset": 824124,
      "componentType": 5125,
      "count": 23814,
      "type": "SCALAR"
    },
    {
      "bufferView": 2,
      "byteOffset": 1423008,
      "componentType": 5126,
      "count": 45381,
      "max": [
        167.7449951171875,
        179.11500549316406,
        203.96600341796875
      ],
      "min": [
        -173.1439971923828,
        -161.7740020751953,
        6.5942702293396
      ],
      "type": "VEC3"
    },
    {
      "bufferView": 2,
      "byteOffset": 1967580,
      "componentType": 5126,
      "count": 45381,
      "max": [
        0.9856709241867065,
        0.9812934994697571,
        1.0
      ],
      "min": [
        -0.9860444664955139,
        -0.9854008555412292,
        0.13538174331188202
      ],
      "type": "VEC3"
    },
    {
      "bufferView": 1,
      "byteOffset": 474336,
      "componentType": 5126,
      "count": 45381,
      "max": [
        1.0,
        1.0
      ],
      "min": [
        0.0,
        0.0
      ],
      "type": "VEC2"
    },
    {
      "bufferView": 0,
      "byteOffset": 919380,
      "componentType": 5125,
      "count": 269664,
      "type": "SCALAR"
    }
  ],
  "asset": {
    "extras": {
      "author": "jonb123 (https://sketchfab.com/jonb123)",
      "license": "CC-BY-4.0 (http://creativecommons.org/licenses/by/4.0/)",
      "source": "https://sketchfab.com/3d-models/sci-fi-topical-city-d902f0afef8642eba566577529227583",
      "title": "Sci-Fi Topical City"
    },
    "generator": "Sketchfab-12.67.0",
    "version": "2.0"
  },
  "bufferViews": [
    {
      "buffer": 0,
      "byteLength": 1998036,
      "name": "floatBufferViews",
      "target": 34963
    },
    {
      "buffer": 0,
      "byteLength": 837384,
      "byteOffset": 1998036,
      "byteStride": 8,
      "name": "floatBufferViews",
      "target": 34962
    },
    {
      "buffer": 0,
      "byteLength": 2512152,
      "byteOffset": 2835420,
      "byteStride": 12,
      "name": "floatBufferViews",
      "target": 34962
    }
  ],
  "buffers": [
    {
      "byteLength": 5347572,
      "uri": "scene.bin"
    }
  ],
  "images": [
    {
      "uri": "textures/default_baseColor.jpeg"
    },
    {
      "uri": "textures/default_bldgs2_baseColor.jpeg"
    },
    {
      "uri": "textures/material_1_baseColor.jpeg"
    },
    {
      "uri": "textures/material_1_mountain_baseColor.jpeg"
    }
  ],
  "materials": [
    {
      "doubleSided": true,
      "name": "default",
      "pbrMetallicRoughness": {
        "baseColorTexture": {
          "index": 0
        },
        "metallicFactor": 0.0,
        "roughnessFactor": 0.6
      }
    },
    {
      "doubleSided": true,
      "name": "default_bldgs2",
      "pbrMetallicRoughness": {
        "baseColorTexture": {
          "index": 1
        },
        "metallicFactor": 0.0,
        "roughnessFactor": 0.6
      }
    },
    {
      "doubleSided": true,
      "name": "material_1",
      "pbrMetallicRoughness": {
        "baseColorTexture": {
          "index": 2
        },
        "metallicFactor": 0.0,
        "roughnessFactor": 0.6
      }
    },
    {
      "doubleSided": true,
      "name": "material_1_mountain",
      "pbrMetallicRoughness": {
        "baseColorTexture": {
          "index": 3
        },
        "metallicFactor": 0.0,
        "roughnessFactor": 0.6
      }
    }
  ],
  "meshes": [
    {
      "name": "Object_0",
      "primitives": [
        {
          "attributes": {
            "NORMAL": 1,
            "POSITION": 0,
            "TEXCOORD_0": 2
          },
          "indices": 3,
          "material": 0,
          "mode": 4
        }
      ]
    },
    {
      "name": "Object_1",
      "primitives": [
        {
          "attributes": {
            "NORMAL": 5,
            "POSITION": 4,
            "TEXCOORD_0": 6
          },
          "indices": 7,
          "material": 1,
          "mode": 4
        }
      ]
    },
    {
      "name": "Object_2",
      "primitives": [
        {
          "attributes": {
            "NORMAL": 9,
            "POSITION": 8,
            "TEXCOORD_0": 10
          },
          "indices": 11,
          "material": 2,
          "mode": 4
        }
      ]
    },
    {
      "name": "Object_3",
      "primitives": [
        {
          "attributes": {
            "NORMAL": 13,
            "POSITION": 12,
            "TEXCOORD_0": 14
          },
          "indices": 15,
          "material": 3,
          "mode": 4
        }
      ]
    }
  ],
  "nodes": [
    {
      "children": [
        1
      ],
      "matrix": [
        1.0,
        0.0,
        0.0,
        0.0,
        0.0,
        2.220446049250313e-16,
        -1.0,
        0.0,
        0.0,
        1.0,
        2.220446049250313e-16,
        0.0,
        0.0,
        0.0,
        0.0,
        1.0
      ],
      "name": "Sketchfab_model"
    },
    {
      "children": [
        2,
        3,
        4,
        5
      ],
      "name": "Sci-fi Tropical city.obj.cleaner.materialmerger.gles"
    },
    {
      "mesh": 0,
      "name": "Object_2"
    },
    {
      "mesh": 1,
      "name": "Object_3"
    },
    {
      "mesh": 2,
      "name": "Object_4"
    },
    {
      "mesh": 3,
      "name": "Object_5"
    }
  ],
  "samplers": [
    {
      "magFilter": 9729,
      "minFilter": 9987,
      "wrapS": 10497,
      "wrapT": 10497
    }
  ],
  "scene": 0,
  "scenes": [
    {
      "name": "Sketchfab_Scene",
      "nodes": [
        0
      ]
    }
  ],
  "textures": [
    {
      "sampler": 0,
      "source": 0
    },
    {
      "sampler": 0,
      "source": 1
    },
    {
      "sampler": 0,
      "source": 2
    },
    {
      "sampler": 0,
      "source": 3
    }
  ]
}
