{
  "accessors": [
    {
      "bufferView": 2,
      "componentType": 5126,
      "count": 2926,
      "max": [
        11.382564544677734,
        11.944581031799316,
        4.829235076904297
      ],
      "min": [
        -11.38467025756836,
        -13.042223930358887,
        -4.004790782928467
      ],
      "type": "VEC3"
    },
    {
      "bufferView": 2,
      "byteOffset": 35112,
      "componentType": 5126,
      "count": 2926,
      "max": [
        1.0,
        1.0,
        1.0
      ],
      "min": [
        -1.0,
        -1.0,
        -1.0
      ],
      "type": "VEC3"
    },
    {
      "bufferView": 1,
      "componentType": 5126,
      "count": 2926,
      "max": [
        0.9969959855079651,
        0.9955009818077087
      ],
      "min": [
        0.006486999802291393,
        0.0027660001069307327
      ],
      "type": "VEC2"
    },
    {
      "bufferView": 0,
      "componentType": 5125,
      "count": 5934,
      "type": "SCALAR"
    }
  ],
  "asset": {
    "extras": {
      "author": "alx_flameniro (https://sketchfab.com/alx_flameniro)",
      "license": "CC-BY-4.0 (http://creativecommons.org/licenses/by/4.0/)",
      "source": "https://sketchfab.com/3d-models/ag-127-720-00-2c70e2f36aa44267a171ee6ef2dc677a",
      "title": "AG 127-720-00"
    },
    "generator": "Sketchfab-12.67.0",
    "version": "2.0"
  },
  "bufferViews": [
    {
      "buffer": 0,
      "byteLength": 23736,
      "name": "floatBufferViews",
      "target": 34963
    },
    {
      "buffer": 0,
      "byteLength": 23408,
      "byteOffset": 23736,
      "byteStride": 8,
      "name": "floatBufferViews",
      "target": 34962
    },
    {
      "buffer": 0,
      "byteLength": 70224,
      "byteOffset": 47144,
      "byteStride": 12,
      "name": "floatBufferViews",
      "target": 34962
    }
  ],
  "buffers": [
    {
      "byteLength": 117368,
      "uri": "scene.bin"
    }
  ],
  "images": [
    {
      "uri": "textures/material_0_baseColor.png"
    }
  ],
  "materials": [
    {
      "doubleSided": true,
      "name": "material_0",
      "pbrMetallicRoughness": {
        "baseColorTexture": {
          "index": 0
        },
        "metallicFactor": 0.0
      }
    }
  ],
  "meshes": [
    {
      "name": "Object_0",
      "primitives": [
        {
          "attributes": {
            "NORMAL": 1,
            "POSITION": 0,
            "TEXCOORD_0": 2
          },
          "indices": 3,
          "material": 0,
          "mode": 4
        }
      ]
    }
  ],
  "nodes": [
    {
      "children": [
        1
      ],
      "matrix": [
        1.0,
        0.0,
        0.0,
        0.0,
        0.0,
        2.220446049250313e-16,
        -1.0,
        0.0,
        0.0,
        1.0,
        2.220446049250313e-16,
        0.0,
        0.0,
        0.0,
        0.0,
        1.0
      ],
      "name": "Sketchfab_model"
    },
    {
      "children": [
        2
      ],
      "name": "12772001_none.obj.cleaner.materialmerger.gles"
    },
    {
      "mesh": 0,
      "name": "Object_2"
    }
  ],
  "samplers": [
    {
      "magFilter": 9729,
      "minFilter": 9987,
      "wrapS": 10497,
      "wrapT": 10497
    }
  ],
  "scene": 0,
  "scenes": [
    {
      "name": "Sketchfab_Scene",
      "nodes": [
        0
      ]
    }
  ],
  "textures": [
    {
      "sampler": 0,
      "source": 0
    }
  ]
}
