{
  "accessors": [
    {
      "bufferView": 2,
      "componentType": 5126,
      "count": 20585,
      "max": [
        7.387270450592041,
        3.432394027709961,
        7.606383323669434
      ],
      "min": [
        -10.339875221252441,
        -0.19903135299682617,
        -10.113116264343262
      ],
      "type": "VEC3"
    },
    {
      "bufferView": 2,
      "byteOffset": 247020,
      "componentType": 5126,
      "count": 20585,
      "max": [
        1.0,
        1.0,
        1.0
      ],
      "min": [
        -1.0,
        -1.0,
        -1.0
      ],
      "type": "VEC3"
    },
    {
      "bufferView": 1,
      "componentType": 5126,
      "count": 20585,
      "max": [
        0.9962043762207031,
        0.9962763786315918
      ],
      "min": [
        0.003723651170730591,
        0.0037236809730529785
      ],
      "type": "VEC2"
    },
    {
      "bufferView": 0,
      "componentType": 5125,
      "count": 50994,
      "type": "SCALAR"
    },
    {
      "bufferView": 2,
      "byteOffset": 494040,
      "componentType": 5126,
      "count": 29419,
      "max": [
        11.400930404663086,
        1.5898354053497314,
        0.45389699935913086
      ],
      "min": [
        -3.83427095413208,
        -1.6361969709396362,
        -15.002579689025879
      ],
      "type": "VEC3"
    },
    {
      "bufferView": 2,
      "byteOffset": 847068,
      "componentType": 5126,
      "count": 29419,
      "max": [
        1.0,
        1.0,
        1.0
      ],
      "min": [
        -1.0,
        -1.0,
        -1.0
      ],
      "type": "VEC3"
    },
    {
      "bufferView": 1,
      "byteOffset": 164680,
      "componentType": 5126,
      "count": 29419,
      "max": [
        1.0,
        1.0
      ],
      "min": [
        0.0,
        2.384185791015625e-07
      ],
      "type": "VEC2"
    },
    {
      "bufferView": 0,
      "byteOffset": 203976,
      "componentType": 5125,
      "count": 84033,
      "type": "SCALAR"
    }
  ],
  "asset": {
    "extras": {
      "author": "fangzhangmnm (https://sketchfab.com/fangzhangmnm)",
      "license": "CC-BY-4.0 (http://creativecommons.org/licenses/by/4.0/)",
      "source": "https://sketchfab.com/3d-models/kleeblatt-quest-home-environment-441eeba793ad43e6ae8c6ebebfc15498",
      "title": "Kleeblatt Quest Home Environment"
    },
    "generator": "Sketchfab-12.66.0",
    "version": "2.0"
  },
  "bufferViews": [
    {
      "buffer": 0,
      "byteLength": 540108,
      "name": "floatBufferViews",
      "target": 34963
    },
    {
      "buffer": 0,
      "byteLength": 400032,
      "byteOffset": 540108,
      "byteStride": 8,
      "name": "floatBufferViews",
      "target": 34962
    },
    {
      "buffer": 0,
      "byteLength": 1200096,
      "byteOffset": 940140,
      "byteStride": 12,
      "name": "floatBufferViews",
      "target": 34962
    }
  ],
  "buffers": [
    {
      "byteLength": 2140236,
      "uri": "scene.bin"
    }
  ],
  "extensionsUsed": [
    "KHR_materials_unlit"
  ],
  "images": [
    {
      "uri": "textures/Baked_baseColor.png"
    },
    {
      "uri": "textures/Baked1_baseColor.png"
    }
  ],
  "materials": [
    {
      "doubleSided": true,
      "extensions": {
        "KHR_materials_unlit": {}
      },
      "name": "Baked",
      "pbrMetallicRoughness": {
        "baseColorTexture": {
          "index": 0
        },
        "metallicFactor": 0.0
      }
    },
    {
      "doubleSided": true,
      "extensions": {
        "KHR_materials_unlit": {}
      },
      "name": "Baked1",
      "pbrMetallicRoughness": {
        "baseColorTexture": {
          "index": 1
        },
        "metallicFactor": 0.0
      }
    }
  ],
  "meshes": [
    {
      "name": "Object_0",
      "primitives": [
        {
          "attributes": {
            "NORMAL": 1,
            "POSITION": 0,
            "TEXCOORD_0": 2
          },
          "indices": 3,
          "material": 0,
          "mode": 4
        }
      ]
    },
    {
      "name": "Object_1",
      "primitives": [
        {
          "attributes": {
            "NORMAL": 5,
            "POSITION": 4,
            "TEXCOORD_0": 6
          },
          "indices": 7,
          "material": 1,
          "mode": 4
        }
      ]
    }
  ],
  "nodes": [
    {
      "children": [
        1
      ],
      "matrix": [
        1.0,
        0.0,
        0.0,
        0.0,
        0.0,
        2.220446049250313e-16,
        -1.0,
        0.0,
        0.0,
        1.0,
        2.220446049250313e-16,
        0.0,
        0.0,
        0.0,
        0.0,
        1.0
      ],
      "name": "Sketchfab_model"
    },
    {
      "children": [
        2
      ],
      "name": "root"
    },
    {
      "children": [
        3,
        5
      ],
      "matrix": [
        1.0,
        0.0,
        0.0,
        0.0,
        0.0,
        2.220446049250313e-16,
        1.0,
        0.0,
        0.0,
        -1.0,
        2.220446049250313e-16,
        0.0,
        0.0,
        0.0,
        0.0,
        1.0
      ],
      "name": "GLTF_SceneRootNode"
    },
    {
      "children": [
        4
      ],
      "matrix": [
        0.25128902758103144,
        0.0,
        -0.9679120955011253,
        0.0,
        0.0,
        1.0,
        0.0,
        0.0,
        0.9679120955011253,
        0.0,
        0.25128902758103144,
        0.0,
        0.0,
        0.0,
        0.0,
        1.0
      ],
      "name": "kleeblatt.001_0"
    },
    {
      "mesh": 0,
      "name": "Object_4"
    },
    {
      "children": [
        6
      ],
      "matrix": [
        -0.9939099146875672,
        0.0,
        -0.11019565093846896,
        0.0,
        0.0,
        1.0,
        0.0,
        0.0,
        0.11019565093846896,
        0.0,
        -0.9939099146875672,
        0.0,
        3.2269043922424316,
        1.6147840023040771,
        -5.5947113037109375,
        1.0
      ],
      "name": "TV.002_1"
    },
    {
      "mesh": 1,
      "name": "Object_6"
    }
  ],
  "samplers": [
    {
      "magFilter": 9729,
      "minFilter": 9987,
      "wrapS": 10497,
      "wrapT": 10497
    }
  ],
  "scene": 0,
  "scenes": [
    {
      "name": "Sketchfab_Scene",
      "nodes": [
        0
      ]
    }
  ],
  "textures": [
    {
      "sampler": 0,
      "source": 0
    },
    {
      "sampler": 0,
      "source": 1
    }
  ]
}
