{
  "accessors": [
    {
      "bufferView": 2,
      "componentType": 5126,
      "count": 12042,
      "max": [
        130.87942504882813,
        52.45586013793945,
        220.3285675048828
      ],
      "min": [
        -130.87942504882813,
        -52.45586013793945,
        -220.3285675048828
      ],
      "type": "VEC3"
    },
    {
      "bufferView": 2,
      "byteOffset": 144504,
      "componentType": 5126,
      "count": 12042,
      "max": [
        1.0,
        1.0,
        1.0
      ],
      "min": [
        -1.0,
        -1.0,
        -1.0
      ],
      "type": "VEC3"
    },
    {
      "bufferView": 1,
      "componentType": 5126,
      "count": 12042,
      "max": [
        0.9946883916854858,
        0.9957665801048279
      ],
      "min": [
        0.001394480001181364,
        0.002789198886603117
      ],
      "type": "VEC2"
    },
    {
      "bufferView": 1,
      "byteOffset": 96336,
      "componentType": 5126,
      "count": 12042,
      "max": [
        0.9946883916854858,
        0.9957665801048279
      ],
      "min": [
        0.001394480001181364,
        0.002789198886603117
      ],
      "type": "VEC2"
    },
    {
      "bufferView": 1,
      "byteOffset": 192672,
      "componentType": 5126,
      "count": 12042,
      "max": [
        0.9946883916854858,
        0.9957665801048279
      ],
      "min": [
        0.001394480001181364,
        0.002789198886603117
      ],
      "type": "VEC2"
    },
    {
      "bufferView": 1,
      "byteOffset": 289008,
      "componentType": 5126,
      "count": 12042,
      "max": [
        0.9946883916854858,
        0.9957665801048279
      ],
      "min": [
        0.001394480001181364,
        0.002789198886603117
      ],
      "type": "VEC2"
    },
    {
      "bufferView": 1,
      "byteOffset": 385344,
      "componentType": 5126,
      "count": 12042,
      "max": [
        0.9946883916854858,
        0.9957665801048279
      ],
      "min": [
        0.001394480001181364,
        0.002789198886603117
      ],
      "type": "VEC2"
    },
    {
      "bufferView": 1,
      "byteOffset": 481680,
      "componentType": 5126,
      "count": 12042,
      "max": [
        0.9946883916854858,
        0.9957665801048279
      ],
      "min": [
        0.001394480001181364,
        0.002789198886603117
      ],
      "type": "VEC2"
    },
    {
      "bufferView": 1,
      "byteOffset": 578016,
      "componentType": 5126,
      "count": 12042,
      "max": [
        0.9946883916854858,
        0.9957665801048279
      ],
      "min": [
        0.001394480001181364,
        0.002789198886603117
      ],
      "type": "VEC2"
    },
    {
      "bufferView": 1,
      "byteOffset": 674352,
      "componentType": 5126,
      "count": 12042,
      "max": [
        0.9946883916854858,
        0.9957665801048279
      ],
      "min": [
        0.001394480001181364,
        0.002789198886603117
      ],
      "type": "VEC2"
    },
    {
      "bufferView": 0,
      "componentType": 5125,
      "count": 35196,
      "type": "SCALAR"
    },
    {
      "bufferView": 2,
      "byteOffset": 289008,
      "componentType": 5126,
      "count": 414,
      "max": [
        116.26730346679688,
        50.15367889404297,
        197.8719482421875
      ],
      "min": [
        -116.60391998291016,
        -49.126678466796875,
        -211.04461669921875
      ],
      "type": "VEC3"
    },
    {
      "bufferView": 2,
      "byteOffset": 293976,
      "componentType": 5126,
      "count": 414,
      "max": [
        0.9986961483955383,
        1.0,
        0.7504073977470398
      ],
      "min": [
        -0.9986961483955383,
        -0.9999990463256836,
        -0.9653699398040771
      ],
      "type": "VEC3"
    },
    {
      "bufferView": 1,
      "byteOffset": 770688,
      "componentType": 5126,
      "count": 414,
      "max": [
        1.0080649852752686,
        0.967308521270752
      ],
      "min": [
        -0.020289389416575432,
        0.12884940207004547
      ],
      "type": "VEC2"
    },
    {
      "bufferView": 1,
      "byteOffset": 774000,
      "componentType": 5126,
      "count": 414,
      "max": [
        1.0080649852752686,
        0.967308521270752
      ],
      "min": [
        -0.020289389416575432,
        0.12884940207004547
      ],
      "type": "VEC2"
    },
    {
      "bufferView": 1,
      "byteOffset": 777312,
      "componentType": 5126,
      "count": 414,
      "max": [
        1.0080649852752686,
        0.967308521270752
      ],
      "min": [
        -0.020289389416575432,
        0.12884940207004547
      ],
      "type": "VEC2"
    },
    {
      "bufferView": 1,
      "byteOffset": 780624,
      "componentType": 5126,
      "count": 414,
      "max": [
        1.0080649852752686,
        0.967308521270752
      ],
      "min": [
        -0.020289389416575432,
        0.12884940207004547
      ],
      "type": "VEC2"
    },
    {
      "bufferView": 1,
      "byteOffset": 783936,
      "componentType": 5126,
      "count": 414,
      "max": [
        1.0080649852752686,
        0.967308521270752
      ],
      "min": [
        -0.020289389416575432,
        0.12884940207004547
      ],
      "type": "VEC2"
    },
    {
      "bufferView": 1,
      "byteOffset": 787248,
      "componentType": 5126,
      "count": 414,
      "max": [
        1.0080649852752686,
        0.967308521270752
      ],
      "min": [
        -0.020289389416575432,
        0.12884940207004547
      ],
      "type": "VEC2"
    },
    {
      "bufferView": 0,
      "byteOffset": 140784,
      "componentType": 5125,
      "count": 444,
      "type": "SCALAR"
    }
  ],
  "asset": {
    "extras": {
      "author": "Wholock (https://sketchfab.com/wholock)",
      "license": "CC-BY-4.0 (http://creativecommons.org/licenses/by/4.0/)",
      "source": "https://sketchfab.com/3d-models/star-trek-danube-class-efc194b3d5f14a2e8718fe5bb7baee7a",
      "title": "Star Trek - Danube Class"
    },
    "generator": "Sketchfab-12.68.0",
    "version": "2.0"
  },
  "bufferViews": [
    {
      "buffer": 0,
      "byteLength": 142560,
      "name": "floatBufferViews",
      "target": 34963
    },
    {
      "buffer": 0,
      "byteLength": 790560,
      "byteOffset": 142560,
      "byteStride": 8,
      "name": "floatBufferViews",
      "target": 34962
    },
    {
      "buffer": 0,
      "byteLength": 298944,
      "byteOffset": 933120,
      "byteStride": 12,
      "name": "floatBufferViews",
      "target": 34962
    }
  ],
  "buffers": [
    {
      "byteLength": 1232064,
      "uri": "scene.bin"
    }
  ],
  "images": [
    {
      "uri": "textures/Danube_diffuse_1_baseColor.png"
    },
    {
      "uri": "textures/Danube_diffuse_1_metallicRoughness.png"
    },
    {
      "uri": "textures/Danube_diffuse_1_emissive.png"
    },
    {
      "uri": "textures/Danube_decals_1_baseColor.png"
    },
    {
      "uri": "textures/Danube_decals_1_metallicRoughness.png"
    }
  ],
  "materials": [
    {
      "doubleSided": true,
      "emissiveFactor": [
        1.0,
        1.0,
        1.0
      ],
      "emissiveTexture": {
        "index": 2
      },
      "name": "Danube_diffuse_1",
      "pbrMetallicRoughness": {
        "baseColorTexture": {
          "index": 0
        },
        "metallicFactor": 0.0,
        "metallicRoughnessTexture": {
          "index": 1
        }
      }
    },
    {
      "alphaMode": "BLEND",
      "doubleSided": true,
      "name": "Danube_decals_1",
      "pbrMetallicRoughness": {
        "baseColorTexture": {
          "index": 3
        },
        "metallicFactor": 0.0,
        "metallicRoughnessTexture": {
          "index": 4
        }
      }
    }
  ],
  "meshes": [
    {
      "name": "Danube_Class_Danube_diffuse_1_0",
      "primitives": [
        {
          "attributes": {
            "NORMAL": 1,
            "POSITION": 0,
            "TEXCOORD_0": 2,
            "TEXCOORD_1": 3,
            "TEXCOORD_2": 4,
            "TEXCOORD_3": 5,
            "TEXCOORD_4": 6,
            "TEXCOORD_5": 7,
            "TEXCOORD_6": 8,
            "TEXCOORD_7": 9
          },
          "indices": 10,
          "material": 0,
          "mode": 4
        }
      ]
    },
    {
      "name": "Danube_Class_Danube_decals_1_0",
      "primitives": [
        {
          "attributes": {
            "NORMAL": 12,
            "POSITION": 11,
            "TEXCOORD_0": 13,
            "TEXCOORD_1": 14,
            "TEXCOORD_2": 15,
            "TEXCOORD_3": 16,
            "TEXCOORD_4": 17,
            "TEXCOORD_5": 18
          },
          "indices": 19,
          "material": 1,
          "mode": 4
        }
      ]
    }
  ],
  "nodes": [
    {
      "children": [
        1
      ],
      "matrix": [
        -1.0,
        -6.290011496532519e-32,
        2.832769343193999e-16,
        0.0,
        2.832769343193999e-16,
        -2.220446049250313e-16,
        1.0,
        0.0,
        0.0,
        1.0,
        2.220446049250313e-16,
        0.0,
        0.0008544921875,
        1.8295911660692887e-19,
        -0.000823974609375,
        1.0
      ],
      "name": "Sketchfab_model"
    },
    {
      "children": [
        2
      ],
      "matrix": [
        1.0,
        0.0,
        0.0,
        0.0,
        0.0,
        0.0,
        1.0,
        0.0,
        0.0,
        -1.0,
        0.0,
        0.0,
        0.0,
        0.0,
        0.0,
        1.0
      ],
      "name": "99c942754ce74c57b5ec8a164f259740.fbx"
    },
    {
      "children": [
        3,
        6,
        9
      ],
      "name": "RootNode"
    },
    {
      "children": [
        4,
        5
      ],
      "name": "Danube_Class"
    },
    {
      "mesh": 0,
      "name": "Danube_Class_Danube_diffuse_1_0"
    },
    {
      "mesh": 1,
      "name": "Danube_Class_Danube_decals_1_0"
    },
    {
      "children": [
        7
      ],
      "matrix": [
        0.7071067811865476,
        0.0,
        0.7071067811865475,
        0.0,
        -0.5792279653395692,
        0.5735764363510459,
        0.5792279653395694,
        0.0,
        -0.4055797876726388,
        -0.819152044288992,
        0.4055797876726388,
        0.0,
        -200.0,
        200.0,
        200.0,
        1.0
      ],
      "name": "Light"
    },
    {
      "children": [
        8
      ],
      "matrix": [
        1.0,
        0.0,
        0.0,
        0.0,
        0.0,
        2.220446049250313e-16,
        1.0,
        0.0,
        0.0,
        -1.0,
        2.220446049250313e-16,
        0.0,
        0.0,
        0.0,
        0.0,
        1.0
      ],
      "name": "Object_7"
    },
    {
      "name": "Object_8"
    },
    {
      "children": [
        10
      ],
      "matrix": [
        2.220446049250313e-16,
        0.0,
        -1.0,
        0.0,
        0.0,
        1.0,
        0.0,
        0.0,
        1.0,
        0.0,
        2.220446049250313e-16,
        0.0,
        0.0,
        0.0,
        722.9055786132813,
        1.0
      ],
      "name": "Camera"
    },
    {
      "name": "Object_10"
    }
  ],
  "samplers": [
    {
      "magFilter": 9729,
      "minFilter": 9987,
      "wrapS": 10497,
      "wrapT": 10497
    }
  ],
  "scene": 0,
  "scenes": [
    {
      "name": "Sketchfab_Scene",
      "nodes": [
        0
      ]
    }
  ],
  "textures": [
    {
      "sampler": 0,
      "source": 0
    },
    {
      "sampler": 0,
      "source": 1
    },
    {
      "sampler": 0,
      "source": 2
    },
    {
      "sampler": 0,
      "source": 3
    },
    {
      "sampler": 0,
      "source": 4
    }
  ]
}
