{
  "accessors": [
    {
      "bufferView": 2,
      "componentType": 5126,
      "count": 19338,
      "max": [
        192.93809509277344,
        63.27739334106445,
        -39.39798355102539
      ],
      "min": [
        -192.93809509277344,
        -8.719217300415039,
        -564.876953125
      ],
      "type": "VEC3"
    },
    {
      "bufferView": 2,
      "byteOffset": 232056,
      "componentType": 5126,
      "count": 19338,
      "max": [
        1.0,
        1.0,
        1.0
      ],
      "min": [
        -1.0,
        -1.0,
        -0.9983082413673401
      ],
      "type": "VEC3"
    },
    {
      "bufferView": 1,
      "componentType": 5126,
      "count": 19338,
      "max": [
        0.9939923882484436,
        0.9953988194465637
      ],
      "min": [
        0.005200000014156103,
        0.006499708164483309
      ],
      "type": "VEC2"
    },
    {
      "bufferView": 1,
      "byteOffset": 154704,
      "componentType": 5126,
      "count": 19338,
      "max": [
        0.9939923882484436,
        0.9953988194465637
      ],
      "min": [
        0.005200000014156103,
        0.006499708164483309
      ],
      "type": "VEC2"
    },
    {
      "bufferView": 1,
      "byteOffset": 309408,
      "componentType": 5126,
      "count": 19338,
      "max": [
        0.9939923882484436,
        0.9953988194465637
      ],
      "min": [
        0.005200000014156103,
        0.006499708164483309
      ],
      "type": "VEC2"
    },
    {
      "bufferView": 1,
      "byteOffset": 464112,
      "componentType": 5126,
      "count": 19338,
      "max": [
        0.9939923882484436,
        0.9953988194465637
      ],
      "min": [
        0.005200000014156103,
        0.006499708164483309
      ],
      "type": "VEC2"
    },
    {
      "bufferView": 1,
      "byteOffset": 618816,
      "componentType": 5126,
      "count": 19338,
      "max": [
        0.9939923882484436,
        0.9953988194465637
      ],
      "min": [
        0.005200000014156103,
        0.006499708164483309
      ],
      "type": "VEC2"
    },
    {
      "bufferView": 1,
      "byteOffset": 773520,
      "componentType": 5126,
      "count": 19338,
      "max": [
        0.9939923882484436,
        0.9953988194465637
      ],
      "min": [
        0.005200000014156103,
        0.006499708164483309
      ],
      "type": "VEC2"
    },
    {
      "bufferView": 1,
      "byteOffset": 928224,
      "componentType": 5126,
      "count": 19338,
      "max": [
        0.9939923882484436,
        0.9953988194465637
      ],
      "min": [
        0.005200000014156103,
        0.006499708164483309
      ],
      "type": "VEC2"
    },
    {
      "bufferView": 1,
      "byteOffset": 1082928,
      "componentType": 5126,
      "count": 19338,
      "max": [
        0.9939923882484436,
        0.9953988194465637
      ],
      "min": [
        0.005200000014156103,
        0.006499708164483309
      ],
      "type": "VEC2"
    },
    {
      "bufferView": 0,
      "componentType": 5125,
      "count": 39936,
      "type": "SCALAR"
    },
    {
      "bufferView": 2,
      "byteOffset": 464112,
      "componentType": 5126,
      "count": 1883,
      "max": [
        190.5394744873047,
        70.5346908569336,
        538.845458984375
      ],
      "min": [
        -189.9651336669922,
        -69.8193130493164,
        -562.8859252929688
      ],
      "type": "VEC3"
    },
    {
      "bufferView": 2,
      "byteOffset": 486708,
      "componentType": 5126,
      "count": 1883,
      "max": [
        0.9973147511482239,
        1.0,
        0.906136155128479
      ],
      "min": [
        -0.9972952604293823,
        -1.0,
        -0.9048715829849243
      ],
      "type": "VEC3"
    },
    {
      "bufferView": 1,
      "byteOffset": 1237632,
      "componentType": 5126,
      "count": 1883,
      "max": [
        1.2164969444274902,
        1.743129014968872
      ],
      "min": [
        -0.28336191177368164,
        0.1626041978597641
      ],
      "type": "VEC2"
    },
    {
      "bufferView": 1,
      "byteOffset": 1252696,
      "componentType": 5126,
      "count": 1883,
      "max": [
        1.2164969444274902,
        1.743129014968872
      ],
      "min": [
        -0.28336191177368164,
        0.1626041978597641
      ],
      "type": "VEC2"
    },
    {
      "bufferView": 1,
      "byteOffset": 1267760,
      "componentType": 5126,
      "count": 1883,
      "max": [
        1.2164969444274902,
        1.743129014968872
      ],
      "min": [
        -0.28336191177368164,
        0.1626041978597641
      ],
      "type": "VEC2"
    },
    {
      "bufferView": 1,
      "byteOffset": 1282824,
      "componentType": 5126,
      "count": 1883,
      "max": [
        1.2164969444274902,
        1.743129014968872
      ],
      "min": [
        -0.28336191177368164,
        0.1626041978597641
      ],
      "type": "VEC2"
    },
    {
      "bufferView": 1,
      "byteOffset": 1297888,
      "componentType": 5126,
      "count": 1883,
      "max": [
        1.2164969444274902,
        1.743129014968872
      ],
      "min": [
        -0.28336191177368164,
        0.1626041978597641
      ],
      "type": "VEC2"
    },
    {
      "bufferView": 1,
      "byteOffset": 1312952,
      "componentType": 5126,
      "count": 1883,
      "max": [
        1.2164969444274902,
        1.743129014968872
      ],
      "min": [
        -0.28336191177368164,
        0.1626041978597641
      ],
      "type": "VEC2"
    },
    {
      "bufferView": 0,
      "byteOffset": 159744,
      "componentType": 5125,
      "count": 3210,
      "type": "SCALAR"
    },
    {
      "bufferView": 2,
      "byteOffset": 509304,
      "componentType": 5126,
      "count": 17059,
      "max": [
        170.8142852783203,
        70.0989990234375,
        564.876953125
      ],
      "min": [
        -171.613525390625,
        -70.5346908569336,
        -366.5438537597656
      ],
      "type": "VEC3"
    },
    {
      "bufferView": 2,
      "byteOffset": 714012,
      "componentType": 5126,
      "count": 17059,
      "max": [
        1.0,
        1.0,
        1.0
      ],
      "min": [
        -1.0,
        -1.0,
        -1.0
      ],
      "type": "VEC3"
    },
    {
      "bufferView": 1,
      "byteOffset": 1328016,
      "componentType": 5126,
      "count": 17059,
      "max": [
        0.9928979277610779,
        0.9958282113075256
      ],
      "min": [
        0.006354290992021561,
        0.00438612699508667
      ],
      "type": "VEC2"
    },
    {
      "bufferView": 1,
      "byteOffset": 1464488,
      "componentType": 5126,
      "count": 17059,
      "max": [
        0.9928979277610779,
        0.9958282113075256
      ],
      "min": [
        0.006354290992021561,
        0.00438612699508667
      ],
      "type": "VEC2"
    },
    {
      "bufferView": 1,
      "byteOffset": 1600960,
      "componentType": 5126,
      "count": 17059,
      "max": [
        0.9928979277610779,
        0.9958282113075256
      ],
      "min": [
        0.006354290992021561,
        0.00438612699508667
      ],
      "type": "VEC2"
    },
    {
      "bufferView": 1,
      "byteOffset": 1737432,
      "componentType": 5126,
      "count": 17059,
      "max": [
        0.9928979277610779,
        0.9958282113075256
      ],
      "min": [
        0.006354290992021561,
        0.00438612699508667
      ],
      "type": "VEC2"
    },
    {
      "bufferView": 1,
      "byteOffset": 1873904,
      "componentType": 5126,
      "count": 17059,
      "max": [
        0.9928979277610779,
        0.9958282113075256
      ],
      "min": [
        0.006354290992021561,
        0.00438612699508667
      ],
      "type": "VEC2"
    },
    {
      "bufferView": 1,
      "byteOffset": 2010376,
      "componentType": 5126,
      "count": 17059,
      "max": [
        0.9928979277610779,
        0.9958282113075256
      ],
      "min": [
        0.006354290992021561,
        0.00438612699508667
      ],
      "type": "VEC2"
    },
    {
      "bufferView": 1,
      "byteOffset": 2146848,
      "componentType": 5126,
      "count": 17059,
      "max": [
        0.9928979277610779,
        0.9958282113075256
      ],
      "min": [
        0.006354290992021561,
        0.00438612699508667
      ],
      "type": "VEC2"
    },
    {
      "bufferView": 1,
      "byteOffset": 2283320,
      "componentType": 5126,
      "count": 17059,
      "max": [
        0.9928979277610779,
        0.9958282113075256
      ],
      "min": [
        0.006354290992021561,
        0.00438612699508667
      ],
      "type": "VEC2"
    },
    {
      "bufferView": 0,
      "byteOffset": 172584,
      "componentType": 5125,
      "count": 44604,
      "type": "SCALAR"
    },
    {
      "bufferView": 2,
      "byteOffset": 918720,
      "componentType": 5126,
      "count": 503,
      "max": [
        12.387587547302246,
        -18.29125213623047,
        -167.4408416748047
      ],
      "min": [
        -11.659214973449707,
        -40.71194076538086,
        -178.89378356933594
      ],
      "type": "VEC3"
    },
    {
      "bufferView": 2,
      "byteOffset": 924756,
      "componentType": 5126,
      "count": 503,
      "max": [
        0.996733546257019,
        0.9974967837333679,
        0.8058807849884033
      ],
      "min": [
        -0.9967831373214722,
        -0.9112981557846069,
        -0.9995958805084229
      ],
      "type": "VEC3"
    },
    {
      "bufferView": 1,
      "byteOffset": 2419792,
      "componentType": 5126,
      "count": 503,
      "max": [
        0.9898139238357544,
        0.9896982908248901
      ],
      "min": [
        0.013753529638051987,
        0.006569505203515291
      ],
      "type": "VEC2"
    },
    {
      "bufferView": 1,
      "byteOffset": 2423816,
      "componentType": 5126,
      "count": 503,
      "max": [
        0.9898139238357544,
        0.9896982908248901
      ],
      "min": [
        0.013753529638051987,
        0.006569505203515291
      ],
      "type": "VEC2"
    },
    {
      "bufferView": 1,
      "byteOffset": 2427840,
      "componentType": 5126,
      "count": 503,
      "max": [
        0.9898139238357544,
        0.9896982908248901
      ],
      "min": [
        0.013753529638051987,
        0.006569505203515291
      ],
      "type": "VEC2"
    },
    {
      "bufferView": 1,
      "byteOffset": 2431864,
      "componentType": 5126,
      "count": 503,
      "max": [
        0.9898139238357544,
        0.9896982908248901
      ],
      "min": [
        0.013753529638051987,
        0.006569505203515291
      ],
      "type": "VEC2"
    },
    {
      "bufferView": 1,
      "byteOffset": 2435888,
      "componentType": 5126,
      "count": 503,
      "max": [
        0.9898139238357544,
        0.9896982908248901
      ],
      "min": [
        0.013753529638051987,
        0.006569505203515291
      ],
      "type": "VEC2"
    },
    {
      "bufferView": 1,
      "byteOffset": 2439912,
      "componentType": 5126,
      "count": 503,
      "max": [
        0.9898139238357544,
        0.9896982908248901
      ],
      "min": [
        0.013753529638051987,
        0.006569505203515291
      ],
      "type": "VEC2"
    },
    {
      "bufferView": 1,
      "byteOffset": 2443936,
      "componentType": 5126,
      "count": 503,
      "max": [
        0.9898139238357544,
        0.9896982908248901
      ],
      "min": [
        0.013753529638051987,
        0.006569505203515291
      ],
      "type": "VEC2"
    },
    {
      "bufferView": 1,
      "byteOffset": 2447960,
      "componentType": 5126,
      "count": 503,
      "max": [
        0.9898139238357544,
        0.9896982908248901
      ],
      "min": [
        0.013753529638051987,
        0.006569505203515291
      ],
      "type": "VEC2"
    },
    {
      "bufferView": 0,
      "byteOffset": 351000,
      "componentType": 5125,
      "count": 1950,
      "type": "SCALAR"
    }
  ],
  "asset": {
    "extras": {
      "author": "Wholock (https://sketchfab.com/wholock)",
      "license": "CC-BY-4.0 (http://creativecommons.org/licenses/by/4.0/)",
      "source": "https://sketchfab.com/3d-models/star-trek-sovereign-class-e54ca13f5a3747c584dd304e4bb81826",
      "title": "Star Trek - Sovereign Class"
    },
    "generator": "Sketchfab-12.68.0",
    "version": "2.0"
  },
  "bufferViews": [
    {
      "buffer": 0,
      "byteLength": 358800,
      "name": "floatBufferViews",
      "target": 34963
    },
    {
      "buffer": 0,
      "byteLength": 2451984,
      "byteOffset": 358800,
      "byteStride": 8,
      "name": "floatBufferViews",
      "target": 34962
    },
    {
      "buffer": 0,
      "byteLength": 930792,
      "byteOffset": 2810784,
      "byteStride": 12,
      "name": "floatBufferViews",
      "target": 34962
    }
  ],
  "buffers": [
    {
      "byteLength": 3741576,
      "uri": "scene.bin"
    }
  ],
  "images": [
    {
      "uri": "textures/Sovereign_Class_diffuse_1_1_baseColor.png"
    },
    {
      "uri": "textures/Sovereign_Class_diffuse_1_1_metallicRoughness.png"
    },
    {
      "uri": "textures/Sovereign_Class_diffuse_1_1_emissive.png"
    },
    {
      "uri": "textures/Sovereign_Class_decals_1_baseColor.png"
    },
    {
      "uri": "textures/Sovereign_Class_diffuse_2_1_baseColor.png"
    },
    {
      "uri": "textures/Sovereign_Class_diffuse_2_1_metallicRoughness.png"
    },
    {
      "uri": "textures/Sovereign_Class_diffuse_2_1_emissive.png"
    },
    {
      "uri": "textures/Sovereign_Class_diffuse_3_1_baseColor.png"
    },
    {
      "uri": "textures/Sovereign_Class_diffuse_3_1_metallicRoughness.png"
    },
    {
      "uri": "textures/Sovereign_Class_diffuse_3_1_emissive.png"
    }
  ],
  "materials": [
    {
      "doubleSided": true,
      "emissiveFactor": [
        1.0,
        1.0,
        1.0
      ],
      "emissiveTexture": {
        "index": 2
      },
      "name": "Sovereign_Class_diffuse_1_1",
      "pbrMetallicRoughness": {
        "baseColorTexture": {
          "index": 0
        },
        "metallicFactor": 0.0,
        "metallicRoughnessTexture": {
          "index": 1
        }
      }
    },
    {
      "alphaMode": "BLEND",
      "doubleSided": true,
      "name": "Sovereign_Class_decals_1",
      "pbrMetallicRoughness": {
        "baseColorTexture": {
          "index": 3
        },
        "metallicFactor": 0.0
      }
    },
    {
      "doubleSided": true,
      "emissiveFactor": [
        1.0,
        1.0,
        1.0
      ],
      "emissiveTexture": {
        "index": 6
      },
      "name": "Sovereign_Class_diffuse_2_1",
      "pbrMetallicRoughness": {
        "baseColorTexture": {
          "index": 4
        },
        "metallicFactor": 0.0,
        "metallicRoughnessTexture": {
          "index": 5
        }
      }
    },
    {
      "doubleSided": true,
      "emissiveFactor": [
        1.0,
        1.0,
        1.0
      ],
      "emissiveTexture": {
        "index": 9
      },
      "name": "Sovereign_Class_diffuse_3_1",
      "pbrMetallicRoughness": {
        "baseColorTexture": {
          "index": 7
        },
        "metallicFactor": 0.0,
        "metallicRoughnessTexture": {
          "index": 8
        }
      }
    }
  ],
  "meshes": [
    {
      "name": "Sovereign_Class_Sovereign_Class_diffuse_1_1_0",
      "primitives": [
        {
          "attributes": {
            "NORMAL": 1,
            "POSITION": 0,
            "TEXCOORD_0": 2,
            "TEXCOORD_1": 3,
            "TEXCOORD_2": 4,
            "TEXCOORD_3": 5,
            "TEXCOORD_4": 6,
            "TEXCOORD_5": 7,
            "TEXCOORD_6": 8,
            "TEXCOORD_7": 9
          },
          "indices": 10,
          "material": 0,
          "mode": 4
        }
      ]
    },
    {
      "name": "Sovereign_Class_Sovereign_Class_decals_1_0",
      "primitives": [
        {
          "attributes": {
            "NORMAL": 12,
            "POSITION": 11,
            "TEXCOORD_0": 13,
            "TEXCOORD_1": 14,
            "TEXCOORD_2": 15,
            "TEXCOORD_3": 16,
            "TEXCOORD_4": 17,
            "TEXCOORD_5": 18
          },
          "indices": 19,
          "material": 1,
          "mode": 4
        }
      ]
    },
    {
      "name": "Sovereign_Class_Sovereign_Class_diffuse_2_1_0",
      "primitives": [
        {
          "attributes": {
            "NORMAL": 21,
            "POSITION": 20,
            "TEXCOORD_0": 22,
            "TEXCOORD_1": 23,
            "TEXCOORD_2": 24,
            "TEXCOORD_3": 25,
            "TEXCOORD_4": 26,
            "TEXCOORD_5": 27,
            "TEXCOORD_6": 28,
            "TEXCOORD_7": 29
          },
          "indices": 30,
          "material": 2,
          "mode": 4
        }
      ]
    },
    {
      "name": "Sovereign_Class_Sovereign_Class_diffuse_3_1_0",
      "primitives": [
        {
          "attributes": {
            "NORMAL": 32,
            "POSITION": 31,
            "TEXCOORD_0": 33,
            "TEXCOORD_1": 34,
            "TEXCOORD_2": 35,
            "TEXCOORD_3": 36,
            "TEXCOORD_4": 37,
            "TEXCOORD_5": 38,
            "TEXCOORD_6": 39,
            "TEXCOORD_7": 40
          },
          "indices": 41,
          "material": 3,
          "mode": 4
        }
      ]
    }
  ],
  "nodes": [
    {
      "children": [
        1
      ],
      "matrix": [
        -0.9999997019767761,
        -1.6264842044872526e-19,
        0.0007325033657252789,
        0.0,
        0.0007325033657252789,
        -2.220445387505823e-16,
        0.9999997019767761,
        0.0,
        0.0,
        1.0,
        2.220446049250313e-16,
        0.0,
        0.0012973769335076213,
        -2.302874444262809e-19,
        0.0010371224489063025,
        1.0
      ],
      "name": "Sketchfab_model"
    },
    {
      "children": [
        2
      ],
      "matrix": [
        1.0,
        0.0,
        0.0,
        0.0,
        0.0,
        0.0,
        1.0,
        0.0,
        0.0,
        -1.0,
        0.0,
        0.0,
        0.0,
        0.0,
        0.0,
        1.0
      ],
      "name": "29123ace6dd84ff6812b93c324756b10.fbx"
    },
    {
      "children": [
        3,
        8,
        11
      ],
      "name": "RootNode"
    },
    {
      "children": [
        4,
        5,
        6,
        7
      ],
      "name": "Sovereign_Class"
    },
    {
      "mesh": 0,
      "name": "Sovereign_Class_Sovereign_Class_diffuse_1_1_0"
    },
    {
      "mesh": 1,
      "name": "Sovereign_Class_Sovereign_Class_decals_1_0"
    },
    {
      "mesh": 2,
      "name": "Sovereign_Class_Sovereign_Class_diffuse_2_1_0"
    },
    {
      "mesh": 3,
      "name": "Sovereign_Class_Sovereign_Class_diffuse_3_1_0"
    },
    {
      "children": [
        9
      ],
      "matrix": [
        0.7071067811865476,
        0.0,
        0.7071067811865475,
        0.0,
        -0.5792279653395692,
        0.5735764363510459,
        0.5792279653395694,
        0.0,
        -0.4055797876726388,
        -0.819152044288992,
        0.4055797876726388,
        0.0,
        -200.0,
        200.0,
        200.0,
        1.0
      ],
      "name": "Light"
    },
    {
      "children": [
        10
      ],
      "matrix": [
        1.0,
        0.0,
        0.0,
        0.0,
        0.0,
        2.220446049250313e-16,
        1.0,
        0.0,
        0.0,
        -1.0,
        2.220446049250313e-16,
        0.0,
        0.0,
        0.0,
        0.0,
        1.0
      ],
      "name": "Object_9"
    },
    {
      "name": "Object_10"
    },
    {
      "children": [
        12
      ],
      "matrix": [
        2.220446049250313e-16,
        0.0,
        -1.0,
        0.0,
        0.0,
        1.0,
        0.0,
        0.0,
        1.0,
        0.0,
        2.220446049250313e-16,
        0.0,
        0.0,
        0.0,
        1305.75927734375,
        1.0
      ],
      "name": "Camera"
    },
    {
      "name": "Object_12"
    }
  ],
  "samplers": [
    {
      "magFilter": 9729,
      "minFilter": 9987,
      "wrapS": 10497,
      "wrapT": 10497
    }
  ],
  "scene": 0,
  "scenes": [
    {
      "name": "Sketchfab_Scene",
      "nodes": [
        0
      ]
    }
  ],
  "textures": [
    {
      "sampler": 0,
      "source": 0
    },
    {
      "sampler": 0,
      "source": 1
    },
    {
      "sampler": 0,
      "source": 2
    },
    {
      "sampler": 0,
      "source": 3
    },
    {
      "sampler": 0,
      "source": 4
    },
    {
      "sampler": 0,
      "source": 5
    },
    {
      "sampler": 0,
      "source": 6
    },
    {
      "sampler": 0,
      "source": 7
    },
    {
      "sampler": 0,
      "source": 8
    },
    {
      "sampler": 0,
      "source": 9
    }
  ]
}
