{
  "accessors": [
    {
      "bufferView": 2,
      "componentType": 5126,
      "count": 45,
      "max": [
        233.534423828125,
        56.734859466552734,
        259.5054016113281
      ],
      "min": [
        -233.534423828125,
        -59.08271026611328,
        -273.63372802734375
      ],
      "type": "VEC3"
    },
    {
      "bufferView": 2,
      "byteOffset": 540,
      "componentType": 5126,
      "count": 45,
      "max": [
        0.5619317889213562,
        0.9833039045333862,
        1.0
      ],
      "min": [
        -0.5619317889213562,
        -0.8271843194961548,
        -0.26124709844589233
      ],
      "type": "VEC3"
    },
    {
      "bufferView": 1,
      "componentType": 5126,
      "count": 45,
      "max": [
        0.9014657735824585,
        0.48933419585227966
      ],
      "min": [
        0.08207821846008301,
        0.04744362831115723
      ],
      "type": "VEC2"
    },
    {
      "bufferView": 1,
      "byteOffset": 360,
      "componentType": 5126,
      "count": 45,
      "max": [
        0.9014657735824585,
        0.48933419585227966
      ],
      "min": [
        0.08207821846008301,
        0.04744362831115723
      ],
      "type": "VEC2"
    },
    {
      "bufferView": 1,
      "byteOffset": 720,
      "componentType": 5126,
      "count": 45,
      "max": [
        0.9014657735824585,
        0.48933419585227966
      ],
      "min": [
        0.08207821846008301,
        0.04744362831115723
      ],
      "type": "VEC2"
    },
    {
      "bufferView": 1,
      "byteOffset": 1080,
      "componentType": 5126,
      "count": 45,
      "max": [
        0.9014657735824585,
        0.48933419585227966
      ],
      "min": [
        0.08207821846008301,
        0.04744362831115723
      ],
      "type": "VEC2"
    },
    {
      "bufferView": 1,
      "byteOffset": 1440,
      "componentType": 5126,
      "count": 45,
      "max": [
        0.9014657735824585,
        0.48933419585227966
      ],
      "min": [
        0.08207821846008301,
        0.04744362831115723
      ],
      "type": "VEC2"
    },
    {
      "bufferView": 0,
      "componentType": 5125,
      "count": 84,
      "type": "SCALAR"
    },
    {
      "bufferView": 2,
      "byteOffset": 1080,
      "componentType": 5126,
      "count": 34177,
      "max": [
        244.6729736328125,
        69.61678314208984,
        331.2563781738281
      ],
      "min": [
        -244.6729736328125,
        -69.61678314208984,
        -331.2563781738281
      ],
      "type": "VEC3"
    },
    {
      "bufferView": 2,
      "byteOffset": 411204,
      "componentType": 5126,
      "count": 34177,
      "max": [
        1.0,
        1.0,
        1.0
      ],
      "min": [
        -1.0,
        -1.0,
        -1.0
      ],
      "type": "VEC3"
    },
    {
      "bufferView": 1,
      "byteOffset": 1800,
      "componentType": 5126,
      "count": 34177,
      "max": [
        0.9965100884437561,
        0.9908332228660583
      ],
      "min": [
        0.00959622859954834,
        0.0070514678955078125
      ],
      "type": "VEC2"
    },
    {
      "bufferView": 1,
      "byteOffset": 275216,
      "componentType": 5126,
      "count": 34177,
      "max": [
        0.9965100884437561,
        0.9908332228660583
      ],
      "min": [
        0.00959622859954834,
        0.0070514678955078125
      ],
      "type": "VEC2"
    },
    {
      "bufferView": 1,
      "byteOffset": 548632,
      "componentType": 5126,
      "count": 34177,
      "max": [
        0.9965100884437561,
        0.9908332228660583
      ],
      "min": [
        0.00959622859954834,
        0.0070514678955078125
      ],
      "type": "VEC2"
    },
    {
      "bufferView": 1,
      "byteOffset": 822048,
      "componentType": 5126,
      "count": 34177,
      "max": [
        0.9965100884437561,
        0.9908332228660583
      ],
      "min": [
        0.00959622859954834,
        0.0070514678955078125
      ],
      "type": "VEC2"
    },
    {
      "bufferView": 1,
      "byteOffset": 1095464,
      "componentType": 5126,
      "count": 34177,
      "max": [
        0.9965100884437561,
        0.9908332228660583
      ],
      "min": [
        0.00959622859954834,
        0.0070514678955078125
      ],
      "type": "VEC2"
    },
    {
      "bufferView": 1,
      "byteOffset": 1368880,
      "componentType": 5126,
      "count": 34177,
      "max": [
        0.9965100884437561,
        0.9908332228660583
      ],
      "min": [
        0.00959622859954834,
        0.0070514678955078125
      ],
      "type": "VEC2"
    },
    {
      "bufferView": 0,
      "byteOffset": 336,
      "componentType": 5125,
      "count": 74184,
      "type": "SCALAR"
    }
  ],
  "asset": {
    "extras": {
      "author": "Wholock (https://sketchfab.com/wholock)",
      "license": "CC-BY-4.0 (http://creativecommons.org/licenses/by/4.0/)",
      "source": "https://sketchfab.com/3d-models/star-trek-klingon-d5-class-eea68280064e41178a711c875a02c850",
      "title": "Star Trek - Klingon D5 Class"
    },
    "generator": "Sketchfab-12.68.0",
    "version": "2.0"
  },
  "bufferViews": [
    {
      "buffer": 0,
      "byteLength": 297072,
      "name": "floatBufferViews",
      "target": 34963
    },
    {
      "buffer": 0,
      "byteLength": 1642296,
      "byteOffset": 297072,
      "byteStride": 8,
      "name": "floatBufferViews",
      "target": 34962
    },
    {
      "buffer": 0,
      "byteLength": 821328,
      "byteOffset": 1939368,
      "byteStride": 12,
      "name": "floatBufferViews",
      "target": 34962
    }
  ],
  "buffers": [
    {
      "byteLength": 2760696,
      "uri": "scene.bin"
    }
  ],
  "images": [
    {
      "uri": "textures/D5_windows_baseColor.png"
    },
    {
      "uri": "textures/D5_diffuse_1_baseColor.png"
    },
    {
      "uri": "textures/D5_diffuse_1_metallicRoughness.png"
    }
  ],
  "materials": [
    {
      "doubleSided": true,
      "emissiveFactor": [
        1.0,
        1.0,
        1.0
      ],
      "emissiveTexture": {
        "index": 0
      },
      "name": "D5_windows",
      "pbrMetallicRoughness": {
        "baseColorTexture": {
          "index": 0
        },
        "metallicFactor": 0.05
      }
    },
    {
      "doubleSided": true,
      "name": "D5_diffuse_1",
      "pbrMetallicRoughness": {
        "baseColorTexture": {
          "index": 1
        },
        "metallicFactor": 0.0,
        "metallicRoughnessTexture": {
          "index": 2
        }
      }
    }
  ],
  "meshes": [
    {
      "name": "D5_Class_D5_windows_0",
      "primitives": [
        {
          "attributes": {
            "NORMAL": 1,
            "POSITION": 0,
            "TEXCOORD_0": 2,
            "TEXCOORD_1": 3,
            "TEXCOORD_2": 4,
            "TEXCOORD_3": 5,
            "TEXCOORD_4": 6
          },
          "indices": 7,
          "material": 0,
          "mode": 4
        }
      ]
    },
    {
      "name": "D5_Class_D5_diffuse_1_0",
      "primitives": [
        {
          "attributes": {
            "NORMAL": 9,
            "POSITION": 8,
            "TEXCOORD_0": 10,
            "TEXCOORD_1": 11,
            "TEXCOORD_2": 12,
            "TEXCOORD_3": 13,
            "TEXCOORD_4": 14,
            "TEXCOORD_5": 15
          },
          "indices": 16,
          "material": 1,
          "mode": 4
        }
      ]
    }
  ],
  "nodes": [
    {
      "children": [
        1
      ],
      "matrix": [
        -1.0,
        -6.290011496532519e-32,
        2.832769343193999e-16,
        0.0,
        2.832769343193999e-16,
        -2.220446049250313e-16,
        1.0,
        0.0,
        0.0,
        1.0,
        2.220446049250313e-16,
        0.0,
        -0.0003509521484375,
        -1.4907779871675686e-19,
        0.00067138671875,
        1.0
      ],
      "name": "Sketchfab_model"
    },
    {
      "children": [
        2
      ],
      "matrix": [
        1.0,
        0.0,
        0.0,
        0.0,
        0.0,
        0.0,
        1.0,
        0.0,
        0.0,
        -1.0,
        0.0,
        0.0,
        0.0,
        0.0,
        0.0,
        1.0
      ],
      "name": "0198badeebc743d4a453bc7ab1c65a3e.fbx"
    },
    {
      "children": [
        3,
        6,
        9
      ],
      "name": "RootNode"
    },
    {
      "children": [
        4,
        5
      ],
      "name": "D5_Class"
    },
    {
      "mesh": 0,
      "name": "D5_Class_D5_windows_0"
    },
    {
      "mesh": 1,
      "name": "D5_Class_D5_diffuse_1_0"
    },
    {
      "children": [
        7
      ],
      "matrix": [
        0.7071067811865476,
        0.0,
        0.7071067811865475,
        0.0,
        -0.5792279653395692,
        0.5735764363510459,
        0.5792279653395694,
        0.0,
        -0.4055797876726388,
        -0.819152044288992,
        0.4055797876726388,
        0.0,
        -200.0,
        200.0,
        200.0,
        1.0
      ],
      "name": "Light"
    },
    {
      "children": [
        8
      ],
      "matrix": [
        1.0,
        0.0,
        0.0,
        0.0,
        0.0,
        2.220446049250313e-16,
        1.0,
        0.0,
        0.0,
        -1.0,
        2.220446049250313e-16,
        0.0,
        0.0,
        0.0,
        0.0,
        1.0
      ],
      "name": "Object_7"
    },
    {
      "name": "Object_8"
    },
    {
      "children": [
        10
      ],
      "matrix": [
        2.220446049250313e-16,
        0.0,
        -1.0,
        0.0,
        0.0,
        1.0,
        0.0,
        0.0,
        1.0,
        0.0,
        2.220446049250313e-16,
        0.0,
        0.0,
        0.0,
        1270.800537109375,
        1.0
      ],
      "name": "Camera"
    },
    {
      "name": "Object_10"
    }
  ],
  "samplers": [
    {
      "magFilter": 9729,
      "minFilter": 9987,
      "wrapS": 10497,
      "wrapT": 10497
    }
  ],
  "scene": 0,
  "scenes": [
    {
      "name": "Sketchfab_Scene",
      "nodes": [
        0
      ]
    }
  ],
  "textures": [
    {
      "sampler": 0,
      "source": 0
    },
    {
      "sampler": 0,
      "source": 1
    },
    {
      "sampler": 0,
      "source": 2
    }
  ]
}
