{
  "accessors": [
    {
      "bufferView": 2,
      "componentType": 5126,
      "count": 12410,
      "max": [
        179.29696655273438,
        138.0733184814453,
        370.8457946777344
      ],
      "min": [
        -179.29696655273438,
        -138.0733184814453,
        -370.8457946777344
      ],
      "type": "VEC3"
    },
    {
      "bufferView": 2,
      "byteOffset": 148920,
      "componentType": 5126,
      "count": 12410,
      "max": [
        1.0,
        1.0,
        1.0
      ],
      "min": [
        -1.0,
        -1.0,
        -1.0
      ],
      "type": "VEC3"
    },
    {
      "bufferView": 1,
      "componentType": 5126,
      "count": 12410,
      "max": [
        0.9953439831733704,
        0.9959520101547241
      ],
      "min": [
        0.006784310098737478,
        0.005616366863250732
      ],
      "type": "VEC2"
    },
    {
      "bufferView": 1,
      "byteOffset": 99280,
      "componentType": 5126,
      "count": 12410,
      "max": [
        0.9953439831733704,
        0.9959520101547241
      ],
      "min": [
        0.006784310098737478,
        0.005616366863250732
      ],
      "type": "VEC2"
    },
    {
      "bufferView": 1,
      "byteOffset": 198560,
      "componentType": 5126,
      "count": 12410,
      "max": [
        0.9953439831733704,
        0.9959520101547241
      ],
      "min": [
        0.006784310098737478,
        0.005616366863250732
      ],
      "type": "VEC2"
    },
    {
      "bufferView": 1,
      "byteOffset": 297840,
      "componentType": 5126,
      "count": 12410,
      "max": [
        0.9953439831733704,
        0.9959520101547241
      ],
      "min": [
        0.006784310098737478,
        0.005616366863250732
      ],
      "type": "VEC2"
    },
    {
      "bufferView": 1,
      "byteOffset": 397120,
      "componentType": 5126,
      "count": 12410,
      "max": [
        0.9953439831733704,
        0.9959520101547241
      ],
      "min": [
        0.006784310098737478,
        0.005616366863250732
      ],
      "type": "VEC2"
    },
    {
      "bufferView": 1,
      "byteOffset": 496400,
      "componentType": 5126,
      "count": 12410,
      "max": [
        0.9953439831733704,
        0.9959520101547241
      ],
      "min": [
        0.006784310098737478,
        0.005616366863250732
      ],
      "type": "VEC2"
    },
    {
      "bufferView": 1,
      "byteOffset": 595680,
      "componentType": 5126,
      "count": 12410,
      "max": [
        0.9953439831733704,
        0.9959520101547241
      ],
      "min": [
        0.006784310098737478,
        0.005616366863250732
      ],
      "type": "VEC2"
    },
    {
      "bufferView": 0,
      "componentType": 5125,
      "count": 34818,
      "type": "SCALAR"
    }
  ],
  "asset": {
    "extras": {
      "author": "Wholock (https://sketchfab.com/wholock)",
      "license": "CC-BY-4.0 (http://creativecommons.org/licenses/by/4.0/)",
      "source": "https://sketchfab.com/3d-models/star-trek-dkyr-class-81a01b719ec4437ea47342aa7c944cca",
      "title": "Star Trek - Dkyr Class"
    },
    "generator": "Sketchfab-12.68.0",
    "version": "2.0"
  },
  "bufferViews": [
    {
      "buffer": 0,
      "byteLength": 139272,
      "name": "floatBufferViews",
      "target": 34963
    },
    {
      "buffer": 0,
      "byteLength": 694960,
      "byteOffset": 139272,
      "byteStride": 8,
      "name": "floatBufferViews",
      "target": 34962
    },
    {
      "buffer": 0,
      "byteLength": 297840,
      "byteOffset": 834232,
      "byteStride": 12,
      "name": "floatBufferViews",
      "target": 34962
    }
  ],
  "buffers": [
    {
      "byteLength": 1132072,
      "uri": "scene.bin"
    }
  ],
  "images": [
    {
      "uri": "textures/Dkyr_diffuse_1_baseColor.png"
    },
    {
      "uri": "textures/Dkyr_diffuse_1_metallicRoughness.png"
    },
    {
      "uri": "textures/Dkyr_diffuse_1_emissive.png"
    }
  ],
  "materials": [
    {
      "doubleSided": true,
      "emissiveFactor": [
        1.0,
        1.0,
        1.0
      ],
      "emissiveTexture": {
        "index": 2
      },
      "name": "Dkyr_diffuse_1",
      "pbrMetallicRoughness": {
        "baseColorTexture": {
          "index": 0
        },
        "metallicFactor": 0.0,
        "metallicRoughnessTexture": {
          "index": 1
        }
      }
    }
  ],
  "meshes": [
    {
      "name": "Dkyr_Class_D`kyr_diffuse_1_0",
      "primitives": [
        {
          "attributes": {
            "NORMAL": 1,
            "POSITION": 0,
            "TEXCOORD_0": 2,
            "TEXCOORD_1": 3,
            "TEXCOORD_2": 4,
            "TEXCOORD_3": 5,
            "TEXCOORD_4": 6,
            "TEXCOORD_5": 7,
            "TEXCOORD_6": 8
          },
          "indices": 9,
          "material": 0,
          "mode": 4
        }
      ]
    }
  ],
  "nodes": [
    {
      "children": [
        1
      ],
      "matrix": [
        -1.0,
        -6.290011496532519e-32,
        2.832769343193999e-16,
        0.0,
        2.832769343193999e-16,
        -2.220446049250313e-16,
        1.0,
        0.0,
        0.0,
        1.0,
        2.220446049250313e-16,
        0.0,
        0.001495361328125,
        2.507217523872729e-19,
        -0.001129150390625,
        1.0
      ],
      "name": "Sketchfab_model"
    },
    {
      "children": [
        2
      ],
      "matrix": [
        1.0,
        0.0,
        0.0,
        0.0,
        0.0,
        0.0,
        1.0,
        0.0,
        0.0,
        -1.0,
        0.0,
        0.0,
        0.0,
        0.0,
        0.0,
        1.0
      ],
      "name": "2fe250e3147f48789bab333d5f167de1.fbx"
    },
    {
      "children": [
        3,
        5,
        8
      ],
      "name": "RootNode"
    },
    {
      "children": [
        4
      ],
      "name": "Dkyr_Class"
    },
    {
      "mesh": 0,
      "name": "Dkyr_Class_D`kyr_diffuse_1_0"
    },
    {
      "children": [
        6
      ],
      "matrix": [
        0.7071067811865476,
        0.0,
        0.7071067811865475,
        0.0,
        -0.5792279653395692,
        0.5735764363510459,
        0.5792279653395694,
        0.0,
        -0.4055797876726388,
        -0.819152044288992,
        0.4055797876726388,
        0.0,
        -200.0,
        200.0,
        200.0,
        1.0
      ],
      "name": "Light"
    },
    {
      "children": [
        7
      ],
      "matrix": [
        1.0,
        0.0,
        0.0,
        0.0,
        0.0,
        2.220446049250313e-16,
        1.0,
        0.0,
        0.0,
        -1.0,
        2.220446049250313e-16,
        0.0,
        0.0,
        0.0,
        0.0,
        1.0
      ],
      "name": "Object_6"
    },
    {
      "name": "Object_7"
    },
    {
      "children": [
        9
      ],
      "matrix": [
        2.220446049250313e-16,
        0.0,
        -1.0,
        0.0,
        0.0,
        1.0,
        0.0,
        0.0,
        1.0,
        0.0,
        2.220446049250313e-16,
        0.0,
        0.0,
        0.0,
        1077.78125,
        1.0
      ],
      "name": "Camera"
    },
    {
      "name": "Object_9"
    }
  ],
  "samplers": [
    {
      "magFilter": 9729,
      "minFilter": 9987,
      "wrapS": 10497,
      "wrapT": 10497
    }
  ],
  "scene": 0,
  "scenes": [
    {
      "name": "Sketchfab_Scene",
      "nodes": [
        0
      ]
    }
  ],
  "textures": [
    {
      "sampler": 0,
      "source": 0
    },
    {
      "sampler": 0,
      "source": 1
    },
    {
      "sampler": 0,
      "source": 2
    }
  ]
}
