{
  "accessors": [
    {
      "bufferView": 2,
      "componentType": 5126,
      "count": 914,
      "max": [
        1068.91455078125,
        582.5520629882813,
        3.5527141023169746e-15
      ],
      "min": [
        -761.2523803710938,
        -585.2048950195313,
        0.0
      ],
      "type": "VEC3"
    },
    {
      "bufferView": 2,
      "byteOffset": 10968,
      "componentType": 5126,
      "count": 914,
      "max": [
        2.628895016497455e-20,
        2.3745710476388786e-18,
        1.0
      ],
      "min": [
        -2.628895016497455e-20,
        -2.3745710476388786e-18,
        -1.0
      ],
      "type": "VEC3"
    },
    {
      "bufferView": 3,
      "componentType": 5126,
      "count": 914,
      "max": [
        1.0,
        1.0,
        2.374712288728472e-18,
        1.0
      ],
      "min": [
        -1.0,
        -6.242498233160952e-38,
        -2.628895016497455e-20,
        -1.0
      ],
      "type": "VEC4"
    },
    {
      "bufferView": 1,
      "componentType": 5126,
      "count": 914,
      "max": [
        8.334942817687988,
        18.470359802246094
      ],
      "min": [
        -2.2787439823150635,
        1.8360589742660522
      ],
      "type": "VEC2"
    },
    {
      "bufferView": 0,
      "componentType": 5125,
      "count": 2730,
      "type": "SCALAR"
    },
    {
      "bufferView": 2,
      "byteOffset": 21936,
      "componentType": 5126,
      "count": 38832,
      "max": [
        1068.91455078125,
        585.9896850585938,
        158.60060119628906
      ],
      "min": [
        -765.2523803710938,
        -588.6423950195313,
        -9.947598300641403e-14
      ],
      "type": "VEC3"
    },
    {
      "bufferView": 2,
      "byteOffset": 487920,
      "componentType": 5126,
      "count": 38832,
      "max": [
        1.0,
        1.0,
        1.0
      ],
      "min": [
        -1.0,
        -1.0,
        -1.0
      ],
      "type": "VEC3"
    },
    {
      "bufferView": 3,
      "byteOffset": 14624,
      "componentType": 5126,
      "count": 38832,
      "max": [
        1.0,
        1.0,
        1.0,
        1.0
      ],
      "min": [
        -1.0,
        -1.0,
        -1.0,
        -1.0
      ],
      "type": "VEC4"
    },
    {
      "bufferView": 1,
      "byteOffset": 7312,
      "componentType": 5126,
      "count": 38832,
      "max": [
        6.548202991485596,
        3.017810106277466
      ],
      "min": [
        -0.7778561115264893,
        -2.1964340209960938
      ],
      "type": "VEC2"
    },
    {
      "bufferView": 0,
      "byteOffset": 10920,
      "componentType": 5125,
      "count": 90420,
      "type": "SCALAR"
    },
    {
      "bufferView": 2,
      "byteOffset": 953904,
      "componentType": 5126,
      "count": 45768,
      "max": [
        1068.91455078125,
        582.5523071289063,
        260.9126892089844
      ],
      "min": [
        -761.2523803710938,
        -585.204833984375,
        -9.947598300641403e-14
      ],
      "type": "VEC3"
    },
    {
      "bufferView": 2,
      "byteOffset": 1503120,
      "componentType": 5126,
      "count": 45768,
      "max": [
        1.0,
        1.0,
        1.0
      ],
      "min": [
        -1.0,
        -1.0,
        -1.0
      ],
      "type": "VEC3"
    },
    {
      "bufferView": 3,
      "byteOffset": 635936,
      "componentType": 5126,
      "count": 45768,
      "max": [
        1.0,
        1.0,
        1.0,
        1.0
      ],
      "min": [
        -1.0,
        -1.0,
        -1.0,
        -1.0
      ],
      "type": "VEC4"
    },
    {
      "bufferView": 1,
      "byteOffset": 317968,
      "componentType": 5126,
      "count": 45768,
      "max": [
        3.6786420345306396,
        5.556577205657959
      ],
      "min": [
        -0.0421750582754612,
        -5.933031843596837e-13
      ],
      "type": "VEC2"
    },
    {
      "bufferView": 0,
      "byteOffset": 372600,
      "componentType": 5125,
      "count": 110160,
      "type": "SCALAR"
    },
    {
      "bufferView": 2,
      "byteOffset": 2052336,
      "componentType": 5126,
      "count": 13724,
      "max": [
        1049.2845458984375,
        585.1122436523438,
        198.82220458984375
      ],
      "min": [
        -765.2523803710938,
        -587.7647094726563,
        72.49510192871094
      ],
      "type": "VEC3"
    },
    {
      "bufferView": 2,
      "byteOffset": 2217024,
      "componentType": 5126,
      "count": 13724,
      "max": [
        1.0,
        1.0,
        1.0
      ],
      "min": [
        -1.0,
        -1.0,
        -1.0
      ],
      "type": "VEC3"
    },
    {
      "bufferView": 3,
      "byteOffset": 1368224,
      "componentType": 5126,
      "count": 13724,
      "max": [
        1.0,
        1.0,
        0.9999977350234985,
        1.0
      ],
      "min": [
        -1.0,
        -0.7653030753135681,
        -0.9900587797164917,
        -1.0
      ],
      "type": "VEC4"
    },
    {
      "bufferView": 1,
      "byteOffset": 684112,
      "componentType": 5126,
      "count": 13724,
      "max": [
        6.549415111541748,
        1.5596519708633423
      ],
      "min": [
        -1.6596720218658447,
        -1.320397973060608
      ],
      "type": "VEC2"
    },
    {
      "bufferView": 0,
      "byteOffset": 813240,
      "componentType": 5125,
      "count": 55692,
      "type": "SCALAR"
    },
    {
      "bufferView": 2,
      "byteOffset": 2381712,
      "componentType": 5126,
      "count": 35642,
      "max": [
        1045.2845458984375,
        585.1122436523438,
        277.42840576171875
      ],
      "min": [
        -761.2523803710938,
        -587.7647094726563,
        61.164939880371094
      ],
      "type": "VEC3"
    },
    {
      "bufferView": 2,
      "byteOffset": 2809416,
      "componentType": 5126,
      "count": 35642,
      "max": [
        1.0,
        1.0,
        1.0
      ],
      "min": [
        -1.0,
        -1.0,
        -1.0
      ],
      "type": "VEC3"
    },
    {
      "bufferView": 3,
      "byteOffset": 1587808,
      "componentType": 5126,
      "count": 35642,
      "max": [
        1.0,
        1.0,
        0.99997878074646,
        1.0
      ],
      "min": [
        -1.0,
        -0.989613950252533,
        -0.9999972581863403,
        -1.0
      ],
      "type": "VEC4"
    },
    {
      "bufferView": 1,
      "byteOffset": 793904,
      "componentType": 5126,
      "count": 35642,
      "max": [
        5.672824859619141,
        3.391005039215088
      ],
      "min": [
        -1.6355680227279663,
        -2.879474002986937e-12
      ],
      "type": "VEC2"
    },
    {
      "bufferView": 0,
      "byteOffset": 1036008,
      "componentType": 5125,
      "count": 96780,
      "type": "SCALAR"
    },
    {
      "bufferView": 2,
      "byteOffset": 3237120,
      "componentType": 5126,
      "count": 86,
      "max": [
        1007.7276000976563,
        582.5523071289063,
        258.5
      ],
      "min": [
        -646.1514282226563,
        -585.204833984375,
        158.60060119628906
      ],
      "type": "VEC3"
    },
    {
      "bufferView": 0,
      "byteOffset": 1423128,
      "componentType": 5125,
      "count": 98,
      "type": "SCALAR"
    },
    {
      "bufferView": 2,
      "byteOffset": 3238152,
      "componentType": 5126,
      "count": 7086,
      "max": [
        1049.2845458984375,
        585.9896850585938,
        254.125
      ],
      "min": [
        -765.2523803710938,
        -588.6423950195313,
        5.920742034912109
      ],
      "type": "VEC3"
    },
    {
      "bufferView": 2,
      "byteOffset": 3323184,
      "componentType": 5126,
      "count": 7086,
      "max": [
        1.0,
        1.0,
        1.0
      ],
      "min": [
        -1.0,
        -1.0,
        -1.0
      ],
      "type": "VEC3"
    },
    {
      "bufferView": 3,
      "byteOffset": 2158080,
      "componentType": 5126,
      "count": 7086,
      "max": [
        1.0,
        1.0,
        1.0,
        1.0
      ],
      "min": [
        -1.0,
        -1.0,
        -1.0,
        -1.0
      ],
      "type": "VEC4"
    },
    {
      "bufferView": 1,
      "byteOffset": 1079040,
      "componentType": 5126,
      "count": 7086,
      "max": [
        0.6041116714477539,
        1.3316930532455444
      ],
      "min": [
        -0.6041116714477539,
        -0.777999997138977
      ],
      "type": "VEC2"
    },
    {
      "bufferView": 0,
      "byteOffset": 1423520,
      "componentType": 5125,
      "count": 13944,
      "type": "SCALAR"
    },
    {
      "bufferView": 2,
      "byteOffset": 3408216,
      "componentType": 5126,
      "count": 980,
      "max": [
        1049.2845458984375,
        585.9896850585938,
        170.88189697265625
      ],
      "min": [
        -765.2523803710938,
        -588.6423950195313,
        5.920742034912109
      ],
      "type": "VEC3"
    },
    {
      "bufferView": 2,
      "byteOffset": 3419976,
      "componentType": 5126,
      "count": 980,
      "max": [
        1.0,
        1.0,
        7.456768153792613e-15
      ],
      "min": [
        -1.0,
        -1.0,
        -7.456768153792613e-15
      ],
      "type": "VEC3"
    },
    {
      "bufferView": 1,
      "byteOffset": 1135728,
      "componentType": 5126,
      "count": 980,
      "max": [
        1.2732549905776978,
        1.0570889711380005
      ],
      "min": [
        -2.220446049250313e-15,
        -0.859000027179718
      ],
      "type": "VEC2"
    },
    {
      "bufferView": 0,
      "byteOffset": 1479296,
      "componentType": 5125,
      "count": 2676,
      "type": "SCALAR"
    },
    {
      "bufferView": 2,
      "byteOffset": 3431736,
      "componentType": 5126,
      "count": 526,
      "max": [
        1121.3470458984375,
        625.4553833007813,
        280.1631774902344
      ],
      "min": [
        -837.3148803710938,
        -628.1076049804688,
        -23.836820602416992
      ],
      "type": "VEC3"
    },
    {
      "bufferView": 2,
      "byteOffset": 3438048,
      "componentType": 5126,
      "count": 526,
      "max": [
        1.0,
        1.0,
        1.0
      ],
      "min": [
        -1.0,
        -1.0,
        -1.0
      ],
      "type": "VEC3"
    },
    {
      "bufferView": 1,
      "byteOffset": 1143568,
      "componentType": 5126,
      "count": 526,
      "max": [
        17.851839065551758,
        8.771563529968262
      ],
      "min": [
        -3.122175931930542,
        -2.0936538991340537e-15
      ],
      "type": "VEC2"
    },
    {
      "bufferView": 0,
      "byteOffset": 1490000,
      "componentType": 5125,
      "count": 1470,
      "type": "SCALAR"
    },
    {
      "bufferView": 2,
      "byteOffset": 3444360,
      "componentType": 5126,
      "count": 150,
      "max": [
        814.042724609375,
        12.4993896484375,
        214.75
      ],
      "min": [
        -661.1160278320313,
        -15.152059555053711,
        170.5
      ],
      "type": "VEC3"
    },
    {
      "bufferView": 2,
      "byteOffset": 3446160,
      "componentType": 5126,
      "count": 150,
      "max": [
        0.8660253882408142,
        1.0,
        6.604339050798931e-18
      ],
      "min": [
        -0.8660253882408142,
        -1.0,
        -1.0
      ],
      "type": "VEC3"
    },
    {
      "bufferView": 0,
      "byteOffset": 1495880,
      "componentType": 5125,
      "count": 240,
      "type": "SCALAR"
    },
    {
      "bufferView": 2,
      "byteOffset": 3447960,
      "componentType": 5126,
      "count": 150,
      "max": [
        814.042724609375,
        12.4993896484375,
        214.75
      ],
      "min": [
        -661.1160278320313,
        -15.152059555053711,
        170.5
      ],
      "type": "VEC3"
    },
    {
      "bufferView": 2,
      "byteOffset": 3449760,
      "componentType": 5126,
      "count": 150,
      "max": [
        0.8660253882408142,
        1.0,
        1.0
      ],
      "min": [
        -0.8660253882408142,
        -1.0,
        -6.604339050798931e-18
      ],
      "type": "VEC3"
    },
    {
      "bufferView": 0,
      "byteOffset": 1496840,
      "componentType": 5125,
      "count": 240,
      "type": "SCALAR"
    }
  ],
  "asset": {
    "extras": {
      "author": "jimbogies (https://sketchfab.com/jimbogies)",
      "license": "CC-BY-4.0 (http://creativecommons.org/licenses/by/4.0/)",
      "source": "https://sketchfab.com/3d-models/gallery-hallway-e01b828e50f74db2a5f84bde8944538b",
      "title": "Gallery Hallway"
    },
    "generator": "Sketchfab-12.92.0",
    "version": "2.0"
  },
  "bufferViews": [
    {
      "buffer": 0,
      "byteLength": 1497800,
      "name": "floatBufferViews",
      "target": 34963
    },
    {
      "buffer": 0,
      "byteLength": 1147776,
      "byteOffset": 1497800,
      "byteStride": 8,
      "name": "floatBufferViews",
      "target": 34962
    },
    {
      "buffer": 0,
      "byteLength": 3451560,
      "byteOffset": 2645576,
      "byteStride": 12,
      "name": "floatBufferViews",
      "target": 34962
    },
    {
      "buffer": 0,
      "byteLength": 2271456,
      "byteOffset": 6097136,
      "byteStride": 16,
      "name": "floatBufferViews",
      "target": 34962
    }
  ],
  "buffers": [
    {
      "byteLength": 8368592,
      "uri": "scene.bin"
    }
  ],
  "images": [
    {
      "uri": "textures/Tile_baseColor.jpeg"
    },
    {
      "uri": "textures/Tile_metallicRoughness.png"
    },
    {
      "uri": "textures/Tile_normal.png"
    },
    {
      "uri": "textures/Wall05_baseColor.jpeg"
    },
    {
      "uri": "textures/Wall05_metallicRoughness.png"
    },
    {
      "uri": "textures/Wall05_normal.png"
    },
    {
      "uri": "textures/Wall01_baseColor.jpeg"
    },
    {
      "uri": "textures/Wall01_metallicRoughness.png"
    },
    {
      "uri": "textures/Wall01_normal.png"
    },
    {
      "uri": "textures/Wall04_baseColor.jpeg"
    },
    {
      "uri": "textures/Wall03_baseColor.jpeg"
    },
    {
      "uri": "textures/Metal_baseColor.jpeg"
    },
    {
      "uri": "textures/Metal_metallicRoughness.png"
    },
    {
      "uri": "textures/Metal_normal.png"
    },
    {
      "uri": "textures/window_baseColor.jpeg"
    },
    {
      "uri": "textures/Blackout_baseColor.jpeg"
    }
  ],
  "materials": [
    {
      "name": "Tile",
      "normalTexture": {
        "index": 2
      },
      "pbrMetallicRoughness": {
        "baseColorTexture": {
          "index": 0
        },
        "metallicFactor": 0.0,
        "metallicRoughnessTexture": {
          "index": 1
        }
      }
    },
    {
      "name": "Wall05",
      "normalTexture": {
        "index": 5
      },
      "pbrMetallicRoughness": {
        "baseColorTexture": {
          "index": 3
        },
        "metallicFactor": 0.0,
        "metallicRoughnessTexture": {
          "index": 4
        }
      }
    },
    {
      "name": "Wall01",
      "normalTexture": {
        "index": 8
      },
      "pbrMetallicRoughness": {
        "baseColorTexture": {
          "index": 6
        },
        "metallicFactor": 0.0,
        "metallicRoughnessTexture": {
          "index": 7
        }
      }
    },
    {
      "name": "Wall04",
      "normalTexture": {
        "index": 8
      },
      "pbrMetallicRoughness": {
        "baseColorTexture": {
          "index": 9
        },
        "metallicFactor": 0.0,
        "metallicRoughnessTexture": {
          "index": 7
        }
      }
    },
    {
      "name": "Wall03",
      "normalTexture": {
        "index": 8
      },
      "pbrMetallicRoughness": {
        "baseColorTexture": {
          "index": 10
        },
        "metallicFactor": 0.0,
        "metallicRoughnessTexture": {
          "index": 7
        }
      }
    },
    {
      "name": "edge_color000255",
      "pbrMetallicRoughness": {
        "metallicFactor": 0.0,
        "roughnessFactor": 0.6
      }
    },
    {
      "name": "Metal",
      "normalTexture": {
        "index": 13
      },
      "pbrMetallicRoughness": {
        "baseColorTexture": {
          "index": 11
        },
        "metallicFactor": 0.0,
        "metallicRoughnessTexture": {
          "index": 12
        }
      }
    },
    {
      "alphaMode": "BLEND",
      "name": "window",
      "pbrMetallicRoughness": {
        "baseColorFactor": [
          1.0,
          1.0,
          1.0,
          0.8335263497945898
        ],
        "baseColorTexture": {
          "index": 14
        },
        "metallicFactor": 0.5104777462178932,
        "roughnessFactor": 0.3032390193951067
      }
    },
    {
      "name": "Blackout",
      "pbrMetallicRoughness": {
        "baseColorTexture": {
          "index": 15
        },
        "metallicFactor": 0.0,
        "roughnessFactor": 0.6
      }
    },
    {
      "alphaMode": "BLEND",
      "emissiveFactor": [
        0.991847281684668,
        0.7760536774253025,
        0.43749485726432685
      ],
      "name": "Light",
      "pbrMetallicRoughness": {
        "baseColorFactor": [
          1.0,
          1.0,
          0.6,
          0.5836208263
        ],
        "metallicFactor": 0.1386670893,
        "roughnessFactor": 0.1691433726
      }
    },
    {
      "name": "material",
      "pbrMetallicRoughness": {
        "baseColorFactor": [
          0.643137,
          0.698039,
          0.733333,
          1.0
        ],
        "metallicFactor": 0.0,
        "roughnessFactor": 0.6
      }
    }
  ],
  "meshes": [
    {
      "name": "Material2",
      "primitives": [
        {
          "attributes": {
            "NORMAL": 1,
            "POSITION": 0,
            "TANGENT": 2,
            "TEXCOORD_0": 3
          },
          "indices": 4,
          "material": 0,
          "mode": 4
        }
      ]
    },
    {
      "name": "Material2",
      "primitives": [
        {
          "attributes": {
            "NORMAL": 6,
            "POSITION": 5,
            "TANGENT": 7,
            "TEXCOORD_0": 8
          },
          "indices": 9,
          "material": 1,
          "mode": 4
        }
      ]
    },
    {
      "name": "Material2",
      "primitives": [
        {
          "attributes": {
            "NORMAL": 11,
            "POSITION": 10,
            "TANGENT": 12,
            "TEXCOORD_0": 13
          },
          "indices": 14,
          "material": 2,
          "mode": 4
        }
      ]
    },
    {
      "name": "Material2",
      "primitives": [
        {
          "attributes": {
            "NORMAL": 16,
            "POSITION": 15,
            "TANGENT": 17,
            "TEXCOORD_0": 18
          },
          "indices": 19,
          "material": 3,
          "mode": 4
        }
      ]
    },
    {
      "name": "Material2",
      "primitives": [
        {
          "attributes": {
            "NORMAL": 21,
            "POSITION": 20,
            "TANGENT": 22,
            "TEXCOORD_0": 23
          },
          "indices": 24,
          "material": 4,
          "mode": 4
        }
      ]
    },
    {
      "name": "Material2",
      "primitives": [
        {
          "attributes": {
            "POSITION": 25
          },
          "indices": 26,
          "material": 5,
          "mode": 1
        }
      ]
    },
    {
      "name": "Material2",
      "primitives": [
        {
          "attributes": {
            "NORMAL": 28,
            "POSITION": 27,
            "TANGENT": 29,
            "TEXCOORD_0": 30
          },
          "indices": 31,
          "material": 6,
          "mode": 4
        }
      ]
    },
    {
      "name": "Material2",
      "primitives": [
        {
          "attributes": {
            "NORMAL": 33,
            "POSITION": 32,
            "TEXCOORD_0": 34
          },
          "indices": 35,
          "material": 7,
          "mode": 4
        }
      ]
    },
    {
      "name": "Material2",
      "primitives": [
        {
          "attributes": {
            "NORMAL": 37,
            "POSITION": 36,
            "TEXCOORD_0": 38
          },
          "indices": 39,
          "material": 8,
          "mode": 4
        }
      ]
    },
    {
      "name": "Material2",
      "primitives": [
        {
          "attributes": {
            "NORMAL": 41,
            "POSITION": 40
          },
          "indices": 42,
          "material": 9,
          "mode": 4
        }
      ]
    },
    {
      "name": "Material3",
      "primitives": [
        {
          "attributes": {
            "NORMAL": 44,
            "POSITION": 43
          },
          "indices": 45,
          "material": 10,
          "mode": 4
        }
      ]
    }
  ],
  "nodes": [
    {
      "children": [
        1
      ],
      "matrix": [
        1.0,
        0.0,
        0.0,
        0.0,
        0.0,
        2.220446049250313e-16,
        -1.0,
        0.0,
        0.0,
        1.0,
        2.220446049250313e-16,
        0.0,
        0.0,
        0.0,
        0.0,
        1.0
      ],
      "name": "Sketchfab_model"
    },
    {
      "children": [
        2,
        3,
        4,
        5,
        6,
        7,
        8,
        9,
        10,
        11,
        12,
        13
      ],
      "name": "Collada visual scene group"
    },
    {
      "mesh": 0,
      "name": "Material2"
    },
    {
      "mesh": 1,
      "name": "Material2"
    },
    {
      "mesh": 2,
      "name": "Material2"
    },
    {
      "mesh": 3,
      "name": "Material2"
    },
    {
      "mesh": 4,
      "name": "Material2"
    },
    {
      "mesh": 5,
      "name": "Material2"
    },
    {
      "mesh": 6,
      "name": "Material2"
    },
    {
      "mesh": 7,
      "name": "Material2"
    },
    {
      "mesh": 8,
      "name": "Material2"
    },
    {
      "mesh": 9,
      "name": "Material2"
    },
    {
      "mesh": 10,
      "name": "Material3"
    },
    {
      "children": [
        14
      ],
      "name": "SketchUp"
    },
    {
      "children": [
        15
      ],
      "matrix": [
        -0.09228478,
        0.9957327,
        0.0,
        0.0,
        -0.1893814,
        -0.01755192,
        0.9817467,
        0.0,
        0.9775572,
        0.09060027,
        0.190193,
        0.0,
        1956.555,
        13.43204,
        319.6552,
        1.0
      ],
      "name": "skp_camera_Last_Saved_SketchUp_View"
    },
    {
      "name": "ID1"
    }
  ],
  "samplers": [
    {
      "magFilter": 9729,
      "minFilter": 9987,
      "wrapS": 10497,
      "wrapT": 10497
    }
  ],
  "scene": 0,
  "scenes": [
    {
      "name": "Sketchfab_Scene",
      "nodes": [
        0
      ]
    }
  ],
  "textures": [
    {
      "sampler": 0,
      "source": 0
    },
    {
      "sampler": 0,
      "source": 1
    },
    {
      "sampler": 0,
      "source": 2
    },
    {
      "sampler": 0,
      "source": 3
    },
    {
      "sampler": 0,
      "source": 4
    },
    {
      "sampler": 0,
      "source": 5
    },
    {
      "sampler": 0,
      "source": 6
    },
    {
      "sampler": 0,
      "source": 7
    },
    {
      "sampler": 0,
      "source": 8
    },
    {
      "sampler": 0,
      "source": 9
    },
    {
      "sampler": 0,
      "source": 10
    },
    {
      "sampler": 0,
      "source": 11
    },
    {
      "sampler": 0,
      "source": 12
    },
    {
      "sampler": 0,
      "source": 13
    },
    {
      "sampler": 0,
      "source": 14
    },
    {
      "sampler": 0,
      "source": 15
    }
  ]
}
